<svg xmlns="http://www.w3.org/2000/svg">
<defs>
<font id="INSEE-SemiLight" horiz-adv-x="0" >
  <font-face 
    font-family="INSEE SemiLight"
    font-weight="300"
    font-stretch="normal"
    units-per-em="4096"
    panose-1="2 0 5 6 0 0 0 2 0 3"
    ascent="3276"
    descent="-820"
    x-height="1517"
    cap-height="2060"
    bbox="-1910 -1215 3101 3118"
    underline-thickness="143"
    underline-position="-390"
    unicode-range="U+0020-U+FB02"
  />
<missing-glyph horiz-adv-x="3174" 
d="M485 2032l51.5 57c17 18 35.5 34.667 55.5 50l238 -268c-14 -11.333 -27.667 -23.5 -41 -36.5s-26 -26.5 -38 -40.5zM1645 2136c-18.667 1.33301 -37.667 1.66602 -57 1c-19.333 -0.666992 -38 -1 -56 -1l-18 354c52 3.33301 101.667 3.33301 149 0zM2581 2136
l57.5 -51.5c18.333 -17 35.166 -35.5 50.5 -55.5l-263 -235c-12 14 -24.833 27.667 -38.5 41l-40.5 39zM3097 1111c2 -26 3.16699 -51.502 3.5 -76.502s0.5 -50.5 0.5 -76.5l-361 22c1.33301 16.667 2 34.834 2 54.501s-0.666992 37.834 -2 54.501zM2307 1035
c0 -53.333 -5.33496 -104.668 -16.002 -154.001s-25.334 -95.5 -44 -138.5c-18.667 -43 -40.667 -82.667 -66 -119s-52.666 -68.166 -82 -95.499v-232l-48 -15l94 -226l-88 -21l88 -217l-91 -25l33 -76l-88 -201h-150c-2 -18.667 -10.333 -36 -25 -52
s-33.5 -29.833 -56.5 -41.5s-49.833 -20.834 -80.5 -27.501s-63 -10 -97 -10c-36 0 -69.333 3.33301 -100 10s-57.667 15.834 -81 27.501s-42.166 25.5 -56.499 41.5s-22.5 33.333 -24.5 52h-150l-147 360l92 24l-95 226l104 25l-58 140v238
c-29.333 30 -56.5 63.667 -81.5 101s-47 77.5 -66 120.5s-33.833 88.5 -44.5 136.5s-16 97.667 -16 149c0 66 8.5 129.667 25.5 191s41.167 118.5 72.5 171.5s69 101.5 113 145.5s92.833 81.5 146.5 112.5s111.334 55.167 173.001 72.5s126.167 26 193.5 26
c65.333 0 128.5 -8.66699 189.5 -26s118 -41.5 171 -72.5s101.5 -68.5 145.5 -112.5s81.5 -92.5 112.5 -145.5s55.167 -110.167 72.5 -171.5s26 -125 26 -191zM1398 582.996l-49.999 430.003c-25.333 -6 -46.5 -12.333 -63.5 -19s-32.167 -12.334 -45.5 -17.001

<glyph glyph-name="plusminus" unicode="&#x2b;&#x2d;" horiz-adv-x="1678" 
d="M946 1010v-614h-214v614h-601v192h601v611h214v-611h601v-192h-601zM134 0v192h1410v-192h-1410z" />
    <glyph glyph-name="ellipsis" unicode="&#x2e;&#x2e;&#x2e;" horiz-adv-x="1959" 
d="M1757 137c0 -22 -4.33301 -42.833 -13 -62.5s-20.167 -36.834 -34.5 -51.501s-31.333 -26.334 -51 -35.001s-40.5 -13 -62.5 -13c-23.333 0 -45 4.33301 -65 13s-37.333 20.334 -52 35.001s-26.334 31.834 -35.001 51.501s-13 40.5 -13 62.5c0 22.667 4.33301 44 13 64
s20.334 37.167 35.001 51.5s32 25.666 52 33.999s41.667 12.5 65 12.5c22 0 42.833 -4.16699 62.5 -12.5s36.667 -19.666 51 -33.999s25.833 -31.5 34.5 -51.5s13 -41.333 13 -64zM1123 137c0 -22 -4.16699 -42.833 -12.5 -62.5s-19.666 -36.834 -33.999 -51.501
s-31.5 -26.334 -51.5 -35.001s-41.333 -13 -64 -13c-22 0 -42.833 4.33301 -62.5 13s-36.834 20.334 -51.501 35.001s-26.334 31.834 -35.001 51.501s-13 40.5 -13 62.5c0 22.667 4.33301 44 13 64s20.334 37.167 35.001 51.5s31.834 25.666 51.501 33.999
s40.5 12.5 62.5 12.5c22.667 0 44 -4.16699 64 -12.5s37.167 -19.666 51.5 -33.999s25.666 -31.5 33.999 -51.5s12.5 -41.333 12.5 -64zM491 137c0 -22 -4.33301 -42.833 -13 -62.5s-20.334 -36.834 -35.001 -51.501s-32.167 -26.334 -52.5 -35.001s-41.833 -13 -64.5 -13
c-22 0 -42.833 4.33301 -62.5 13s-36.667 20.334 -51 35.001s-25.833 31.834 -34.5 51.501s-13 40.5 -13 62.5c0 22.667 4.33301 44 13 64s20.167 37.167 34.5 51.5s31.333 25.666 51 33.999s40.5 12.5 62.5 12.5c22.667 0 44.167 -4.16699 64.5 -12.5
s37.833 -19.666 52.5 -33.999s26.334 -31.5 35.001 -51.5s13 -41.333 13 -64z" />
    <glyph glyph-name="lessequal" unicode="&#x3c;&#x3d;" horiz-adv-x="1678" 
d="M1312 367l-1135 744l1132 747l128 -159l-924 -585l924 -577zM204 0v192h1270v-192h-1270z" />
    <glyph glyph-name="greaterequal" unicode="&#x3e;&#x3d;" horiz-adv-x="1678" 
d="M370 367l-129 161l925 583l-925 576l126 171l1134 -744zM204 0v192h1270v-192h-1270z" />
    <glyph glyph-name="fongmanfunnuthai" unicode="&#xe4f;&#x22;" horiz-adv-x="1846" 
d="M220 700c0 64.667 8.33301 127 25 187s40.334 116 71.001 168s67.334 99.333 110.001 142s90 79.334 142 110.001s108 54.334 168 71.001s122.333 25 187 25s127 -8.33301 187 -25s116 -40.334 168 -71.001s99.333 -67.334 142 -110.001s79.334 -90 110.001 -142
s54.334 -108 71.001 -168s25 -122.333 25 -187s-8.33301 -127 -25 -187s-40.334 -116 -71.001 -168s-67.334 -99.333 -110.001 -142s-90 -79.334 -142 -110.001s-108 -54.334 -168 -71.001s-122.333 -25 -187 -25s-127 8.33301 -187 25s-116 40.334 -168 71.001
s-99.333 67.334 -142 110.001s-79.334 90 -110.001 142s-54.334 108 -71.001 168s-25 122.333 -25 187zM613 700c0 42.667 8.16699 82.834 24.5 120.501s38.5 70.5 66.5 98.5s60.833 50.167 98.5 66.5s77.834 24.5 120.501 24.5s82.834 -8.16699 120.501 -24.5
s70.5 -38.5 98.5 -66.5s50.167 -60.833 66.5 -98.5s24.5 -77.834 24.5 -120.501s-8.16699 -82.834 -24.5 -120.501s-38.5 -70.5 -66.5 -98.5s-60.833 -50.167 -98.5 -66.5s-77.834 -24.5 -120.501 -24.5s-82.834 8.16699 -120.501 24.5s-70.5 38.5 -98.5 66.5
s-50.167 60.833 -66.5 98.5s-24.5 77.834 -24.5 120.501zM765 699c0 -22 4.16699 -42.5 12.5 -61.5s19.5 -35.5 33.5 -49.5s30.5 -25.167 49.5 -33.5s39.5 -12.5 61.5 -12.5s42.5 4.16699 61.5 12.5s35.5 19.5 49.5 33.5s25.167 30.5 33.5 49.5s12.5 39.5 12.5 61.5
s-4.16699 42.5 -12.5 61.5s-19.5 35.5 -33.5 49.5s-30.5 25.167 -49.5 33.5s-39.5 12.5 -61.5 12.5s-42.5 -4.16699 -61.5 -12.5s-35.5 -19.5 -49.5 -33.5s-25.167 -30.5 -33.5 -49.5s-12.5 -39.5 -12.5 -61.5zM402 700c0 -72 13.667 -139.5 41 -202.5s64.5 -118 111.5 -165
s102.167 -84.167 165.5 -111.5s130.666 -41 201.999 -41c72 0 139.5 13.667 202.5 41s118 64.5 165 111.5s84.167 102 111.5 165s41 130.5 41 202.5s-13.667 139.5 -41 202.5s-64.5 118 -111.5 165s-102 84.167 -165 111.5s-130.5 41 -202.5 41
c-71.333 0 -138.666 -13.667 -201.999 -41s-118.5 -64.5 -165.5 -111.5s-84.167 -102 -111.5 -165s-41 -130.5 -41 -202.5zM1223 1597l-145 0.000976562c-5.33301 84.667 -11.333 167.667 -18 249s-12.667 163.666 -18 246.999h215zM765 1597l-142.002 0.000976562
c-5.33301 84.667 -11.166 167.667 -17.499 249s-12.166 163.666 -17.499 246.999h214z" />
    <glyph glyph-name="fi" unicode="fi" horiz-adv-x="1794" 
d="M1288 0v1337h-708v-1337h-229v1337h-329v180h329v73c0 104.667 13.833 197.5 41.5 278.5s70 149.167 127 204.5s128.833 97.5 215.5 126.5s188.667 43.5 306 43.5c73.333 0 144.666 -4.83301 213.999 -14.5s135.333 -23.167 198 -40.5l-46 -192
c-28 8.66699 -58 16.834 -90 24.501s-64 14.167 -96 19.5s-63.667 9.5 -95 12.5s-60.666 4.5 -87.999 4.5c-81.333 0 -150.833 -9.83301 -208.5 -29.5s-105 -48.334 -142 -86.001s-64.167 -83.5 -81.5 -137.5s-26 -115.333 -26 -184v-103h937v-1517h-229z" />
    <glyph glyph-name="fl" unicode="fl" horiz-adv-x="1794" 
d="M1288 0l-0.000976562 2035c-48 8 -95.333 14.167 -142 18.5s-93 6.5 -139 6.5c-73.333 0 -136.833 -7.5 -190.5 -22.5s-98 -38 -133 -69s-61 -70.833 -78 -119.5s-25.5 -106.334 -25.5 -173.001v-159h442v-180h-442v-1337h-229v1337h-329v180h329v186
c0 84 13.667 159.333 41 226s69 123.167 125 169.501c56 46.333 126.333 82 211 107s184.667 37.5 300 37.5c78.667 0 159.834 -3.5 243.501 -10.5s165.5 -16.833 245.5 -29.5v-2203h-229z" />
    <glyph glyph-name="dochadaphinthuthai" unicode="&#xe0e;&#xe3a;" horiz-adv-x="1954" 
d="M1408 1091c0 59.333 -8.83301 111.667 -26.5 157s-42.667 83.333 -75 114s-71 54 -116 70s-94.833 24.333 -149.5 25c-50 0 -97 -3.33301 -141 -10s-86.5 -16.834 -127.5 -30.501s-81 -30.667 -120 -51s-78.167 -44.166 -117.5 -71.499c16.667 -18 32.334 -41 47.001 -69
s27.5 -58 38.5 -90s19.5 -64.667 25.5 -98s9 -64.666 9 -93.999l6 -540c0 -47.333 -5.33301 -86.833 -16 -118.5s-26.334 -57.167 -47.001 -76.5s-45.667 -33.166 -75 -41.499s-62.666 -12.5 -99.999 -12.5c-46 0 -83.5 2.83301 -112.5 8.5s-53.167 11.167 -72.5 16.5
c-1.33301 0 -3.33301 0.333008 -6 1s-4.66699 1.33398 -6 2.00098c3.33301 16 6.66602 30.667 9.99902 44l9.5 39l9.5 39c3.33301 13.333 6.66602 27.666 9.99902 42.999c1.33301 -0.666992 3 -1 5 -1c4.66699 -1.33301 8.83398 -2.33301 12.501 -3s11.834 -1 24.501 -1
c37.333 0 63.333 12.167 78 36.5s22 57.5 22 99.5l-7 447c0 50 -4.5 97.333 -13.5 142s-19.833 85.5 -32.5 122.5s-25.834 69.333 -39.501 97s-25.5 49.5 -35.5 65.5c47.333 37.333 100.5 74.333 159.5 111s122 69.5 189 98.5s137.167 52.667 210.5 71
s148 28.166 224 29.499c106.667 -3.33301 198 -18.666 274 -45.999s138.333 -64 187 -110s84.334 -100.167 107.001 -162.5s34 -130.833 34 -205.5v-1130c0 -57.333 -4.83301 -105.666 -14.5 -144.999s-25.834 -71.5 -48.501 -96.5s-53 -43.5 -91 -55.5
s-85.333 -19 -142 -21c-23.333 19.333 -50.333 36.5 -81 51.5s-63.5 27.5 -98.5 37.5s-71.167 17.5 -108.5 22.5s-74.333 7.5 -111 7.5c-24.667 0 -52.667 -1.83301 -84 -5.5s-64.5 -10.334 -99.5 -20.001s-71.167 -23.167 -108.5 -40.5s-74.333 -40 -111 -68l-53.5 75
l-52.5 73c44 37.333 89.333 67.5 136 90.5s92 40.667 136 53s85 20.666 123 24.999s70.333 6.5 97 6.5c22.667 0 49.5 -1.33301 80.5 -4s64 -7.66699 99 -15s71 -17.833 108 -31.5s73.167 -31.834 108.5 -54.501c18 -2 32.5 2.5 43.5 13.5s16.5 24.5 16.5 40.5v1144z" />
    <glyph glyph-name="topatakphintuthai" unicode="&#xe0f;&#xe3a;" horiz-adv-x="1954" 
d="M1664 14c0 -56.667 -4.83789 -104.497 -14.5049 -143.497s-25.834 -71 -48.501 -96s-52.834 -43.667 -90.501 -56s-84.167 -19.5 -139.5 -21.5c-17.333 26 -35.666 46.5 -54.999 61.5s-39 26.5 -59 34.5s-39.833 13 -59.5 15s-38.167 3 -55.5 3
c-16 0 -33.833 -2 -53.5 -6s-39.834 -10.5 -60.501 -19.5s-41.5 -20.833 -62.5 -35.5s-41.5 -33 -61.5 -55v1c-3.33301 -3.33301 -6 -4.83301 -8 -4.5s-3.66699 1.16602 -5 2.49902c-30 32.667 -64 58.5 -102 77.5s-82 28.5 -132 28.5
c-33.333 0 -70.666 -6.66699 -111.999 -20s-83.333 -37.666 -126 -72.999l-47 63.5l-46 61.5c24.667 26 50.5 49 77.5 69s53.833 36.667 80.5 50s52.5 23.666 77.5 30.999s48.5 11.333 70.5 12c16 0.666992 34 0 54 -2s40.5 -5.66699 61.5 -11s42 -13.166 63 -23.499
s40.5 -23.833 58.5 -40.5c4.66699 -4 12.334 -7.33301 23.001 -10s21 0.666016 31 9.99902c10.667 12 23.834 23.333 39.501 34s32.334 20 50.001 28s35.834 14.333 54.501 19s36.667 7 54 7c18 0 36.667 -1.83301 56 -5.5s38.666 -9.66699 57.999 -18
s38.333 -19.166 57 -32.499s36.334 -30 53.001 -50c19.333 -2 34.666 2.5 45.999 13.5s17 24.5 17 40.5v1138c0 59.333 -8.83301 111.666 -26.5 156.999s-42.667 83.333 -75 114s-71 54 -116 70s-94.833 24.333 -149.5 25c-50 0 -96.5 -3 -139.5 -9
s-84.667 -15.667 -125 -29s-80.166 -30.333 -119.499 -51s-80 -45.334 -122 -74.001c16.667 -18 32.334 -41 47.001 -69s27.5 -58 38.5 -90s19.5 -64.667 25.5 -98s9 -64.666 9 -93.999l6 -533c-0.666992 -46 -6.5 -84.833 -17.5 -116.5s-26.667 -57.334 -47 -77.001
s-45.166 -33.834 -74.499 -42.501s-62.333 -13 -99 -13c-46 0 -83.5 2.83301 -112.5 8.5s-53.167 11.167 -72.5 16.5c-1.33301 0 -3.33301 0.333008 -6 1s-4.66699 1.33398 -6 2.00098c3.33301 16 6.66602 30.667 9.99902 44l9.5 39l9.5 39
c3.33301 13.333 6.66602 27.666 9.99902 42.999c1.33301 -0.666992 3 -1 5 -1c4.66699 -1.33301 8.83398 -2.33301 12.501 -3s11.834 -1 24.501 -1c37.333 0 63.5 12.167 78.5 36.5s22.167 57.5 21.5 99.5l-7 440c0 50 -4.5 97.333 -13.5 142s-19.833 85.5 -32.5 122.5
s-25.834 69.333 -39.501 97s-25.5 49.5 -35.5 65.5c47.333 37.333 100.5 74.333 159.5 111s122 69.5 189 98.5s137.167 52.667 210.5 71s148 28.166 224 29.499c106.667 -3.33301 198 -18.666 274 -45.999s138.333 -64 187 -110s84.334 -100.167 107.001 -162.5
s34 -130.833 34 -205.5v-1124zM1357 -662.997c0 -23.333 4.33301 -45 13 -65s20.667 -37.667 36 -53s33 -27.333 53 -36s41.667 -13 65 -13s45.166 4.33301 65.499 13s38.166 20.667 53.499 36s27.333 33 36 53s13 41.667 13 65s-4.33301 45.166 -13 65.499
s-20.667 38.166 -36 53.499s-33.166 27.333 -53.499 36s-42.166 13 -65.499 13s-45 -4.33301 -65 -13s-37.667 -20.667 -53 -36s-27.333 -33.166 -36 -53.499s-13 -42.166 -13 -65.499z" />
    <glyph glyph-name="dochadasarauthai" unicode="&#xe0e;&#xe38;" horiz-adv-x="1954" 
d="M1461 -499c43.333 0 78.332 -4.83301 104.999 -14.5s47.167 -24.334 61.5 -44.001s24 -44.5 29 -74.5s7.16699 -65.333 6.5 -106v-236h-236l-1 218c0 36.667 -5.33301 62.834 -16 78.501s-25.667 24.5 -45 26.5c-16.667 1.33301 -30.667 -0.333984 -42 -5.00098
s-22.666 -12 -33.999 -22l-29.5 53l-27.5 50c19.333 16 39.166 28.833 59.499 38.5s40.333 17.334 60 23.001s38.834 9.5 57.501 11.5s36 3 52 3zM1408 1091c0 59.333 -8.83301 111.667 -26.5 157s-42.667 83.333 -75 114s-71 54 -116 70s-94.833 24.333 -149.5 25
c-50 0 -97 -3.33301 -141 -10s-86.5 -16.834 -127.5 -30.501s-81 -30.667 -120 -51s-78.167 -44.166 -117.5 -71.499c16.667 -18 32.334 -41 47.001 -69s27.5 -58 38.5 -90s19.5 -64.667 25.5 -98s9 -64.666 9 -93.999l6 -540c0 -47.333 -5.33301 -86.833 -16 -118.5
s-26.334 -57.167 -47.001 -76.5s-45.667 -33.166 -75 -41.499s-62.666 -12.5 -99.999 -12.5c-46 0 -83.5 2.83301 -112.5 8.5s-53.167 11.167 -72.5 16.5c-1.33301 0 -3.33301 0.333008 -6 1s-4.66699 1.33398 -6 2.00098c3.33301 16 6.66602 30.667 9.99902 44l9.5 39
l9.5 39c3.33301 13.333 6.66602 27.666 9.99902 42.999c1.33301 -0.666992 3 -1 5 -1c4.66699 -1.33301 8.83398 -2.33301 12.501 -3s11.834 -1 24.501 -1c37.333 0 63.333 12.167 78 36.5s22 57.5 22 99.5l-7 447c0 50 -4.5 97.333 -13.5 142s-19.833 85.5 -32.5 122.5
s-25.834 69.333 -39.501 97s-25.5 49.5 -35.5 65.5c47.333 37.333 100.5 74.333 159.5 111s122 69.5 189 98.5s137.167 52.667 210.5 71s148 28.166 224 29.499c106.667 -3.33301 198 -18.666 274 -45.999s138.333 -64 187 -110s84.334 -100.167 107.001 -162.5
s34 -130.833 34 -205.5v-1130c0 -57.333 -4.83301 -105.666 -14.5 -144.999s-25.834 -71.5 -48.501 -96.5s-53 -43.5 -91 -55.5s-85.333 -19 -142 -21c-23.333 19.333 -50.333 36.5 -81 51.5s-63.5 27.5 -98.5 37.5s-71.167 17.5 -108.5 22.5s-74.333 7.5 -111 7.5
c-24.667 0 -52.667 -1.83301 -84 -5.5s-64.5 -10.334 -99.5 -20.001s-71.167 -23.167 -108.5 -40.5s-74.333 -40 -111 -68l-53.5 75l-52.5 73c44 37.333 89.333 67.5 136 90.5s92 40.667 136 53s85 20.666 123 24.999s70.333 6.5 97 6.5c22.667 0 49.5 -1.33301 80.5 -4
s64 -7.66699 99 -15s71 -17.833 108 -31.5s73.167 -31.834 108.5 -54.501c18 -2 32.5 2.5 43.5 13.5s16.5 24.5 16.5 40.5v1144z" />
    <glyph glyph-name="topataksarauthai" unicode="&#xe0f;&#xe38;" horiz-adv-x="1954" 
d="M1664 14c0 -56.667 -4.83789 -104.497 -14.5049 -143.497s-25.834 -71 -48.501 -96s-52.834 -43.667 -90.501 -56s-84.167 -19.5 -139.5 -21.5c-17.333 26 -35.666 46.5 -54.999 61.5s-39 26.5 -59 34.5s-39.833 13 -59.5 15s-38.167 3 -55.5 3
c-16 0 -33.833 -2 -53.5 -6s-39.834 -10.5 -60.501 -19.5s-41.5 -20.833 -62.5 -35.5s-41.5 -33 -61.5 -55v1c-3.33301 -3.33301 -6 -4.83301 -8 -4.5s-3.66699 1.16602 -5 2.49902c-30 32.667 -64 58.5 -102 77.5s-82 28.5 -132 28.5
c-33.333 0 -70.666 -6.66699 -111.999 -20s-83.333 -37.666 -126 -72.999l-47 63.5l-46 61.5c24.667 26 50.5 49 77.5 69s53.833 36.667 80.5 50s52.5 23.666 77.5 30.999s48.5 11.333 70.5 12c16 0.666992 34 0 54 -2s40.5 -5.66699 61.5 -11s42 -13.166 63 -23.499
s40.5 -23.833 58.5 -40.5c4.66699 -4 12.334 -7.33301 23.001 -10s21 0.666016 31 9.99902c10.667 12 23.834 23.333 39.501 34s32.334 20 50.001 28s35.834 14.333 54.501 19s36.667 7 54 7c18 0 36.667 -1.83301 56 -5.5s38.666 -9.66699 57.999 -18
s38.333 -19.166 57 -32.499s36.334 -30 53.001 -50c19.333 -2 34.666 2.5 45.999 13.5s17 24.5 17 40.5v1138c0 59.333 -8.83301 111.666 -26.5 156.999s-42.667 83.333 -75 114s-71 54 -116 70s-94.833 24.333 -149.5 25c-50 0 -96.5 -3 -139.5 -9
s-84.667 -15.667 -125 -29s-80.166 -30.333 -119.499 -51s-80 -45.334 -122 -74.001c16.667 -18 32.334 -41 47.001 -69s27.5 -58 38.5 -90s19.5 -64.667 25.5 -98s9 -64.666 9 -93.999l6 -533c-0.666992 -46 -6.5 -84.833 -17.5 -116.5s-26.667 -57.334 -47 -77.001
s-45.166 -33.834 -74.499 -42.501s-62.333 -13 -99 -13c-46 0 -83.5 2.83301 -112.5 8.5s-53.167 11.167 -72.5 16.5c-1.33301 0 -3.33301 0.333008 -6 1s-4.66699 1.33398 -6 2.00098c3.33301 16 6.66602 30.667 9.99902 44l9.5 39l9.5 39
c3.33301 13.333 6.66602 27.666 9.99902 42.999c1.33301 -0.666992 3 -1 5 -1c4.66699 -1.33301 8.83398 -2.33301 12.501 -3s11.834 -1 24.501 -1c37.333 0 63.5 12.167 78.5 36.5s22.167 57.5 21.5 99.5l-7 440c0 50 -4.5 97.333 -13.5 142s-19.833 85.5 -32.5 122.5
s-25.834 69.333 -39.501 97s-25.5 49.5 -35.5 65.5c47.333 37.333 100.5 74.333 159.5 111s122 69.5 189 98.5s137.167 52.667 210.5 71s148 28.166 224 29.499c106.667 -3.33301 198 -18.666 274 -45.999s138.333 -64 187 -110s84.334 -100.167 107.001 -162.5
s34 -130.833 34 -205.5v-1124zM1461 -498.997c-16 0 -33.332 -1 -51.999 -3s-37.834 -5.83301 -57.501 -11.5s-39.667 -13.334 -60 -23.001s-40.166 -22.5 -59.499 -38.5l27.5 -50l29.5 -53c11.333 10 22.666 17.333 33.999 22s25.333 6.33398 42 5.00098
c19.333 -2 34.333 -10.833 45 -26.5s16 -41.834 16 -78.501l1 -218h236v236c0.666992 40.667 -1.5 76 -6.5 106s-14.667 54.833 -29 74.5s-34.833 34.334 -61.5 44.001s-61.667 14.5 -105 14.5z" />
    <glyph glyph-name="dochadasarauuthai" unicode="&#xe0e;&#xe39;" horiz-adv-x="1954" 
d="M1305 -992c-120 0 -209.83 25.667 -269.497 77s-88.834 124 -87.501 218v178h236l1 -206c0 -30.667 10.667 -57 32 -79s50.666 -33 87.999 -33c38 0 67.667 11 89 33s32 48.333 32 79c0 34.667 0.166992 69 0.5 103s0.5 68.333 0.5 103h236v-178
c1.33301 -94 -27.834 -166.667 -87.501 -218s-149.5 -77 -269.5 -77h-1zM1408 1091c0 59.333 -8.83301 111.667 -26.5 157s-42.667 83.333 -75 114s-71 54 -116 70s-94.833 24.333 -149.5 25c-50 0 -97 -3.33301 -141 -10s-86.5 -16.834 -127.5 -30.501
s-81 -30.667 -120 -51s-78.167 -44.166 -117.5 -71.499c16.667 -18 32.334 -41 47.001 -69s27.5 -58 38.5 -90s19.5 -64.667 25.5 -98s9 -64.666 9 -93.999l6 -540c0 -47.333 -5.33301 -86.833 -16 -118.5s-26.334 -57.167 -47.001 -76.5s-45.667 -33.166 -75 -41.499
s-62.666 -12.5 -99.999 -12.5c-46 0 -83.5 2.83301 -112.5 8.5s-53.167 11.167 -72.5 16.5c-1.33301 0 -3.33301 0.333008 -6 1s-4.66699 1.33398 -6 2.00098c3.33301 16 6.66602 30.667 9.99902 44l9.5 39l9.5 39c3.33301 13.333 6.66602 27.666 9.99902 42.999
c1.33301 -0.666992 3 -1 5 -1c4.66699 -1.33301 8.83398 -2.33301 12.501 -3s11.834 -1 24.501 -1c37.333 0 63.333 12.167 78 36.5s22 57.5 22 99.5l-7 447c0 50 -4.5 97.333 -13.5 142s-19.833 85.5 -32.5 122.5s-25.834 69.333 -39.501 97s-25.5 49.5 -35.5 65.5
c47.333 37.333 100.5 74.333 159.5 111s122 69.5 189 98.5s137.167 52.667 210.5 71s148 28.166 224 29.499c106.667 -3.33301 198 -18.666 274 -45.999s138.333 -64 187 -110s84.334 -100.167 107.001 -162.5s34 -130.833 34 -205.5v-1130
c0 -57.333 -4.83301 -105.666 -14.5 -144.999s-25.834 -71.5 -48.501 -96.5s-53 -43.5 -91 -55.5s-85.333 -19 -142 -21c-23.333 19.333 -50.333 36.5 -81 51.5s-63.5 27.5 -98.5 37.5s-71.167 17.5 -108.5 22.5s-74.333 7.5 -111 7.5c-24.667 0 -52.667 -1.83301 -84 -5.5
s-64.5 -10.334 -99.5 -20.001s-71.167 -23.167 -108.5 -40.5s-74.333 -40 -111 -68l-53.5 75l-52.5 73c44 37.333 89.333 67.5 136 90.5s92 40.667 136 53s85 20.666 123 24.999s70.333 6.5 97 6.5c22.667 0 49.5 -1.33301 80.5 -4s64 -7.66699 99 -15s71 -17.833 108 -31.5
s73.167 -31.834 108.5 -54.501c18 -2 32.5 2.5 43.5 13.5s16.5 24.5 16.5 40.5v1144z" />
    <glyph glyph-name="topataksarauuthai" unicode="&#xe0f;&#xe39;" horiz-adv-x="1954" 
d="M1664 14c0 -56.667 -4.83789 -104.497 -14.5049 -143.497s-25.834 -71 -48.501 -96s-52.834 -43.667 -90.501 -56s-84.167 -19.5 -139.5 -21.5c-17.333 26 -35.666 46.5 -54.999 61.5s-39 26.5 -59 34.5s-39.833 13 -59.5 15s-38.167 3 -55.5 3
c-16 0 -33.833 -2 -53.5 -6s-39.834 -10.5 -60.501 -19.5s-41.5 -20.833 -62.5 -35.5s-41.5 -33 -61.5 -55v1c-3.33301 -3.33301 -6 -4.83301 -8 -4.5s-3.66699 1.16602 -5 2.49902c-30 32.667 -64 58.5 -102 77.5s-82 28.5 -132 28.5
c-33.333 0 -70.666 -6.66699 -111.999 -20s-83.333 -37.666 -126 -72.999l-47 63.5l-46 61.5c24.667 26 50.5 49 77.5 69s53.833 36.667 80.5 50s52.5 23.666 77.5 30.999s48.5 11.333 70.5 12c16 0.666992 34 0 54 -2s40.5 -5.66699 61.5 -11s42 -13.166 63 -23.499
s40.5 -23.833 58.5 -40.5c4.66699 -4 12.334 -7.33301 23.001 -10s21 0.666016 31 9.99902c10.667 12 23.834 23.333 39.501 34s32.334 20 50.001 28s35.834 14.333 54.501 19s36.667 7 54 7c18 0 36.667 -1.83301 56 -5.5s38.666 -9.66699 57.999 -18
s38.333 -19.166 57 -32.499s36.334 -30 53.001 -50c19.333 -2 34.666 2.5 45.999 13.5s17 24.5 17 40.5v1138c0 59.333 -8.83301 111.666 -26.5 156.999s-42.667 83.333 -75 114s-71 54 -116 70s-94.833 24.333 -149.5 25c-50 0 -96.5 -3 -139.5 -9
s-84.667 -15.667 -125 -29s-80.166 -30.333 -119.499 -51s-80 -45.334 -122 -74.001c16.667 -18 32.334 -41 47.001 -69s27.5 -58 38.5 -90s19.5 -64.667 25.5 -98s9 -64.666 9 -93.999l6 -533c-0.666992 -46 -6.5 -84.833 -17.5 -116.5s-26.667 -57.334 -47 -77.001
s-45.166 -33.834 -74.499 -42.501s-62.333 -13 -99 -13c-46 0 -83.5 2.83301 -112.5 8.5s-53.167 11.167 -72.5 16.5c-1.33301 0 -3.33301 0.333008 -6 1s-4.66699 1.33398 -6 2.00098c3.33301 16 6.66602 30.667 9.99902 44l9.5 39l9.5 39
c3.33301 13.333 6.66602 27.666 9.99902 42.999c1.33301 -0.666992 3 -1 5 -1c4.66699 -1.33301 8.83398 -2.33301 12.501 -3s11.834 -1 24.501 -1c37.333 0 63.5 12.167 78.5 36.5s22.167 57.5 21.5 99.5l-7 440c0 50 -4.5 97.333 -13.5 142s-19.833 85.5 -32.5 122.5
s-25.834 69.333 -39.501 97s-25.5 49.5 -35.5 65.5c47.333 37.333 100.5 74.333 159.5 111s122 69.5 189 98.5s137.167 52.667 210.5 71s148 28.166 224 29.499c106.667 -3.33301 198 -18.666 274 -45.999s138.333 -64 187 -110s84.334 -100.167 107.001 -162.5
s34 -130.833 34 -205.5v-1124zM1306 -991.997c120 0 209.83 25.667 269.497 77s88.834 124 87.501 218v178h-236c0 -34.667 -0.166992 -69 -0.5 -103s-0.5 -68.333 -0.5 -103c0 -30.667 -10.667 -57 -32 -79s-51 -33 -89 -33c-37.333 0 -66.666 11 -87.999 33
s-32 48.333 -32 79l-1 206h-236v-178c-1.33301 -94 27.834 -166.667 87.501 -218s149.5 -77 269.5 -77h1z" />
    <glyph glyph-name=".notdef" horiz-adv-x="3174" 
d="M485 2032l51.5 57c17 18 35.5 34.667 55.5 50l238 -268c-14 -11.333 -27.667 -23.5 -41 -36.5s-26 -26.5 -38 -40.5zM1645 2136c-18.667 1.33301 -37.667 1.66602 -57 1c-19.333 -0.666992 -38 -1 -56 -1l-18 354c52 3.33301 101.667 3.33301 149 0zM2581 2136
l57.5 -51.5c18.333 -17 35.166 -35.5 50.5 -55.5l-263 -235c-12 14 -24.833 27.667 -38.5 41l-40.5 39zM3097 1111c2 -26 3.16699 -51.502 3.5 -76.502s0.5 -50.5 0.5 -76.5l-361 22c1.33301 16.667 2 34.834 2 54.501s-0.666992 37.834 -2 54.501zM2307 1035
c0 -53.333 -5.33496 -104.668 -16.002 -154.001s-25.334 -95.5 -44 -138.5c-18.667 -43 -40.667 -82.667 -66 -119s-52.666 -68.166 -82 -95.499v-232l-48 -15l94 -226l-88 -21l88 -217l-91 -25l33 -76l-88 -201h-150c-2 -18.667 -10.333 -36 -25 -52
s-33.5 -29.833 -56.5 -41.5s-49.833 -20.834 -80.5 -27.501s-63 -10 -97 -10c-36 0 -69.333 3.33301 -100 10s-57.667 15.834 -81 27.501s-42.166 25.5 -56.499 41.5s-22.5 33.333 -24.5 52h-150l-147 360l92 24l-95 226l104 25l-58 140v238
c-29.333 30 -56.5 63.667 -81.5 101s-47 77.5 -66 120.5s-33.833 88.5 -44.5 136.5s-16 97.667 -16 149c0 66 8.5 129.667 25.5 191s41.167 118.5 72.5 171.5s69 101.5 113 145.5s92.833 81.5 146.5 112.5s111.334 55.167 173.001 72.5s126.167 26 193.5 26
c65.333 0 128.5 -8.66699 189.5 -26s118 -41.5 171 -72.5s101.5 -68.5 145.5 -112.5s81.5 -92.5 112.5 -145.5s55.167 -110.167 72.5 -171.5s26 -125 26 -191zM1398 582.996l-49.999 430.003c-25.333 -6 -46.5 -12.333 -63.5 -19s-32.167 -12.334 -45.5 -17.001
c-14 -4.66699 -24.667 -1.5 -32 9.5s-11.833 24.5 -13.5 40.5s-0.666992 31.333 3 46s9.5 23.334 17.5 26.001c57.333 15.333 118.166 28.666 182.499 39.999s128.833 17 193.5 17c66 0 130.5 -5.66699 193.5 -17s124.5 -24.666 184.5 -39.999
c6.66699 -2.66699 11.667 -11.167 15 -25.5s4.16602 -29.333 2.49902 -45s-6 -29.167 -13 -40.5s-17.5 -15 -31.5 -11c-14 7.33301 -30.667 13.666 -50 18.999s-41.333 11 -66 17l-46 -430h192c26.667 24 52.334 52 77.001 84s46.334 67 65 105c18.667 38 33.667 79 45 123
s17 90.667 17 140c0 81.333 -15.333 157.833 -46 229.5s-72.5 134 -125.5 187s-115 94.833 -186 125.5s-146.833 46 -227.5 46c-81.333 0 -158 -15.333 -230 -46s-134.833 -72.5 -188.5 -125.5s-96 -115.333 -127 -187s-46.5 -148.167 -46.5 -229.5
c0 -43.333 4.5 -85.833 13.5 -127.5s22.333 -81.834 40 -120.501s39.667 -75.334 66 -110.001s56.5 -66 90.5 -94h190zM1727 1031c-27.333 5.33301 -51.6699 8.33301 -73.0029 9s-42.666 1 -63.999 1s-43.666 -0.333008 -66.999 -1s-48.666 -3.66699 -75.999 -9l42 -448h195
zM1202 475.999v-174l49 -122l723 183v113h-772zM1932 249.999l-745 -192l55 -128l744 186zM1935 -0.000976562l-745 -189l79 -195h641l43 106l-21 46l-233 -61l-33 92l320 79zM1556 1092h-6v19h-3v-22h9v3zM1565 1105v-10c0 -3.33301 -0.5 -4.5 -1.5 -3.5
s-1.5 2.16699 -1.5 3.5v10h-3v-10c0 -4.66699 1.5 -6.66699 4.5 -6s4.5 2.66699 4.5 6v10h-3zM1581 1092c-3.33301 -1.33301 -5 0.333984 -5 5.00098s1.66699 6.33398 5 5.00098v3c-2.66699 0.666992 -4.66699 0.166992 -6 -1.5s-2.16602 -3.83398 -2.49902 -6.50098
s0.166992 -4.83398 1.5 -6.50098s3.66602 -2.16699 6.99902 -1.5v3zM1593 1083c-6.66699 10 -6.66699 20.333 0 31c-2 0 -3.66699 -1.66699 -5 -5s-2 -6.83301 -2 -10.5s0.666992 -7.16699 2 -10.5s3 -5 5 -5zM1602 1089l3.00098 -0.00195312v10
c0 3.33301 -1.16699 5.5 -3.5 6.5s-5.16602 -0.166992 -8.49902 -3.5c1.33301 0 2.83301 0.333008 4.5 1s3.16699 -0.666016 4.5 -3.99902c-2 0 -3.83301 -0.833008 -5.5 -2.5s-2.83398 -3.16699 -3.50098 -4.5s-0.333984 -2.16602 0.999023 -2.49902s4 0.5 8 2.5v-3z
M1602 1095c-2 -2 -3.5 -3.00098 -4.5 -3.00098s-1.33301 0.333008 -1 1s1 1.33398 2 2.00098s2.16699 0.666992 3.5 0zM1611 1089c4.66699 0 7.16699 0.666992 7.5 2s0 2.83301 -1 4.5s-1.83301 3.16699 -2.5 4.5s0 2 2 2v3c-4.66699 0 -7 -0.666992 -7 -2
s0.5 -2.83301 1.5 -4.5s1.83301 -3.16699 2.5 -4.5s-0.333008 -2 -3 -2v-3zM1620 1083c2 0 3.66699 1.66699 5 5s2 6.83301 2 10.5s-0.666992 7.16699 -2 10.5s-3 5 -5 5c6.66699 -10.667 6.66699 -21 0 -31zM436.996 1089v-109l-361 -22
c-3.33301 52.667 -3.33301 103.667 0 153z" />
    <glyph glyph-name="space" unicode=" " horiz-adv-x="665" 
 />
    <glyph glyph-name="exclam" unicode="!" horiz-adv-x="974" 
d="M610 488h-189l-43 1651h275zM677 134c0 -22 -4.16699 -42.667 -12.5 -62s-19.666 -36.166 -33.999 -50.499s-31.333 -25.666 -51 -33.999s-40.834 -12.5 -63.501 -12.5c-23.333 0 -44.833 4.16699 -64.5 12.5s-36.667 19.666 -51 33.999s-25.666 31.166 -33.999 50.499
s-12.5 40 -12.5 62c0 22.667 4.16699 44 12.5 64s19.666 37.167 33.999 51.5s31.333 25.666 51 33.999s41.167 12.5 64.5 12.5c22.667 0 43.834 -4.16699 63.501 -12.5s36.667 -19.666 51 -33.999s25.666 -31.5 33.999 -51.5s12.5 -41.333 12.5 -64z" />
    <glyph glyph-name="quotedbl" unicode="&#x22;" horiz-adv-x="1071" 
d="M860 1459h-167l-40 671h247zM375 1459h-164l-43 671h250z" />
    <glyph glyph-name="numbersign" unicode="#" horiz-adv-x="1678" 
d="M1281 1278l-54 -552h277v-155h-293l-61 -571h-179l60 571h-469l-61 -571h-178l61 571h-283v155h299l54 552h-280v156h299l58 549h180l-61 -549h473l58 549h177l-58 -549h278v-156h-297zM635 1278l-55 -552h470l55 552h-470z" />
    <glyph glyph-name="dollar" unicode="$" horiz-adv-x="1678" 
d="M1389 604c0 -67.333 -11.6719 -131.162 -35.0049 -191.495s-57 -114.5 -101 -162.5s-98 -88.5 -162 -121.5s-137 -55.5 -219 -67.5v-320h-173v308c-75.333 1.33301 -144.166 5.5 -206.499 12.5s-122.833 18.167 -181.5 33.5l28 216c26 -10 55.333 -19 88 -27
s66.5 -15 101.5 -21s70 -10.667 105 -14s67.833 -5 98.5 -5c58.667 0 113.5 6.33301 164.5 19s95.167 32.167 132.5 58.5s66.833 60.166 88.5 101.499s32.5 90.666 32.5 147.999c0 52.667 -12.667 97.334 -38 134.001s-58.833 68.667 -100.5 96s-89 51.5 -142 72.5l-162 64
c-55 21.667 -109 45.667 -162 72s-100.333 58.166 -142 95.499s-75.167 82.166 -100.5 134.499s-38 115.166 -38 188.499c0 63.333 11.833 123.333 35.5 180s57.334 107.334 101.001 152.001s95.834 82 156.501 112s128 50 202 60v296h176v-287
c62 -1.33301 121.5 -5 178.5 -11s107.5 -14.667 151.5 -26l-24 -208c-56.667 19.333 -114.167 33.333 -172.5 42s-115.833 13 -172.5 13c-75.333 0 -138.666 -8.66699 -189.999 -26s-92.666 -40 -123.999 -68s-53.833 -59.5 -67.5 -94.5s-20.5 -70.5 -20.5 -106.5
c0 -51.333 12.833 -95 38.5 -131s59.5 -67.5 101.5 -94.5s89.667 -51.333 143 -73l164 -66.5c56 -22.667 110.667 -47.334 164 -74.001s101 -58.834 143 -96.501s75.833 -82 101.5 -133s38.5 -112.167 38.5 -183.5z" />
    <glyph glyph-name="percent" unicode="%" horiz-adv-x="2277" 
d="M2133 464c0 -71.333 -10.333 -137 -31 -197s-50.334 -111.833 -89.001 -155.5s-85.834 -77.834 -141.501 -102.501s-118.167 -37 -187.5 -37c-73.333 0 -136.333 10.5 -189 31.5s-96 51.333 -130 91s-59 88.334 -75 146.001s-24 123.167 -24 196.5
c0 68.667 10.333 132.5 31 191.5s50.334 110.167 89.001 153.5s85.834 77.5 141.501 102.5s118.167 37.5 187.5 37.5c143.333 0 248.833 -39.667 316.5 -119s101.5 -192.333 101.5 -339zM454 -61l-152 106l1514 1993l149 -106zM1010 1553
c0 -71.333 -10.332 -136.997 -30.999 -196.997s-50.334 -111.667 -89.001 -155s-85.667 -77.333 -141 -102s-117.666 -37 -186.999 -37c-73.333 0 -136.333 10.5 -189 31.5s-96 51.5 -130 91.5s-59 88.667 -75 146s-24 122.333 -24 195
c0 69.333 10.167 133.666 30.5 192.999s49.666 110.666 87.999 153.999s85.333 77.166 141 101.499s118.5 36.5 188.5 36.5c143.333 0 248.833 -39.667 316.5 -119s101.5 -192.333 101.5 -339zM1938 443.003c0 106.667 -18.8301 186.171 -56.4971 238.504
s-99.5 78.5 -185.5 78.5c-34 0 -65.333 -7.33301 -94 -22s-53.334 -35.334 -74.001 -62.001s-36.834 -58.834 -48.501 -96.501s-17.5 -79.5 -17.5 -125.5c0 -107.333 19.333 -188 58 -242s101.667 -81 189 -81c33.333 0 64 7.66699 92 23s52.167 36.666 72.5 63.999
s36.166 60.166 47.499 98.499s17 80.5 17 126.5zM815.004 1535.01c0 106 -18.8311 185.337 -56.498 238.004s-99.167 79 -184.5 79c-35.333 0 -67.333 -7.5 -96 -22.5s-53.334 -35.833 -74.001 -62.5s-36.667 -58.834 -48 -96.501s-17 -78.834 -17 -123.501
c0 -108.667 19.167 -189.834 57.5 -243.501s100.5 -80.5 186.5 -80.5c34 0 65.333 7.5 94 22.5s53.167 36.167 73.5 63.5s36.166 60.166 47.499 98.499s17 80.833 17 127.5z" />
    <glyph glyph-name="ampersand" unicode="&#x26;" horiz-adv-x="2423" 
d="M2090 -52l-114.499 79.499l-115.5 84.5l-110 85l-99 81c-50 -45.333 -104.667 -86.666 -164 -123.999s-122.833 -69.5 -190.5 -96.5s-139.667 -48 -216 -63s-156.833 -22.5 -241.5 -22.5c-106 0 -200 15 -282 45s-150.833 71.5 -206.5 124.5s-98 115.667 -127 188
s-43.5 150.833 -43.5 235.5c0 70.667 10.833 136.167 32.5 196.5s52.167 117.5 91.5 171.5s86 106 140 156s113.667 100 179 150c-56.667 64.667 -104 122.5 -142 173.5s-68.5 98.333 -91.5 142s-39.333 85 -49 124s-14.5 78.833 -14.5 119.5c0 60 11.5 117 34.5 171
s56.5 101.167 100.5 141.5s98.333 72.5 163 96.5s138.667 36 222 36c75.333 0 141.833 -10.167 199.5 -30.5s106 -48.333 145 -84s68.5 -77.834 88.5 -126.501s30 -101.667 30 -159c0 -51.333 -6.83301 -101.166 -20.5 -149.499s-35.834 -97 -66.501 -146
s-70.334 -98.667 -119.001 -149s-108 -102.5 -178 -156.5l156 -160l180 -174.5l192 -176c65.333 -58.333 129.333 -112.833 192 -163.5v-3c34.667 48 66.5 100.833 95.5 158.5s53.333 119.5 73 185.5s34 136 43 210s10.833 151.667 5.5 233h231
c2 -88 -2.66699 -173.667 -14 -257s-29 -163.5 -53 -240.5s-54.167 -150 -90.5 -219s-78.166 -133.167 -125.499 -192.5l231 -179c73.333 -54.667 138.333 -101 195 -139zM1083 1819c0 33.333 -5.00195 65 -15.002 95s-25.667 56.167 -47 78.5s-48.5 40.166 -81.5 53.499
s-72.5 20 -118.5 20c-39.333 0 -75.166 -6.16699 -107.499 -18.5s-60.333 -29.833 -84 -52.5s-42 -49.667 -55 -81s-19.5 -66 -19.5 -104c0 -26.667 4.16699 -54.667 12.5 -84s21.833 -61.5 40.5 -96.5s43.334 -73.5 74.001 -115.5s68.667 -89 114 -141
c47.333 38 89 74.833 125 110.5s66 71.334 90 107.001s42 72.167 54 109.5s18 77 18 119zM1495 399.999l-202.501 174.5l-201.5 185.5l-185.5 182l-154.5 163c-59.333 -47.333 -110.333 -92.333 -153 -135s-77.5 -84.5 -104.5 -125.5s-46.833 -82 -59.5 -123
s-19 -83.167 -19 -126.5c0 -58.667 10.833 -114 32.5 -166s52.834 -97.333 93.501 -136s90 -69.167 148 -91.5s123.333 -33.5 196 -33.5c66 0 128.333 6.33301 187 19s113.5 29.667 164.5 51s98 46 141 74s82.167 57.333 117.5 88z" />
    <glyph glyph-name="quotesingle" unicode="'" horiz-adv-x="586" 
d="M375 1459h-164l-43 671h250z" />
    <glyph glyph-name="parenleft" unicode="(" horiz-adv-x="922" 
d="M680 -629c-92 144.667 -166.834 283.833 -224.501 417.5s-102.667 262.167 -135 385.5s-54.166 242.5 -65.499 357.5s-17 226.5 -17 334.5c0 106.667 6.66699 219.5 20 338.5s37 242.167 71 369.5s79.667 258.333 137 393s130 271.334 218 410.001l158 -82
c-127.333 -216 -223.333 -443.333 -288 -682s-97 -482.334 -97 -731.001c0 -262.667 32 -511.5 96 -746.5s162.667 -462.167 296 -681.5z" />
    <glyph glyph-name="parenright" unicode=")" horiz-adv-x="922" 
d="M705 882c0 -108 -6.99902 -221.332 -20.999 -339.999s-38 -241.5 -72 -368.5s-79.833 -257.833 -137.5 -392.5s-130.5 -271.334 -218.5 -410.001l-158 83c127.333 214.667 223.166 441.5 287.499 680.5s96.5 482.833 96.5 731.5c0 261.333 -31.833 509.666 -95.5 744.999
s-160.834 462.333 -291.501 681l167 85c92 -146 166.667 -285.667 224 -419s102.333 -261.666 135 -384.999s54.834 -242.333 66.501 -357s17.5 -226 17.5 -334z" />
    <glyph glyph-name="asterisk" unicode="*" horiz-adv-x="1126" 
d="M894 1483l-284 198l31 -344h-177l31 344l-284 -198l-86 152l315 147l-315 147l89 149l281 -195l-28 345h174l-28 -345l284 195l86 -149l-315 -144l315 -146z" />
    <glyph glyph-name="plus" unicode="+" horiz-adv-x="1678" 
d="M946 812v-632h-217v632h-598v192h598v628h217v-628h601v-192h-601z" />
    <glyph glyph-name="comma" unicode="," horiz-adv-x="662" 
d="M323 302c32.667 0 62.001 -9.16504 88.001 -27.498s45.5 -44 58.5 -77s18.667 -72.5 17 -118.5s-13.334 -96.667 -35.001 -152s-54.834 -114.833 -99.501 -178.5s-103 -129.167 -175 -196.5l-101 88c47.333 52 83.833 99.667 109.5 143s43 82.833 52 118.5
s10.667 67.167 5 94.5s-16.167 51 -31.5 71c-19.333 24.667 -30 50.667 -32 78s2.5 52.666 13.5 75.999s27.833 42.666 50.5 57.999s49.334 23 80.001 23z" />
    <glyph glyph-name="hyphen" unicode="-" horiz-adv-x="1001" 
d="M147 793v190h708v-190h-708z" />
    <glyph glyph-name="period" unicode="." horiz-adv-x="662" 
d="M498 140c0 -22.667 -4.33301 -44 -13 -64s-20.667 -37.5 -36 -52.5s-33.166 -26.833 -53.499 -35.5s-42.5 -13 -66.5 -13c-22.667 0 -44 4.33301 -64 13s-37.333 20.5 -52 35.5s-26.334 32.5 -35.001 52.5s-13 41.333 -13 64s4.33301 44.167 13 64.5
s20.334 37.833 35.001 52.5s32 26.334 52 35.001s41.333 13 64 13c24 0 46.167 -4.33301 66.5 -13s38.166 -20.334 53.499 -35.001s27.333 -32.167 36 -52.5s13 -41.833 13 -64.5z" />
    <glyph glyph-name="slash" unicode="/" horiz-adv-x="1306" 
d="M241 -491h-216l1067 2801h217z" />
    <glyph glyph-name="zero" unicode="0" horiz-adv-x="1678" 
d="M1517 1013c0 -128 -9.16797 -242.668 -27.501 -344.001s-43.833 -190.5 -76.5 -267.5s-71 -142.667 -115 -197s-92 -98.833 -144 -133.5s-106.5 -59.834 -163.5 -75.501s-114.5 -23.5 -172.5 -23.5c-108 0 -203 18.333 -285 55s-150.667 96 -206 178
s-97.166 188.5 -125.499 319.5s-42.5 290.833 -42.5 479.5c0 172.667 17.5 322.334 52.5 449.001s83.5 231.334 145.5 314.001s135.667 144 221 184s178.333 60 279 60c62 0 121.5 -6.66699 178.5 -20s109.833 -35.333 158.5 -66s93 -71.167 133 -121.5
s74 -112.333 102 -186s49.667 -160.5 65 -260.5s23 -214.667 23 -344zM1269 994.999c0 150.667 -8.83301 278.5 -26.5 383.5s-44.334 190 -80.001 255s-80.667 112.167 -135 141.5s-118.166 44 -191.499 44c-61.333 0 -118.166 -14 -170.499 -42
s-97.666 -73.5 -135.999 -136.5s-68.5 -145.167 -90.5 -246.5s-33 -225.333 -33 -372c0 -142 7.33301 -266.333 22 -373s39 -195.667 73 -267s78.333 -124.833 133 -160.5s122 -53.5 202 -53.5c67.333 0 127.666 17.5 180.999 52.5s98.666 87 135.999 156
s66 155.167 86 258.5s30 223.333 30 360z" />
    <glyph glyph-name="one" unicode="1" horiz-adv-x="1678" 
d="M238 0v208h546v1546l-506 -198l-43 214l595 213h189v-1775h482v-208h-1263z" />
    <glyph glyph-name="two" unicode="2" horiz-adv-x="1678" 
d="M186 0v183l491 485l172.5 176c49 52 91 99.667 126 143s63.5 83 85.5 119s39.5 70.5 52.5 103.5s21.833 65.5 26.5 97.5s7 65.333 7 100c0 55.333 -9.33301 107.5 -28 156.5s-45.834 91.667 -81.501 128s-79.667 65.166 -132 86.499s-112.166 32 -179.499 32
c-46 0 -90.833 -4.66699 -134.5 -14s-85.334 -21.666 -125.001 -36.999s-76.334 -32.666 -110.001 -51.999s-63.167 -39 -88.5 -59l-64 195c36.667 24 76.167 46.167 118.5 66.5s86.833 38 133.5 53s95.5 26.833 146.5 35.5s103.5 13 157.5 13
c104.667 0 196.334 -15.5 275.001 -46.5s144.5 -72.667 197.5 -125s92.833 -112.833 119.5 -181.5s40 -140.334 40 -215.001c0 -43.333 -2.83301 -85.166 -8.5 -125.499s-15.5 -80.833 -29.5 -121.5s-32.667 -82.167 -56 -124.5s-53 -87 -89 -134
s-78.833 -97.167 -128.5 -150.5s-107.5 -111.333 -173.5 -174l-419 -399v-3c61.333 1.33301 147.333 2.66602 258 3.99902s241.334 2 392.001 2h330v-217h-1282z" />
    <glyph glyph-name="three" unicode="3" horiz-adv-x="1678" 
d="M1431 598c0 -95.333 -18.8369 -181.496 -56.5039 -258.496s-91.5 -142.833 -161.5 -197.5s-155.167 -96.667 -255.5 -126s-213.166 -44 -338.499 -44c-32.667 0 -65.5 1.16699 -98.5 3.5s-65.5 5.66602 -97.5 9.99902s-62.833 9.5 -92.5 15.5s-57.5 13 -83.5 21l31 210
c53.333 -18.667 111.5 -33.5 174.5 -44.5s128.833 -16.5 197.5 -16.5c86 0 162.333 9.33301 229 28s122.5 45.167 167.5 79.5s79.167 75.666 102.5 123.999s35 102.5 35 162.5c0 58.667 -11.5 111.5 -34.5 158.5s-56.5 87 -100.5 120s-98.5 58.333 -163.5 76
s-139.5 26.5 -223.5 26.5c-26.667 0 -52 -0.166992 -76 -0.5s-47.667 -1 -71 -2s-46.666 -2.33301 -69.999 -4s-47.666 -3.83398 -72.999 -6.50098v187h62c112 0 211.833 7.83301 299.5 23.5s161.667 39.667 222 72s106.333 73 138 122s47.5 106.833 47.5 173.5
c0 48 -9.33301 91.167 -28 129.5s-45 71 -79 98s-75 47.667 -123 62s-101.333 21.5 -160 21.5c-84 0 -162.333 -11 -235 -33s-142 -49.667 -208 -83l-24 204c70.667 29.333 146.834 53.5 228.501 72.5s172.167 28.5 271.5 28.5s186.333 -12 261 -36s137 -57 187 -99
s87.5 -91.667 112.5 -149s37.5 -119.333 37.5 -186c0 -59.333 -8.66699 -114 -26 -164s-42.666 -94.667 -75.999 -134s-74.166 -73.5 -122.499 -102.5s-103.5 -52.167 -165.5 -69.5v-3c62.667 -4.66699 120.667 -20.334 174 -47.001s99.666 -61.167 138.999 -103.5
s70.166 -91 92.499 -146s33.5 -112.833 33.5 -173.5z" />
    <glyph glyph-name="four" unicode="4" horiz-adv-x="1678" 
d="M1261 470v-470h-226v470h-940l-19 180l876 1333h309v-1306h350v-207h-350zM1038 1754l-3 0.000976562l-721 -1086c33.333 1.33301 71.333 2.5 114 3.5s87.167 1.83301 133.5 2.5s93 1.16699 140 1.5s91.833 0.666016 134.5 0.999023s81.5 0.5 116.5 0.5h85.5v1077z" />
    <glyph glyph-name="five" unicode="5" horiz-adv-x="1678" 
d="M1434 644c0 -100.667 -19.168 -192.332 -57.501 -274.999s-92.833 -153.334 -163.5 -212.001s-155.667 -104.167 -255 -136.5s-210 -48.5 -332 -48.5c-66 0 -127.5 3.33301 -184.5 10s-114.833 16.667 -173.5 30v217c55.333 -18.667 114.833 -33 178.5 -43
s131.5 -15 203.5 -15c86.667 0 163.667 10.5 231 31.5s123.833 50.667 169.5 89s80.334 84.666 104.001 138.999s35.5 115.166 35.5 182.499c0 66 -13.167 123.833 -39.5 173.5s-63.166 91.334 -110.499 125.001s-104.5 59 -171.5 76s-140.833 25.5 -221.5 25.5
c-32 0 -63.833 -0.666992 -95.5 -2s-61.834 -3.16602 -90.501 -5.49902s-55.667 -5 -81 -8s-47.333 -5.83301 -66 -8.5v994h1047v-220h-833v-570c14.667 0.666992 30.334 1.33398 47.001 2.00098l49.5 2c16.333 0.666992 32.333 1.16699 48 1.5s29.5 0.5 41.5 0.5
c118.667 0 223 -14.5 313 -43.5s165.167 -68.5 225.5 -118.5s105.666 -108.833 135.999 -176.5s45.5 -139.834 45.5 -216.501z" />
    <glyph glyph-name="six" unicode="6" horiz-adv-x="1678" 
d="M1526 665c0 -103.333 -16 -197.502 -48 -282.502s-77.333 -157.833 -136 -218.5s-129.5 -107.834 -212.5 -141.501s-175.5 -50.5 -277.5 -50.5c-106 0 -200.833 18.833 -284.5 56.5s-154.5 92 -212.5 163s-102.167 157.5 -132.5 259.5s-45.5 217 -45.5 345
c0 144.667 11.333 275.334 34 392.001s55 220 97 310s92.667 167.333 152 232s126.166 117.834 200.499 159.501s155 72.334 242 92.001s178.833 29.5 275.5 29.5c29.333 0 58.5 -0.666992 87.5 -2s52.833 -3.66602 71.5 -6.99902v-201c-28 3.33301 -56 6.16602 -84 8.49902
s-61.333 3.5 -100 3.5c-108 0 -203.167 -15.667 -285.5 -47s-153.333 -76.833 -213 -136.5s-108.5 -132.5 -146.5 -218.5s-67 -184 -87 -294c-3.33301 -15.333 -7 -37.166 -11 -65.499s-8.66699 -59.5 -14 -93.5h4c25.333 44.667 56 84.667 92 120
s76.167 65.166 120.5 89.499s92 42.833 143 55.5s104.5 19 160.5 19c98 0 185 -15 261 -45s139.833 -71 191.5 -123s90.834 -113.167 117.501 -183.5s40 -145.5 40 -225.5zM1294 622.998c0 63.333 -9.00098 121.167 -27.001 173.5s-44.667 97.333 -80 135
s-79.666 66.834 -132.999 87.501s-115 31 -185 31c-68.667 0 -129.834 -12.5 -183.501 -37.5s-99.167 -57.167 -136.5 -96.5s-65.833 -83 -85.5 -131s-29.5 -95 -29.5 -141c0 -66 9.5 -128.167 28.5 -186.5s47 -109.333 84 -153s83 -78.334 138 -104.001
s118.833 -38.5 191.5 -38.5c66 0 125 11.333 177 34s95.833 54.167 131.5 94.5s62.834 88.833 81.501 145.5s28 119 28 187z" />
    <glyph glyph-name="seven" unicode="7" horiz-adv-x="1678" 
d="M1504 1785c-80 -147.333 -157.666 -298.333 -232.999 -453l-215 -461.5c-68 -153 -131.333 -303.167 -190 -450.5s-111.334 -287.333 -158.001 -420h-268l171.5 432l192.5 447l211 449.5c73.333 149.667 149 295.834 227 438.501
c-10.667 -0.666992 -30.667 -1.33398 -60 -2.00098s-65 -1.16699 -107 -1.5s-88.833 -0.833008 -140.5 -1.5s-105.167 -1.16699 -160.5 -1.5s-110.833 -0.5 -166.5 -0.5h-159.5h-271v223h1327v-198v0z" />
    <glyph glyph-name="eight" unicode="8" horiz-adv-x="1678" 
d="M1495 495c0 -78.667 -17 -150.167 -51 -214.5s-81 -119.333 -141 -165s-131.167 -81 -213.5 -106s-171.833 -37.5 -268.5 -37.5c-96 0 -183.333 11.5 -262 34.5s-146.167 55.833 -202.5 98.5s-99.833 93.667 -130.5 153s-46 125.666 -46 198.999
c0 66 12.5 125.333 37.5 178s58.333 100.834 100 144.501s89.667 83.667 144 120s111.166 71.166 170.499 104.499c-63.333 30.667 -119.833 62.834 -169.5 96.501s-91.5 70.667 -125.5 111s-60 84.5 -78 132.5s-27 101.333 -27 160c0 72 14.833 138.833 44.5 200.5
s71.667 115.167 126 160.5s119.833 81 196.5 107s162 39 256 39c92.667 0 175.5 -11.833 248.5 -35.5s134.667 -56.5 185 -98.5s88.666 -92.167 114.999 -150.5s39.5 -122.166 39.5 -191.499c0 -58 -10.833 -110.833 -32.5 -158.5s-50.667 -91.5 -87 -131.5
s-78.666 -77 -126.999 -111s-99.166 -66 -152.499 -96c56.667 -29.333 112.167 -60.5 166.5 -93.5s102.5 -70.833 144.5 -113.5s75.833 -91.334 101.5 -146.001s38.5 -118 38.5 -190zM1205 1514c0 50 -8.99805 94.3311 -26.998 132.998s-43.5 71.167 -76.5 97.5
s-72.333 46.333 -118 60s-95.834 20.5 -150.501 20.5c-56.667 0 -107.334 -7.83301 -152.001 -23.5s-82.667 -37.167 -114 -64.5s-55.333 -59.333 -72 -96s-25 -76 -25 -118c0 -45.333 7.5 -85.5 22.5 -120.5s38.167 -67.667 69.5 -98s71 -59.666 119 -87.999
s105 -58.5 171 -90.5c48 26.667 93.333 53.834 136 81.501s80.167 57 112.5 88s57.833 64.333 76.5 100s28 75.167 28 118.5zM1254 469.998c0 58.667 -11.8311 110 -35.498 154s-55.334 83.333 -95.001 118s-85.667 65.834 -138 93.501s-107.166 54.5 -164.499 80.5
c-52 -29.333 -102.167 -59.166 -150.5 -89.499s-91 -63 -128 -98s-66.5 -73.167 -88.5 -114.5s-33 -87.333 -33 -138c0 -46 9.33301 -88.167 28 -126.5s46.167 -71.333 82.5 -99s81.166 -49.334 134.499 -65.001s114.333 -23.5 183 -23.5
c55.333 0 107.666 6.83301 156.999 20.5s92.333 33.5 129 59.5s65.667 58.167 87 96.5s32 82.166 32 131.499z" />
    <glyph glyph-name="nine" unicode="9" horiz-adv-x="1678" 
d="M1489 1187c0 -148.667 -11.498 -281.832 -34.498 -399.499s-56 -221.5 -99 -311.5s-94.667 -166.833 -155 -230.5s-127.833 -115.834 -202.5 -156.501s-155.5 -70.334 -242.5 -89.001s-178.167 -28 -273.5 -28c-36.667 0 -75 1.66699 -115 5s-79 9 -117 17v210
c41.333 -9.33301 85 -16.666 131 -21.999s92 -8 138 -8c206 0 366.5 54 481.5 162s189.167 270.667 222.5 488c4.66699 30.667 9 57.5 13 80.5s9 48.167 15 75.5h-3c-49.333 -76.667 -116.333 -137.167 -201 -181.5s-182.334 -66.5 -293.001 -66.5
c-96.667 0 -182.334 15 -257.001 45s-137.5 71.667 -188.5 125s-89.667 116.666 -116 189.999s-39.5 153 -39.5 239c0 102 16.5 194.833 49.5 278.5s79 155.334 138 215.001s129.5 105.667 211.5 138s171.667 48.5 269 48.5c100.667 0 192 -16 274 -48
s152.167 -81.5 210.5 -148.5s103.5 -152.333 135.5 -256s48 -227.5 48 -371.5zM1233 1340c0 69.333 -9.5 133.336 -28.5 192.003s-46.833 109.5 -83.5 152.5s-82 76.667 -136 101s-116 36.5 -186 36.5c-65.333 0 -123.833 -11.833 -175.5 -35.5s-95.167 -56 -130.5 -97
s-62.333 -88.833 -81 -143.5s-28 -113.334 -28 -176.001c0 -66 9.33301 -126 28 -180s45.667 -100.167 81 -138.5s78.5 -68 129.5 -89s108.833 -31.5 173.5 -31.5c70 0 132.167 11 186.5 33s100 51.667 137 89s65.167 80.666 84.5 129.999s29 101.666 29 156.999z" />
    <glyph glyph-name="colon" unicode=":" horiz-adv-x="860" 
d="M644 1047c0 -24 -4.33301 -46.167 -13 -66.5s-20.334 -38 -35.001 -53s-32.167 -26.833 -52.5 -35.5s-41.833 -13 -64.5 -13c-23.333 0 -45.166 4.33301 -65.499 13s-38 20.5 -53 35.5s-27 32.667 -36 53s-13.5 42.5 -13.5 66.5c0 22.667 4.5 44 13.5 64s21 37.333 36 52
s32.667 26.334 53 35.001s42.166 13 65.499 13c22.667 0 44.167 -4.33301 64.5 -13s37.833 -20.334 52.5 -35.001s26.334 -32 35.001 -52s13 -41.333 13 -64zM644 140c0 -22.667 -4.33301 -44 -13 -64s-20.334 -37.5 -35.001 -52.5s-32.167 -26.833 -52.5 -35.5
s-41.833 -13 -64.5 -13c-23.333 0 -45.166 4.33301 -65.499 13s-38 20.5 -53 35.5s-27 32.5 -36 52.5s-13.5 41.333 -13.5 64s4.5 44.167 13.5 64.5s21 37.833 36 52.5s32.667 26.334 53 35.001s42.166 13 65.499 13c22.667 0 44.167 -4.33301 64.5 -13
s37.833 -20.334 52.5 -35.001s26.334 -32.167 35.001 -52.5s13 -41.833 13 -64.5z" />
    <glyph glyph-name="semicolon" unicode=";" horiz-adv-x="860" 
d="M644 1047c0 -24 -4.33301 -46.167 -13 -66.5s-20.334 -38 -35.001 -53s-32.167 -26.833 -52.5 -35.5s-41.833 -13 -64.5 -13c-23.333 0 -45.166 4.33301 -65.499 13s-38 20.5 -53 35.5s-27 32.667 -36 53s-13.5 42.5 -13.5 66.5c0 22.667 4.5 44 13.5 64s21 37.333 36 52
s32.667 26.334 53 35.001s42.166 13 65.499 13c22.667 0 44.167 -4.33301 64.5 -13s37.833 -20.334 52.5 -35.001s26.334 -32 35.001 -52s13 -41.333 13 -64zM476 302c32.667 0 62.001 -9.16504 88.001 -27.498s45.5 -44 58.5 -77s18.667 -72.5 17 -118.5
s-13.5 -96.667 -35.5 -152s-55.333 -114.833 -100 -178.5s-103 -129.167 -175 -196.5l-100 88c47.333 52 83.666 99.667 108.999 143s42.166 82.833 50.499 118.5s9.83301 67.167 4.5 94.5s-15.333 51 -30 71c-19.333 24.667 -30 50.667 -32 78s2.66699 52.666 14 75.999
s28.333 42.666 51 57.999s49.334 23 80.001 23z" />
    <glyph glyph-name="less" unicode="&#x3c;" horiz-adv-x="1678" 
d="M1193 73l-964 852l961 851l147 -147l-816 -701l816 -696z" />
    <glyph glyph-name="equal" unicode="=" horiz-adv-x="1678" 
d="M174 1059v192h1330v-192h-1330zM174 565v189h1330v-189h-1330z" />
    <glyph glyph-name="greater" unicode="&#x3e;" horiz-adv-x="1678" 
d="M488 73l-146 147l814 705l-814 695l143 156l965 -848z" />
    <glyph glyph-name="question" unicode="?" horiz-adv-x="1352" 
d="M1153 1581c0 -63.333 -9.00195 -119.167 -27.002 -167.5s-41.167 -92.5 -69.5 -132.5s-60 -77 -95 -111l-104 -102.5c-34.333 -34.333 -66.166 -69.833 -95.499 -106.5s-52.833 -77.667 -70.5 -123s-27.334 -96.5 -29.001 -153.5s8.5 -122.5 30.5 -196.5h-223
c-24.667 77.333 -37.167 146.5 -37.5 207.5s7.16699 116.167 22.5 165.5s37 94 65 134s58.5 77.667 91.5 113s66.667 69.5 101 102.5s65.333 67 93 102s50.334 72.167 68.001 111.5s26.5 83.333 26.5 132c0 52 -14.667 100.833 -44 146.5s-71.166 86 -125.499 121
s-120 63.333 -197 85s-163.167 34.5 -258.5 38.5l30 211c132 -4.66699 250.333 -23.5 355 -56.5s193.5 -75.667 266.5 -128s129 -112.333 168 -180s58.5 -138.5 58.5 -212.5zM743.998 133.999c0 -22 -4.16699 -42.667 -12.5 -62s-19.666 -36.166 -33.999 -50.499
s-31.333 -25.666 -51 -33.999s-40.834 -12.5 -63.501 -12.5c-23.333 0 -44.833 4.16699 -64.5 12.5s-36.667 19.666 -51 33.999s-25.666 31.166 -33.999 50.499s-12.5 40 -12.5 62c0 22.667 4.16699 44 12.5 64s19.666 37.167 33.999 51.5s31.333 25.666 51 33.999
s41.167 12.5 64.5 12.5c22.667 0 43.834 -4.16699 63.501 -12.5s36.667 -19.666 51 -33.999s25.666 -31.5 33.999 -51.5s12.5 -41.333 12.5 -64z" />
    <glyph glyph-name="at" unicode="@" horiz-adv-x="2993" 
d="M2698 1230c0 -134 -17.3271 -252.999 -51.9941 -356.999s-82.334 -191.5 -143 -262.5c-60.667 -71 -132.167 -125 -214.5 -162s-170.833 -55.5 -265.5 -55.5c-66 0 -121.167 10.167 -165.5 30.5s-79.333 47 -105 80s-42.667 70.167 -51 111.5
s-9.16602 83.333 -2.49902 126h-9c-6.66699 -20.667 -17.667 -43.667 -33 -69s-34 -50.833 -56 -76.5s-47 -50.667 -75 -75s-58.167 -46 -90.5 -65s-66.333 -34.167 -102 -45.5s-72.5 -17 -110.5 -17c-50 0 -93.333 9 -130 27s-67 44 -91 78s-41.833 75.833 -53.5 125.5
s-17.5 106.167 -17.5 169.5c0 74.667 6.33301 146.834 19 216.501s31.667 135 57 196s56.833 116.5 94.5 166.5s81.667 93 132 129s107 63.833 170 83.5s132.167 29.5 207.5 29.5c69.333 0 136.5 -3.33301 201.5 -10s121.833 -15.334 170.5 -26.001l-121 -668
c-10 -56.667 -12.833 -105.334 -8.5 -146.001s15.166 -74.167 32.499 -100.5s40.833 -45.833 70.5 -58.5s65.167 -19 106.5 -19c60 0 115.833 13.5 167.5 40.5s96.5 67.167 134.5 120.5s67.833 119.166 89.5 197.499s32.5 169.166 32.5 272.499
c0 68.667 -7.16699 137 -21.5 205s-36.833 132.833 -67.5 194.5s-69.834 119 -117.5 172c-47.667 53 -104.834 99 -171.501 138s-143.334 69.5 -230.001 91.5s-184 33 -292 33c-102 0 -200.167 -13 -294.5 -39s-182.333 -63.167 -264 -111.5
s-155.834 -106.833 -222.501 -175.5s-123.834 -146 -171.501 -232s-84.5 -179.667 -110.5 -281s-39 -208.333 -39 -321c0 -147.333 21.167 -280.333 63.5 -399s104.5 -219.834 186.5 -303.501s183.333 -148.167 304 -193.5s259.667 -68 417 -68c89.333 0 175 6 257 18
s165 30.333 249 55l31 -189c-43.333 -14 -89 -25.833 -137 -35.5s-96.5 -17.834 -145.5 -24.501s-97.5 -11.5 -145.5 -14.5s-93.667 -4.5 -137 -4.5c-181.333 0 -343.833 26.5 -487.5 79.5s-265.334 128.333 -365.001 226s-175.834 215.834 -228.501 354.501
s-79 293.667 -79 465c0 134 16.167 261 48.5 381s77.833 231 136.5 333s129 193.833 211 275.5s172.333 151.334 271 209.001s204.334 101.834 317.001 132.5c112.667 30.667 229.334 46 350.001 46c123.333 0 236.166 -12.667 338.499 -38s194.166 -60.666 275.499 -106
c81.333 -45.333 152.166 -99.166 212.5 -161.499c60.333 -62.333 110.5 -130.666 150.5 -204.999s69.833 -153.333 89.5 -237s29.5 -169.167 29.5 -256.5zM1760.01 1428c-25.333 7.33301 -54.833 12.8311 -88.5 16.498s-69.167 5.5 -106.5 5.5
c-50.667 0 -96.5 -9.5 -137.5 -28.5s-77.5 -44.5 -109.5 -76.5s-59.833 -68.833 -83.5 -110.5s-43 -85 -58 -130s-26.167 -90.5 -33.5 -136.5s-11 -89 -11 -129c0 -166.667 48.667 -250 146 -250c40.667 0 82.667 13.667 126 41s85.333 68.833 126 124.5
s78.167 125.334 112.5 209.001s62.5 181.834 84.5 294.501z" />
    <glyph glyph-name="A" unicode="A" horiz-adv-x="1865" 
d="M1559 0l-180 507h-915l-183 -507h-242l766 2060h254l766 -2060h-266zM1016 1523l-50 143c-15.333 45.333 -29 90.333 -41 135h-6c-12.667 -44.667 -26.167 -89.5 -40.5 -134.5s-30.5 -91.833 -48.5 -140.5l-302 -833h787z" />
    <glyph glyph-name="B" unicode="B" horiz-adv-x="1727" 
d="M1559 607c0 -37.333 -4.1709 -78.3301 -12.5039 -122.997s-23.5 -89.834 -45.5 -135.501s-51.667 -90 -89 -133s-85.166 -81.167 -143.499 -114.5s-128 -60 -209 -80s-175.833 -30 -284.5 -30c-30.667 0 -65.5 0.333008 -104.5 1s-80.333 1.5 -124 2.5l-134 3
c-45.667 1 -90.5 1.83301 -134.5 2.5v2060c70.667 1.33301 152.334 3.16602 245.001 5.49902s201.334 3.5 326.001 3.5c110 0 205.5 -11.333 286.5 -34s148.167 -55.167 201.5 -97.5s93 -93.666 119 -153.999s39 -127.833 39 -202.5
c0 -56.667 -8.33301 -110.334 -25 -161.001s-41 -97.167 -73 -139.5s-71 -79.5 -117 -111.5s-98.333 -57.667 -157 -77v-6c76 -11.333 141.5 -32.333 196.5 -63s100.333 -67.667 136 -111s61.834 -91.333 78.501 -144s25 -106.334 25 -161.001zM1251 1541
c0 48.667 -6.83105 93.8311 -20.498 135.498s-37.334 77.5 -71.001 107.5s-79.167 53.5 -136.5 70.5s-130 25.5 -218 25.5c-50 0 -100.167 -0.666992 -150.5 -2s-97.5 -2.66602 -141.5 -3.99902v-718c32 -1.33301 62.667 -2.16602 92 -2.49902s63.666 -0.5 102.999 -0.5
c91.333 0 171 8.83301 239 26.5s124.5 43 169.5 76s78.667 73.5 101 121.5s33.5 102.667 33.5 164zM1315 601c0 72.667 -15.499 133.002 -46.499 181.002s-73.667 86.5 -128 115.5s-118.333 49.5 -192 61.5s-152.834 18 -237.501 18h-39.5c-17 0 -35.333 -0.166992 -55 -0.5
l-57.5 -1c-18.667 -0.333008 -34 -0.833008 -46 -1.5v-776c28 -4.66699 64.833 -8.83398 110.5 -12.501s102.167 -5.5 169.5 -5.5c91.333 0 170 10.667 236 32s120.167 50.666 162.5 87.999s73.5 81.833 93.5 133.5s30 107.5 30 167.5z" />
    <glyph glyph-name="C" unicode="C" horiz-adv-x="1801" 
d="M1660 92c-40 -16.667 -82.665 -31.999 -127.998 -45.999s-92.5 -26 -141.5 -36s-99.667 -17.833 -152 -23.5s-105.166 -8.5 -158.499 -8.5c-159.333 0 -297.333 23.833 -414 71.5s-213.334 115.334 -290.001 203.001s-133.5 193.334 -170.5 317.001
s-55.5 261.5 -55.5 413.5c0 103.333 8.5 202.333 25.5 297s43 182.667 78 264s79.5 155 133.5 221s118 122.5 192 169.5s158.333 83.167 253 108.5s200.667 38 318 38c80 0 161.667 -5.83301 245 -17.5s162.333 -28.167 237 -49.5l-39 -216
c-76.667 25.333 -156 45.833 -238 61.5s-163.333 23.5 -244 23.5c-83.333 0 -158.833 -10.333 -226.5 -31s-127.667 -49.834 -180 -87.501s-97.5 -82.834 -135.5 -135.501s-69.333 -111 -94 -175s-42.834 -132.5 -54.501 -205.5s-17.5 -148.5 -17.5 -226.5
c0 -132.667 14.833 -251 44.5 -355s75 -191.833 136 -263.5s137.667 -126.334 230 -164.001s201.5 -56.5 327.5 -56.5c40 0 81 2.66699 123 8s83.667 13 125 23s81.166 21.667 119.499 35s73.5 28 105.5 44l46 -201v0z" />
    <glyph glyph-name="D" unicode="D" horiz-adv-x="2085" 
d="M1932 1050c0 -177.333 -28.5 -332.167 -85.5 -464.5s-136.5 -242.5 -238.5 -330.5s-223.667 -154 -365 -198s-296.333 -66 -465 -66c-52 0 -100.5 0.5 -145.5 1.5s-87.833 2 -128.5 3l-116.5 3c-37 1 -73.5 1.5 -109.5 1.5v2060c40 0 83.333 0.5 130 1.5l146.5 3l157 3
c53.667 1 107.167 1.5 160.5 1.5c167.333 0 316.666 -20.167 447.999 -60.5s242.333 -102.333 333 -186s159.834 -189.5 207.501 -317.5s71.5 -279.667 71.5 -455zM1687 1035c0 278.667 -70.001 489.166 -210.001 631.499s-349.333 213.5 -628 213.5
c-29.333 0 -59.5 -0.333008 -90.5 -1s-61.167 -1.5 -90.5 -2.5l-84 -3c-26.667 -1 -50.334 -1.83301 -71.001 -2.5v-1667c20.667 -3.33301 43.5 -6.16602 68.5 -8.49902s50.667 -4.5 77 -6.5s52.333 -3.5 78 -4.5s49.5 -1.5 71.5 -1.5c130 0 248.833 16.833 356.5 50.5
s200.334 85.5 278.001 155.5s137.834 158.5 180.501 265.5s64 233.833 64 380.5z" />
    <glyph glyph-name="E" unicode="E" horiz-adv-x="1541" 
d="M278 0v2060h1037v-189h-802v-715h762v-189h-762v-772h802v-195h-1037z" />
    <glyph glyph-name="F" unicode="F" horiz-adv-x="1434" 
d="M513 1868v-721h753v-189h-753v-958h-235v2060h1031v-192h-796z" />
    <glyph glyph-name="G" unicode="G" horiz-adv-x="2090" 
d="M1828 89c-52 -19.333 -105.997 -36.3311 -161.997 -50.998s-112.833 -26.834 -170.5 -36.501s-115.167 -17 -172.5 -22s-113 -7.5 -167 -7.5c-152.667 0 -291.334 23 -416.001 69s-231.5 112.833 -320.5 200.5s-157.833 194.667 -206.5 321s-73 269.5 -73 429.5
c0 104 11.167 203.333 33.5 298s55.166 182.5 98.499 263.5s96.5 154.333 159.5 220s134.833 121.834 215.5 168.501s170.167 82.5 268.5 107.5s204.166 37.5 317.499 37.5c98 0 193.833 -7.66699 287.5 -23s186.167 -37 277.5 -65l-52 -214c-86 34 -174 59.833 -264 77.5
s-181.333 26.5 -274 26.5c-72 0 -142.333 -7.83301 -211 -23.5s-133.5 -39.334 -194.5 -71.001s-116.833 -71.334 -167.5 -119.001s-94.5 -103.667 -131.5 -168s-65.667 -137 -86 -218s-30.5 -170.167 -30.5 -267.5c0 -136 19.333 -256.667 58 -362
s93.334 -194 164.001 -266s155.5 -126.667 254.5 -164s208.833 -56 329.5 -56c74.667 0 144.667 5.16699 210 15.5s128.666 25.5 189.999 45.5v803h235v-949v0z" />
    <glyph glyph-name="H" unicode="H" horiz-adv-x="2142" 
d="M1632 0v971h-1119v-971h-235v2060h235v-894h1119v894h233v-2060h-233z" />
    <glyph glyph-name="I" unicode="I" horiz-adv-x="790" 
d="M278 0v2060h235v-2060h-235z" />
    <glyph glyph-name="J" unicode="J" horiz-adv-x="998" 
d="M720 521c0 -86 -9.00293 -162.669 -27.0029 -230.002s-46.833 -124.166 -86.5 -170.499s-91 -81.666 -154 -105.999s-139.5 -36.5 -229.5 -36.5c-40 0 -79 2.66699 -117 8s-72.333 11 -103 17v211c29.333 -11.333 63.833 -20.333 103.5 -27s78.5 -10 116.5 -10
c42.667 0 80.334 5.16699 113.001 15.5s60.334 29 83.001 56s39.834 64 51.501 111s17.5 107.167 17.5 180.5v1520h232v-1539v0z" />
    <glyph glyph-name="K" unicode="K" horiz-adv-x="1767" 
d="M1389 0l-876 1035v-1035h-235v2060h235v-986l879 986h289l-915 -998l946 -1062h-323z" />
    <glyph glyph-name="L" unicode="L" horiz-adv-x="1297" 
d="M278 0v2060h235v-1862h762v-198h-997z" />
    <glyph glyph-name="M" unicode="M" horiz-adv-x="2722" 
d="M2307 0l-182.998 1269c-17.333 118 -30.833 219.333 -40.5 304l-23.5 212h-6l-40.5 -150.5c-15.667 -57 -35.834 -121.833 -60.501 -194.5l-482 -1440h-266l-457 1348c-28 82 -52.667 158.833 -74 230.5s-40.666 140.5 -57.999 206.5h-3
c-2 -41.333 -4.83301 -82.833 -8.5 -124.5s-7.83398 -84.5 -12.501 -128.5s-9.83398 -89.667 -15.501 -137l-17.5 -150l-150 -1245h-241l292 2060h297l470 -1392c9.33301 -26 19 -54.667 29 -86l30.5 -98.5c10.333 -34.333 20.333 -69.833 30 -106.5l28.5 -109h3l29 100.5
l27.5 93l27.5 91l30 94.5l482 1413h305l305 -2060h-247z" />
    <glyph glyph-name="N" unicode="N" horiz-adv-x="2169" 
d="M1581 0l-857.999 1367c-46 74 -88.167 145.833 -126.5 215.5l-108.5 205.5c1.33301 -39.333 2.83301 -86.833 4.5 -142.5s3.16699 -116.5 4.5 -182.5l4 -207.5c1.33301 -72.333 2.5 -144.833 3.5 -217.5s1.66699 -143.667 2 -213s0.5 -133.666 0.5 -192.999v-632h-229
v2060h311l842 -1337l130 -219.5l123 -219.5c-2 46 -3.83301 99.167 -5.5 159.5s-3.33398 124.833 -5.00098 193.5s-3.16699 140.334 -4.5 215.001s-2.33301 149.167 -3 223.5l-2 218.5c-0.666992 71.333 -1 138.333 -1 201v565h229v-2060h-311z" />
    <glyph glyph-name="O" unicode="O" horiz-adv-x="2152" 
d="M2014 1053c0 -114.667 -11.4971 -221.167 -34.4971 -319.5s-55.667 -187.5 -98 -267.5s-92.833 -150.667 -151.5 -212s-123.834 -113 -195.501 -155s-148.334 -73.667 -230.001 -95s-166.5 -32 -254.5 -32c-154 0 -288.167 24.667 -402.5 74s-209.333 119.333 -285 210
s-132.167 199.5 -169.5 326.5s-56 268.5 -56 424.5c0 115.333 11.667 222.166 35 320.499s56 187.5 98 267.5s92.5 150.5 151.5 211.5s124.5 112.333 196.5 154s149 73.167 231 94.5s167.333 32 256 32c139.333 0 265.166 -22.833 377.499 -68.5
s207.833 -112.5 286.5 -200.5s139.167 -196.167 181.5 -324.5s63.5 -275.166 63.5 -440.499zM1763 1016c0 138 -15.334 261.001 -46.001 369.001s-75.5 199 -134.5 273s-131.167 130.5 -216.5 169.5s-182.666 58.5 -291.999 58.5c-60.667 0 -119.667 -8.16699 -177 -24.5
s-111.5 -40.5 -162.5 -72.5s-97.667 -71.5 -140 -118.5s-79 -101.5 -110 -163.5s-55 -131.167 -72 -207.5s-25.5 -159.5 -25.5 -249.5c0 -129.333 14 -247.5 42 -354.5s70.5 -198.833 127.5 -275.5s128.5 -136.334 214.5 -179.001s187 -64 303 -64
c90 0 176.5 18.167 259.5 54.5s156.333 89.833 220 160.5s114.5 158.167 152.5 262.5s57 224.833 57 361.5z" />
    <glyph glyph-name="P" unicode="P" horiz-adv-x="1590" 
d="M1480 1483c0 -100.667 -19.9971 -192.833 -59.9971 -276.5s-95.333 -155.5 -166 -215.5s-154.167 -106.5 -250.5 -139.5s-200.833 -49.5 -313.5 -49.5c-30.667 0 -60.834 0.833008 -90.501 2.5s-58.5 4.16699 -86.5 7.5v-812h-235v2060c146 6 307.667 9 485 9
c116 0 218.667 -14 308 -42s164.166 -67.667 224.499 -119s106.166 -113 137.499 -185s47 -152 47 -240zM1236 1450c0 138.667 -41.333 244.498 -124 317.498s-209.334 109.5 -380.001 109.5c-44 0 -83.5 -0.166992 -118.5 -0.5s-68.5 -1.16602 -100.5 -2.49902v-864
c28 -3.33301 58 -6.16602 90 -8.49902s64 -3.5 96 -3.5c82.667 0.666992 157.167 11.834 223.5 33.501s122.833 52.167 169.5 91.5s82.334 86.666 107.001 141.999s37 117 37 185z" />
    <glyph glyph-name="Q" unicode="Q" horiz-adv-x="2149" 
d="M2014 1053c0 -114.667 -11.4971 -221.167 -34.4971 -319.5s-55.667 -187.5 -98 -267.5s-92.833 -150.667 -151.5 -212s-123.834 -113 -195.501 -155s-148.334 -73.667 -230.001 -95s-166.5 -32 -254.5 -32c-154 0 -288.167 24.667 -402.5 74s-209.333 119.333 -285 210
s-132.167 199.5 -169.5 326.5s-56 268.5 -56 424.5c0 115.333 11.667 222.166 35 320.499s56 187.5 98 267.5s92.5 150.5 151.5 211.5s124.5 112.333 196.5 154s149 73.167 231 94.5s167.333 32 256 32c139.333 0 265.166 -22.833 377.499 -68.5
s207.833 -112.5 286.5 -200.5s139.167 -196.167 181.5 -324.5s63.5 -275.166 63.5 -440.499zM2149 -543c-86 -12 -164.5 -16.501 -235.5 -13.501s-137.5 10 -199.5 21s-121 24 -177 39s-112.167 28.333 -168.5 40s-114.333 19.834 -174 24.501s-124.167 2 -193.5 -8v211
c79.333 10 152 12.833 218 8.5s128.5 -12 187.5 -23s116.167 -23.667 171.5 -38s112.333 -27 171 -38s120.5 -18.333 185.5 -22s136.5 -0.5 214.5 9.5v-211zM1763 1016c0 138 -15.334 261.001 -46.001 369.001s-75.5 199 -134.5 273s-131.167 130.5 -216.5 169.5
s-182.666 58.5 -291.999 58.5c-60.667 0 -119.667 -8.16699 -177 -24.5s-111.5 -40.5 -162.5 -72.5s-97.667 -71.5 -140 -118.5s-79 -101.5 -110 -163.5s-55 -131.167 -72 -207.5s-25.5 -159.5 -25.5 -249.5c0 -129.333 14 -247.5 42 -354.5s70.5 -198.833 127.5 -275.5
s128.5 -136.334 214.5 -179.001s187 -64 303 -64c90 0 176.5 18.167 259.5 54.5s156.333 89.833 220 160.5s114.5 158.167 152.5 262.5s57 224.833 57 361.5z" />
    <glyph glyph-name="R" unicode="R" horiz-adv-x="1673" 
d="M1272 0l-723.001 952h-36v-952h-235v2060l100 4c34 1.33301 70.333 2.33301 109 3s80.5 1.16699 125.5 1.5s95.167 0.5 150.5 0.5c96.667 0 186.5 -9 269.5 -27s154.833 -47.333 215.5 -88s108.334 -94.167 143.001 -160.5s52 -147.5 52 -243.5
c0 -91.333 -17.5 -172.333 -52.5 -243s-82 -130.5 -141 -179.5s-127.5 -87 -205.5 -114s-159.667 -42.5 -245 -46.5l95.5 -107.5c33 -36.333 62.5 -71.5 88.5 -105.5l592 -754h-303zM1199 1517c0 66.667 -10.5 123.332 -31.5 169.999s-52.167 84.5 -93.5 113.5
s-92.333 50 -153 63s-130.667 19.5 -210 19.5c-38 0 -72.833 -0.666992 -104.5 -2s-62.834 -3.66602 -93.501 -6.99902v-742c16.667 -1.33301 40.334 -2.66602 71.001 -3.99902s69 -2 115 -2c79.333 0 150 9.66699 212 29s114.333 46.166 157 80.499s75.167 75.5 97.5 123.5
s33.5 100.667 33.5 158z" />
    <glyph glyph-name="S" unicode="S" horiz-adv-x="1538" 
d="M1373 592c0 -90 -17.6689 -172.998 -53.002 -248.998s-85.5 -141.5 -150.5 -196.5s-143.5 -97.833 -235.5 -128.5s-194.667 -46 -308 -46c-83.333 0 -162.833 5.66699 -238.5 17s-144.834 26.333 -207.501 45l34 225c66 -25.333 134.833 -45.333 206.5 -60
s145.167 -22 220.5 -22c64.667 0 126.334 7 185.001 21s110.167 36.5 154.5 67.5s79.666 71.167 105.999 120.5s39.5 109 39.5 179c0 60.667 -13.667 112 -41 154s-63.5 78.333 -108.5 109s-96.167 57.667 -153.5 81l-176 71c-60 24 -118.667 50.167 -176 78.5
s-108.5 62.833 -153.5 103.5s-81.167 89.667 -108.5 147s-41 126.666 -41 207.999s15.167 156.833 45.5 226.5s75 130 134 181s132 90.833 219 119.5s186.833 43 299.5 43c60.667 0 123.334 -3.5 188.001 -10.5s125.334 -16.833 182.001 -29.5l-28 -210
c-54.667 17.333 -112.667 30.833 -174 40.5s-122 14.5 -182 14.5c-75.333 0 -140.666 -8.33301 -195.999 -25s-101.333 -40.167 -138 -70.5s-64 -66.833 -82 -109.5s-27 -90.334 -27 -143.001c0 -47.333 9 -88.833 27 -124.5s42.5 -67.334 73.5 -95.001
s67 -52.167 108 -73.5s84.667 -41.666 131 -60.999l142.5 -57.5c48.667 -19 96.167 -40 142.5 -63s90 -48.5 131 -76.5s77 -61 108 -99s55.5 -81.667 73.5 -131s27 -106.333 27 -171z" />
    <glyph glyph-name="T" unicode="T" horiz-adv-x="1584" 
d="M907 1865v-1865h-233v1865h-616v195h1468v-195h-619z" />
    <glyph glyph-name="U" unicode="U" horiz-adv-x="2127" 
d="M1849 782c0 -264.667 -68.498 -465.832 -205.498 -603.499s-338.833 -206.5 -605.5 -206.5c-106.667 0 -199.334 9.33301 -278.001 28s-146.167 44.5 -202.5 77.5s-102.5 72.167 -138.5 117.5s-64.5 94.333 -85.5 147s-35.5 108 -43.5 166s-12 116.667 -12 176v1376h235
v-1355c0 -49.333 3.16699 -97 9.5 -143s17.166 -89 32.499 -129s36.166 -76.333 62.499 -109s59.5 -60.834 99.5 -84.501s87.833 -42 143.5 -55s120.834 -19.5 195.501 -19.5c94.667 0 177.167 10.5 247.5 31.5s129 55.167 176 102.5s82.167 109 105.5 185s35 169 35 279
v1297h229v-1278v0z" />
    <glyph glyph-name="V" unicode="V" horiz-adv-x="1871" 
d="M1053 0h-257.001l-754 2060h263l482 -1370l35.5 -100l37 -108.5l36 -112c11.667 -37.667 22.5 -74.5 32.5 -110.5h5c20.667 70.667 43.834 144.5 69.501 221.5s52.5 152.833 80.5 227.5l498 1352h244z" />
    <glyph glyph-name="W" unicode="W" horiz-adv-x="2905" 
d="M2239 0l-289 0.000976562l-427 1483c-17.333 58.667 -32 115.334 -44 170.001s-22.667 108 -32 160h-4c-9.33301 -54 -20 -108.333 -32 -163s-25.667 -110.334 -41 -167.001l-418 -1483h-284l-552 2060h251l371 -1422c18.667 -70 34.834 -136.167 48.501 -198.5
s26.167 -125.5 37.5 -189.5h3l39.5 187c13.667 62 29.167 122.667 46.5 182l405 1441h275l427 -1459c15.333 -52 30.166 -108.333 44.499 -169s26.833 -120.334 37.5 -179.001h3c9.33301 55.333 19.5 108 30.5 158s23.167 101.333 36.5 154l389 1495h228z" />
    <glyph glyph-name="X" unicode="X" horiz-adv-x="1791" 
d="M1440 0l-558 888l-553 -888h-268l683 1065l-640 995h268l516 -815l507 815h262l-629 -983l702 -1077h-290z" />
    <glyph glyph-name="Y" unicode="Y" horiz-adv-x="1608" 
d="M913 748v-748h-233v744l-643 1316h256l351 -735l83 -183.5l75 -180.5h3c25.333 62.667 53.833 127.5 85.5 194.5l95.5 202.5l339 702h246z" />
    <glyph glyph-name="Z" unicode="Z" horiz-adv-x="1648" 
d="M140 0v170.999l913 1419l91.5 135l91.5 133c-55.333 -1.33301 -122.166 -2.66602 -200.499 -3.99902s-172.166 -2 -281.499 -2h-580v208h1327v-174l-961 -1483c-21.333 -36 -42.833 -69.167 -64.5 -99.5s-43.834 -63.5 -66.501 -99.5c16.667 2.66699 41.5 4.66699 74.5 6
s72.667 2.33301 119 3s98.666 1 156.999 1h189.5h562v-214h-1371z" />
    <glyph glyph-name="bracketleft" unicode="[" horiz-adv-x="974" 
d="M281 -598v2945h576v-175h-366v-2593h366v-177h-576z" />
    <glyph glyph-name="backslash" unicode="\" horiz-adv-x="1303" 
d="M1108 -491l-1069 2801h217l1069 -2801h-217z" />
    <glyph glyph-name="bracketright" unicode="]" horiz-adv-x="974" 
d="M119 -598v177h363v2593h-363v175h577v-2945h-577z" />
    <glyph glyph-name="asciicircum" unicode="^" horiz-adv-x="1678" 
d="M1258 1053l-456 830l-435 -830l-159 85l506 922h189l528 -916z" />
    <glyph glyph-name="underscore" unicode="_" horiz-adv-x="1678" 
d="M0 -763v180h1678v-180h-1678z" />
    <glyph glyph-name="grave" unicode="`" horiz-adv-x="1123" 
d="M723 1754l-421 354l135 150l393 -384z" />
    <glyph glyph-name="a" unicode="a" horiz-adv-x="1587" 
d="M1086 0c0 58.667 0.668945 115.663 2.00195 170.996s6 105 14 149h-7c-18 -48 -43.5 -93.167 -76.5 -135.5s-72 -79.166 -117 -110.499s-95.667 -56.166 -152 -74.499s-116.833 -27.5 -181.5 -27.5c-60.667 0 -116.334 9.33301 -167.001 28s-94.334 45.5 -131.001 80.5
s-65.334 77.333 -86.001 127s-31 105.5 -31 167.5c0 78 20 148.833 60 212.5s99 118.334 177 164.001s174.333 80.834 289 105.501s246.334 37 395.001 37v110c0 57.333 -5.66699 108.166 -17 152.499s-30.333 81.666 -57 111.999s-62 53.333 -106 69s-99 23.5 -165 23.5
c-36.667 0 -74.667 -2.83301 -114 -8.5s-78.5 -13.667 -117.5 -24s-76.667 -22.666 -113 -36.999s-69.833 -29.833 -100.5 -46.5l-52 189c36.667 16 75.834 30.667 117.501 44s85.334 25 131.001 35s92.5 17.667 140.5 23s96.333 8 145 8
c105.333 0 192.666 -12.333 261.999 -37s124.666 -58.667 165.999 -102s70.333 -95.166 87 -155.499s25 -125.833 25 -196.5v-599v-115c0 -39.333 0.166992 -78.5 0.5 -117.5s1 -77.333 2 -115s2.16699 -73.167 3.5 -106.5h-226zM1074 725.996
c-90 0 -169.671 -4 -239.004 -12s-129.666 -19.167 -180.999 -33.5s-94.333 -31.333 -129 -51s-62.667 -41.334 -84 -65.001s-36.666 -48.667 -45.999 -75s-14 -53.166 -14 -80.499c0 -36 5.83301 -69.333 17.5 -100s28.334 -57 50.001 -79s47.834 -39.333 78.501 -52
s64.667 -19 102 -19c66.667 0 127.5 15.167 182.5 45.5s101.833 70.333 140.5 120s68.667 106 90 169s32 127.5 32 193.5v39z" />
    <glyph glyph-name="b" unicode="b" horiz-adv-x="1703" 
d="M1562 827c0 -135.333 -18.332 -255.502 -54.999 -360.502s-88.834 -193.5 -156.501 -265.5s-149.667 -126.667 -246 -164s-203.833 -56 -322.5 -56c-51.333 0 -99.166 1 -143.499 3s-86.666 5.33301 -126.999 10s-79.666 10.667 -117.999 18s-76.833 16.333 -115.5 27
v2189h229v-769c0 -21.333 -0.5 -44.333 -1.5 -69s-2.66699 -49.167 -5 -73.5s-5.33301 -48.166 -9 -71.499s-7.83398 -44.666 -12.501 -63.999l6 -3c21.333 57.333 49.333 108.666 84 153.999s74.167 83.666 118.5 114.999s93.333 55.333 147 72s110.167 25 169.5 25
c89.333 0 168.666 -15.333 237.999 -46s127.666 -76.167 174.999 -136.5s83.333 -135.166 108 -224.499s37 -192.666 37 -309.999zM1322 807.998c0 85.333 -7.16406 161.831 -21.4971 229.498s-36.5 125 -66.5 172s-67.833 83 -113.5 108s-99.834 37.5 -162.501 37.5
c-50.667 0 -97 -9.16699 -139 -27.5s-79.833 -43.166 -113.5 -74.499s-62.834 -67.666 -87.501 -108.999s-45.334 -85 -62.001 -131s-29 -93.167 -37 -141.5s-12 -94.833 -12 -139.5v-531c44 -13.333 89.667 -23.166 137 -29.499s100 -9.5 158 -9.5
c78.667 0 150 12.167 214 36.5s118.667 62.666 164 114.999s80.333 119.333 105 201s37 179.5 37 293.5z" />
    <glyph glyph-name="c" unicode="c" horiz-adv-x="1342" 
d="M1254 64c-66 -28 -139.501 -49.333 -220.501 -64s-162.167 -22 -243.5 -22c-56.667 0 -112.167 4.66699 -166.5 14s-105.833 25 -154.5 47s-93.5 51.167 -134.5 87.5s-76.333 81.333 -106 135s-52.834 117 -69.501 190s-25 157.5 -25 253.5
c0 124 15.5 237.167 46.5 339.5s76.833 190 137.5 263s136.167 129.667 226.5 170s194.5 60.5 312.5 60.5c74 0 143.667 -5.83301 209 -17.5s125 -28.167 179 -49.5l-46 -193c-25.333 10 -52.5 19.5 -81.5 28.5s-59.167 16.833 -90.5 23.5s-63.666 12 -96.999 16
s-66.666 6 -99.999 6c-73.333 0 -138.333 -15 -195 -45s-104.167 -72 -142.5 -126s-67.5 -118.167 -87.5 -192.5s-30 -155.833 -30 -244.5c0 -77.333 7 -150.5 21 -219.5s38.5 -129.5 73.5 -181.5s82.167 -93.167 141.5 -123.5s134.333 -45.5 225 -45.5
c139.333 0 264.333 26.333 375 79l43 -189v0z" />
    <glyph glyph-name="d" unicode="d" horiz-adv-x="1699" 
d="M1193 0c0 22.667 0.500977 48.3281 1.50098 76.9951s2.66699 57.834 5 87.501s5.16602 58.834 8.49902 87.501s7.33301 54.334 12 77.001l-6 3c-21.333 -54 -49 -103.167 -83 -147.5s-73.333 -82.166 -118 -113.499s-94 -55.666 -148 -72.999s-111.333 -26 -172 -26
c-94 0 -176 16.667 -246 50s-128.167 81 -174.5 143s-81 137.333 -104 226s-34.5 188.334 -34.5 299.001c0 134.667 18.333 254.5 55 359.5s89 193.5 157 265.5s150 126.667 246 164s203 56 321 56c44 0 88.667 -1.33301 134 -4s94 -6.33398 146 -11.001v708h226v-2228h-226
zM1193 1317.99c-52 12 -102.5 21.166 -151.5 27.499s-98.167 9.5 -147.5 9.5c-78 0 -148.833 -12.167 -212.5 -36.5s-118.167 -62.666 -163.5 -114.999s-80.5 -119.333 -105.5 -201s-37.5 -179.834 -37.5 -294.501c0 -85.333 7.33301 -161.666 22 -228.999
s37 -124.5 67 -171.5s68 -83 114 -108s100.333 -37.5 163 -37.5c50.667 0 97 9.16699 139 27.5s79.667 43 113 74s62.5 67.333 87.5 109s45.833 85.5 62.5 131.5s29.167 93 37.5 141s12.5 94.333 12.5 139v534z" />
    <glyph glyph-name="e" unicode="e" horiz-adv-x="1541" 
d="M1392 919c0 -14 -0.169922 -31.001 -0.50293 -51.001s-2.16602 -44 -5.49902 -72h-1014c-4 -111.333 4.16699 -206.833 24.5 -286.5s51.833 -145 94.5 -196s96.334 -88.5 161.001 -112.5s139.334 -36 224.001 -36c73.333 0 146.833 7.33301 220.5 22
s143.5 36.667 209.5 66l39 -186c-74.667 -30.667 -155.334 -54.167 -242.001 -70.5s-177.667 -24.5 -273 -24.5c-113.333 0 -213.166 15.667 -299.499 47s-159 79.166 -218 143.499s-103.5 145.333 -133.5 243s-45 212.834 -45 345.501c0 113.333 14.833 218.5 44.5 315.5
s73 180.833 130 251.5s126.667 126 209 166s176.166 60 281.499 60c104.667 0 194.334 -16.833 269.001 -50.5s136 -79.167 184 -136.5s83.333 -123.666 106 -198.999s34 -155 34 -239zM1153 963.999c1.33301 62 -6 118 -22 168s-39.833 92.667 -71.5 128
s-70.5 62.5 -116.5 81.5s-98 28.5 -156 28.5c-53.333 0 -102.5 -9.5 -147.5 -28.5s-85 -46 -120 -81s-64 -77.5 -87 -127.5s-39.167 -106.333 -48.5 -169h769z" />
    <glyph glyph-name="f" unicode="f" horiz-adv-x="1062" 
d="M1153 2023c-38 12 -76.999 20.667 -116.999 26s-80 8 -120 8c-116 0 -201 -34.667 -255 -104s-81 -177.333 -81 -324v-112h448v-180h-448v-1337h-229v1337h-329v180h329v106c0 106 12.833 197.833 38.5 275.5s63 142 112 193s109.167 89 180.5 114s152.333 37.5 243 37.5
c83.333 0 166.666 -9 249.999 -27z" />
    <glyph glyph-name="g" unicode="g" horiz-adv-x="1645" 
d="M1553 -220c0 -80 -19.333 -154.328 -58 -222.995s-93 -128.334 -163 -179.001s-153.333 -90.334 -250 -119.001s-203 -43 -319 -43c-96 0 -183.167 9.83301 -261.5 29.5s-145.166 48.667 -200.499 87s-98 85.666 -128 141.999s-45 120.833 -45 193.5
c0 46.667 7.16699 90.667 21.5 132s33.5 79.666 57.5 114.999s52 67.333 84 96s66 53.667 102 75c-23.333 8.66699 -44.5 20.5 -63.5 35.5s-35 32.167 -48 51.5s-23 40.333 -30 63s-10.5 46.667 -10.5 72s3.83301 50.333 11.5 75s18.667 47.834 33 69.501
s31.666 41.5 51.999 59.5s43.166 33.667 68.499 47c-70.667 40.667 -125.5 95.667 -164.5 165s-58.5 154.666 -58.5 255.999c0 74.667 13.833 146 41.5 214s68.334 128 122.001 180s119.834 93.333 198.501 124s168.667 46 270 46c20 0 38.333 -0.5 55 -1.5
s32.834 -2.66699 48.501 -5s31.5 -5.16602 47.5 -8.49902s33.667 -7.33301 53 -12h516v-180h-271c44.667 -36 79.167 -80.833 103.5 -134.5s36.5 -113.834 36.5 -180.501c0 -77.333 -13 -149.5 -39 -216.5s-65.333 -125.333 -118 -175s-118.834 -88.834 -198.501 -117.501
s-172.834 -43 -279.501 -43c-34 0 -65 1.83301 -93 5.5s-56 10.167 -84 19.5c-37.333 -17.333 -65.5 -38.5 -84.5 -63.5s-28.5 -50.833 -28.5 -77.5c0 -46 22.167 -78.167 66.5 -96.5s113.833 -28.833 208.5 -31.5l290 -12c82.667 -3.33301 155.667 -15.333 219 -36
s116.5 -49.5 159.5 -86.5s75.5 -81.667 97.5 -134s33 -111.5 33 -177.5zM1175 1001c0 56.667 -8.16992 107.499 -24.5029 152.499s-40.333 83.333 -72 115s-70.667 56 -117 73s-99.5 25.5 -159.5 25.5c-62 0 -117.167 -9.33301 -165.5 -28s-89.166 -44.5 -122.499 -77.5
s-58.666 -72 -75.999 -117s-26 -93.833 -26 -146.5c0 -116 32.833 -204.5 98.5 -265.5s159.834 -91.5 282.501 -91.5c58.667 0 111.667 8 159 24s87.5 39.333 120.5 70s58.333 68.334 76 113.001s26.5 95.667 26.5 153zM1318 -249.996c0 80.667 -27.332 144.333 -81.999 191
s-140 72.667 -256 78l-306 12h-97c-32.667 -21.333 -62.334 -44.333 -89.001 -69s-49.5 -50.5 -68.5 -77.5s-33.667 -55.333 -44 -85s-15.5 -60.5 -15.5 -92.5c0 -48.667 11.167 -92 33.5 -130s53.166 -70.167 92.499 -96.5s86 -46.5 140 -60.5s112.667 -21 176 -21
c83.333 0 157 8.83301 221 26.5s117.833 42.167 161.5 73.5s76.834 68.5 99.501 111.5s34 89.5 34 139.5z" />
    <glyph glyph-name="h" unicode="h" horiz-adv-x="1760" 
d="M1254 0l0.00292969 979.999c0 59.333 -4.5 112.166 -13.5 158.499s-24.333 85.5 -46 117.5s-50.667 56.5 -87 73.5s-81.833 25.5 -136.5 25.5c-68 0 -130.5 -15.833 -187.5 -47.5s-106 -75.667 -147 -132s-72.833 -122.833 -95.5 -199.5s-34 -160 -34 -250v-726h-229
v2228h229v-745c0 -25.333 -0.333008 -51.666 -1 -78.999s-2 -54.333 -4 -81s-4.66699 -52.167 -8 -76.5s-7.33301 -46.166 -12 -65.499l6 -3c22 56 50.333 106.5 85 151.5s74.667 83.333 120 115s96.166 56.167 152.499 73.5s117.166 26 182.499 26
c86.667 0 159.167 -12.667 217.5 -38s105.166 -60 140.499 -104s60.333 -95.667 75 -155s22 -123 22 -191v-1056h-229z" />
    <glyph glyph-name="i" unicode="i" horiz-adv-x="784" 
d="M552 2005c0 -21.333 -4.33301 -41.5 -13 -60.5s-20.167 -35.5 -34.5 -49.5s-31.166 -25.167 -50.499 -33.5s-39.666 -12.5 -60.999 -12.5c-22 0 -42.667 4 -62 12s-36 19 -50 33s-25.167 30.5 -33.5 49.5s-12.5 39.5 -12.5 61.5c0 21.333 4.16699 41.333 12.5 60
s19.5 35 33.5 49s30.667 25.167 50 33.5s40 12.5 62 12.5c21.333 0 41.666 -4 60.999 -12s36.166 -18.833 50.499 -32.5s25.833 -30 34.5 -49s13 -39.5 13 -61.5zM278 0v1517h229v-1517h-229z" />
    <glyph glyph-name="j" unicode="j" horiz-adv-x="808" 
d="M574 2005c0 -21.333 -4.16699 -41.5 -12.5 -60.5s-19.666 -35.5 -33.999 -49.5s-31.166 -25.167 -50.499 -33.5s-40 -12.5 -62 -12.5c-21.333 0 -41.5 4 -60.5 12s-35.5 19 -49.5 33s-25.167 30.5 -33.5 49.5s-12.5 39.5 -12.5 61.5c0 21.333 4.16699 41.333 12.5 60
s19.5 35 33.5 49s30.5 25.167 49.5 33.5s39.167 12.5 60.5 12.5c22 0 42.667 -4 62 -12s36.166 -18.833 50.499 -32.5s25.666 -30 33.999 -49s12.5 -39.5 12.5 -61.5zM531 -192c0 -100.667 -8.16602 -187.999 -24.499 -261.999s-43.833 -135.333 -82.5 -184
s-90 -84.834 -154 -108.501s-143.667 -35.5 -239 -35.5c-32.667 0 -67.667 2.33301 -105 7s-70.666 11.667 -99.999 21l21 202c29.333 -11.333 60.666 -20.333 93.999 -27s67 -10 101 -10c51.333 0 93.666 6 126.999 18s59.833 32.5 79.5 61.5s33.5 68 41.5 117
s12 110.5 12 184.5v1725h229v-1709z" />
    <glyph glyph-name="k" unicode="k" horiz-adv-x="1471" 
d="M1105 0l-598 796v-796h-229v2228h229v-1392l570 681h278l-604 -690l650 -827h-296z" />
    <glyph glyph-name="l" unicode="l" horiz-adv-x="784" 
d="M278 0v2228h229v-2228h-229z" />
    <glyph glyph-name="m" unicode="m" horiz-adv-x="2698" 
d="M2191 0l0.00390625 976.997c0 56.667 -4 108.334 -12 155.001s-22.333 86.5 -43 119.5s-48.834 58.5 -84.5 76.5c-35.667 18 -80.834 27 -135.501 27c-58 0 -114.333 -14.667 -169 -44s-103 -71.333 -145 -126s-75.833 -121.167 -101.5 -199.5
s-38.5 -166.833 -38.5 -265.5v-720h-226v980c0 52 -3.5 100.667 -10.5 146s-20.333 85 -40 119s-47.5 60.833 -83.5 80.5s-83 29.5 -141 29.5c-62.667 0 -121.5 -15.667 -176.5 -47s-103 -75 -144 -131s-73.5 -123 -97.5 -201s-36 -163.333 -36 -256v-720h-229v1517h226
c0 -25.333 -0.333008 -52.833 -1 -82.5s-2 -59.5 -4 -89.5s-4.66699 -59.5 -8 -88.5s-7.33301 -55.167 -12 -78.5l6 -3c21.333 56 49.5 106.667 84.5 152s75.333 84 121 116s96.167 56.833 151.5 74.5s114.333 26.5 177 26.5c57.333 0 107.5 -6.33301 150.5 -19
s80.167 -29.167 111.5 -49.5s57.166 -43.5 77.499 -69.5s36.5 -52.5 48.5 -79.5s20.667 -53.167 26 -78.5s8.66602 -47.666 9.99902 -66.999c14 36 34.833 75.167 62.5 117.5s63.167 81.666 106.5 117.999s94.666 66.666 153.999 90.999s127.666 36.5 204.999 36.5
c70.667 0 133.834 -9.66699 189.501 -29s102.834 -49.166 141.5 -89.499c38.667 -40.333 68 -91.666 88 -153.999s30 -136.166 30 -221.499v-1050h-229z" />
    <glyph glyph-name="n" unicode="n" horiz-adv-x="1760" 
d="M1254 0l0.00195312 980.002c0 59.333 -4.5 112.166 -13.5 158.499s-24.333 85.5 -46 117.5s-50.667 56.5 -87 73.5s-81.833 25.5 -136.5 25.5c-68 0 -130.5 -15.833 -187.5 -47.5s-106 -75.667 -147 -132s-72.833 -122.833 -95.5 -199.5s-34 -160 -34 -250v-726h-229
v1517h226c0 -25.333 -0.5 -53 -1.5 -83s-2.66699 -60.167 -5 -90.5s-5 -59.833 -8 -88.5s-6.5 -54.334 -10.5 -77.001l6 -3c21.333 56 49.166 106.667 83.499 152s74.5 84 120.5 116s97.5 56.833 154.5 74.5s118.5 26.5 184.5 26.5c86.667 0 159.167 -12.667 217.5 -38
s105.166 -60 140.499 -104s60.333 -95.667 75 -155s22 -123 22 -191v-1056h-229z" />
    <glyph glyph-name="o" unicode="o" horiz-adv-x="1654" 
d="M1523 784c0 -75.333 -7.50098 -147.667 -22.501 -217s-37 -134.166 -66 -194.499s-64.5 -115 -106.5 -164s-90 -91 -144 -126s-113.5 -62.167 -178.5 -81.5s-134.833 -29 -209.5 -29c-101.333 0 -193.166 15.667 -275.499 47s-152.5 79.166 -210.5 143.499
s-102.833 145.333 -134.5 243s-47.5 212.834 -47.5 345.501c0 108 16.333 210.167 49 306.5s80 180.5 142 252.5s137.833 129 227.5 171s191.5 63 305.5 63c92 0 178.667 -13.5 260 -40.5s152.5 -70.667 213.5 -131s109.167 -138.833 144.5 -235.5s53 -214.334 53 -353.001z
M1284 768.999c0 91.333 -9.5 173.333 -28.5 246s-47.5 134.167 -85.5 184.5s-85.333 88.833 -142 115.5s-122.667 40 -198 40c-59.333 0 -116.833 -11.5 -172.5 -34.5s-105 -58.5 -148 -106.5s-77.5 -108.833 -103.5 -182.5s-39 -161.167 -39 -262.5
c0 -97.333 10.167 -183.333 30.5 -258s50.333 -137.334 90 -188.001s88.167 -89.167 145.5 -115.5s123 -39.5 197 -39.5c59.333 0 116.333 11.667 171 35s103 59.5 145 108.5s75.5 111.333 100.5 187s37.5 165.834 37.5 270.501z" />
    <glyph glyph-name="p" unicode="p" horiz-adv-x="1703" 
d="M1562 827c0 -136 -17.8281 -256.506 -53.4951 -361.506s-87 -193.333 -154 -265s-148.333 -126.167 -244 -163.5s-203.5 -56 -323.5 -56c-26 0 -50.5 0.333008 -73.5 1s-45.667 1.83398 -68 3.50098s-44.833 3.83398 -67.5 6.50098s-46.334 6.33398 -71.001 11.001v-763
h-229v2277h226c0 -23.333 -0.333008 -49.5 -1 -78.5s-2 -58.5 -4 -88.5s-4.66699 -59.167 -8 -87.5s-7.33301 -53.5 -12 -75.5l6 -3c21.333 54.667 49.166 104.334 83.499 149.001s73.666 82.5 117.999 113.5s93.333 55 147 72s110.5 25.5 170.5 25.5
c89.333 0 168.666 -15.333 237.999 -46s127.666 -76.167 174.999 -136.5s83.333 -135.166 108 -224.499s37 -192.666 37 -309.999zM1322 807.994c0 85.333 -7.16406 161.831 -21.4971 229.498s-36.5 125 -66.5 172s-67.833 83 -113.5 108s-99.834 37.5 -162.501 37.5
c-50.667 0 -97 -9.16699 -139 -27.5s-79.833 -43.166 -113.5 -74.499s-62.834 -67.666 -87.501 -108.999s-45.334 -85 -62.001 -131s-29 -93.167 -37 -141.5s-12 -94.833 -12 -139.5v-531c44 -13.333 90 -23.166 138 -29.499s100.333 -9.5 157 -9.5
c78.667 0 150 12.167 214 36.5s118.667 62.666 164 114.999s80.333 119.333 105 201s37 179.5 37 293.5z" />
    <glyph glyph-name="q" unicode="q" horiz-adv-x="1703" 
d="M1196 -760l0.00195312 826.999c0 16 0.166992 34.333 0.5 55s1.33301 42.5 3 65.5s3.83398 46.667 6.50098 71s6.33398 47.833 11.001 70.5h-6c-20.667 -54 -47.834 -103 -81.501 -147s-72.334 -81.5 -116.001 -112.5s-91.834 -55 -144.501 -72
s-108.334 -25.5 -167.001 -25.5c-89.333 0 -168.833 15 -238.5 45s-128.5 75 -176.5 135s-84.5 134.667 -109.5 224s-37.5 193 -37.5 311c0 136 18.333 256.667 55 362s89.167 194.333 157.5 267s151.333 127.834 249 165.501s207.5 56.5 329.5 56.5
c84.667 0 169 -3.66699 253 -11s164.333 -18 241 -32v-2255h-229zM1196 1322c-50.667 11.333 -100.332 20.1719 -148.999 26.5049s-97.667 9.5 -147 9.5c-78.667 0 -149.834 -12.333 -213.501 -37s-118.167 -63.334 -163.5 -116.001s-80.333 -120 -105 -202
s-37 -180.333 -37 -295c0 -85.333 7.16699 -161.666 21.5 -228.999s36.5 -124.5 66.5 -171.5s67.833 -83 113.5 -108s99.5 -37.5 161.5 -37.5c50.667 0 97 9.16699 139 27.5s79.667 43.166 113 74.499s62.5 67.666 87.5 108.999s45.833 85.166 62.5 131.499
s29.167 93.666 37.5 141.999s12.5 95.166 12.5 140.499v535z" />
    <glyph glyph-name="r" unicode="r" horiz-adv-x="1080" 
d="M1001 1315c-84 14.667 -157 9.83008 -219 -14.5029s-113.333 -66.5 -154 -126.5s-71 -137.667 -91 -233s-30 -206.666 -30 -333.999v-607h-229v1517h226c0 -25.333 -0.833008 -53.333 -2.5 -84s-4 -62.667 -7 -96s-6.5 -67.166 -10.5 -101.499
s-8.66699 -67.833 -14 -100.5l3 -3c15.333 56 37 110.5 65 163.5s63.833 99.167 107.5 138.5s95.5 69.333 155.5 90s129.667 26.334 209 17.001z" />
    <glyph glyph-name="s" unicode="s" horiz-adv-x="1306" 
d="M1141 451c0 -67.333 -14.166 -129.997 -42.499 -187.997s-69.5 -108.667 -123.5 -152s-119.833 -77.333 -197.5 -102s-165.834 -37 -264.501 -37c-58.667 0 -118 3.33301 -178 10s-113.667 16.667 -161 30l27 211c49.333 -18.667 104 -33 164 -43s119.333 -15 178 -15
c52.667 0 101.334 5.83301 146.001 17.5s83.167 28.5 115.5 50.5s57.5 48.833 75.5 80.5s27 67.5 27 107.5c0 46 -10.667 83.667 -32 113s-49.333 53.666 -84 72.999s-74.167 35.5 -118.5 48.5l-136.5 40.5c-46.667 14 -92.167 30.167 -136.5 48.5s-83.833 42.5 -118.5 72.5
s-62.667 67.667 -84 113s-32 101.666 -32 168.999c0 63.333 12.333 122.166 37 176.499s61.5 101.333 110.5 141s110 70.834 183 93.501s158.167 34 255.5 34c24 0 48.833 -0.833008 74.5 -2.5s51.5 -4 77.5 -7s51.5 -6.5 76.5 -10.5s48.5 -8.33301 70.5 -13l-22 -193
c-46 13.333 -94.833 24.333 -146.5 33s-103.5 13 -155.5 13c-110 0 -191.833 -21.5 -245.5 -64.5s-80.5 -101.833 -80.5 -176.5c0 -46 10.667 -83.5 32 -112.5s49.333 -53.333 84 -73s74.167 -36.334 118.5 -50.001l136 -41.5c46.333 -14 91.666 -30.333 135.999 -49
s83.833 -42.667 118.5 -72s62.667 -66 84 -110s32 -98.667 32 -164z" />
    <glyph glyph-name="t" unicode="t" horiz-adv-x="1129" 
d="M1025 9c-21.333 -4.66699 -44.3301 -8.99902 -68.9971 -12.999s-49.834 -7.5 -75.501 -10.5s-51.334 -5.5 -77.001 -7.5s-50.5 -3 -74.5 -3c-76 0 -139.333 8.66699 -190 26s-91 44.166 -121 80.499s-51.167 82.833 -63.5 139.5s-18.5 124.334 -18.5 203.001v913h-330
v180h330v503l229 65v-568h445v-180h-445v-818c0 -68 3.5 -124 10.5 -168s19 -79 36 -105s40.167 -44 69.5 -54s66.666 -15 111.999 -15c38 0 74.333 2.16699 109 6.5s66.667 10.166 96 17.499l27 -192v0z" />
    <glyph glyph-name="u" unicode="u" horiz-adv-x="1760" 
d="M1258 0c0 25.333 0.5 52.832 1.5 82.499s2.5 59.667 4.5 90s4.33301 59.833 7 88.5s6 54.667 10 78l-6 3c-21.333 -56 -49.166 -106.667 -83.499 -152s-74.5 -84.166 -120.5 -116.499s-97.333 -57.333 -154 -75s-118.334 -26.5 -185.001 -26.5
c-87.333 0 -160 12.667 -218 38s-104.5 60 -139.5 104s-59.833 95.667 -74.5 155s-22 123 -22 191v1057h229v-980c0 -59.333 4.5 -112.333 13.5 -159s24.333 -86 46 -118s50.667 -56.333 87 -73s81.833 -25 136.5 -25c68 0 130.333 15.833 187 47.5s105.5 75.5 146.5 131.5
s73 122.333 96 199s34.5 160 34.5 250v727h229v-1517h-225z" />
    <glyph glyph-name="v" unicode="v" horiz-adv-x="1459" 
d="M842 0h-238l-573 1517h259l354 -989c16.667 -47.333 31.667 -92.833 45 -136.5l40 -132.5h3l39.5 129c13.667 44 28.167 86.667 43.5 128l363 1001h250z" />
    <glyph glyph-name="w" unicode="w" horiz-adv-x="2417" 
d="M1865 0h-266.001l-333 980c-16.667 47.333 -31.667 94.833 -45 142.5l-40 146.5h-3c-15.333 -66 -32.5 -129.833 -51.5 -191.5l-58.5 -189.5l-278 -888h-265l-470 1517h256l260 -904l57 -197.5c18.667 -64.333 34 -122.5 46 -174.5h3l48.5 186
c17 62.667 35.833 124.667 56.5 186l289 904h260l292 -901l39.5 -124.5l29.5 -97.5c8.66699 -29.333 16.334 -56.333 23.001 -81s13 -49.667 19 -75h6c6.66699 30 13.667 59 21 87l23.5 86l27 93l31.5 106l272 907h244z" />
    <glyph glyph-name="x" unicode="x" horiz-adv-x="1571" 
d="M1193 0l-418 610l-418 -610h-284l574 760l-543 757h283l406 -598l415 598h263l-543 -748l567 -769h-302z" />
    <glyph glyph-name="y" unicode="y" horiz-adv-x="1437" 
d="M778 -144c-45.333 -118.667 -91.166 -218.831 -137.499 -300.498s-97 -147.667 -152 -198s-115.833 -86.5 -182.5 -108.5s-142.334 -33 -227.001 -33c-12 0 -25 0.5 -39 1.5s-28.167 2.33301 -42.5 4s-28.5 3.66699 -42.5 6l-38 6.5l25 204c24.667 -6 53.5 -11 86.5 -15
s64.167 -6 93.5 -6c42.667 0 83 6 121 18s74.333 33.167 109 63.5s68 71.666 100 123.999s63.333 119.166 94 200.499l67 177l-579 1517h262l317 -870c24.667 -68.667 46 -131.667 64 -189l52 -171h3c6.66699 24 15.667 53.5 27 88.5l37 113.5l43 127.5l46 131.5l271 769
h251z" />
    <glyph glyph-name="z" unicode="z" horiz-adv-x="1361" 
d="M150 0l0.00195312 162.002l772 1156c-24.667 -0.666992 -53 -1.33398 -85 -2.00098s-66.5 -1.33398 -103.5 -2.00098s-76 -1.16699 -117 -1.5s-82.833 -0.5 -125.5 -0.5h-326v205h1019v-159l-766 -1154l87 2.5c35.333 1 73.166 1.83301 113.499 2.5
s81.166 1.16699 122.499 1.5s80 0.5 116 0.5h342v-211h-1049z" />
    <glyph glyph-name="braceleft" unicode="{" horiz-adv-x="1016" 
d="M863 -598c-81.333 0 -150.167 12 -206.5 36s-102 59.5 -137 106.5s-60.167 105.5 -75.5 175.5s-23 151 -23 243v583c0 58 -5.5 107.167 -16.5 147.5s-29.333 73.666 -55 99.999s-59.5 46.166 -101.5 59.499s-94 22 -156 26v183c63.333 4 116 11.833 158 23.5
s75.667 30 101 55s43.333 57.833 54 98.5s16 91.667 16 153v396c0 78 7 150.833 21 218.5s38 126.834 72 177.5c34 50.667 79.333 90.5 136 119.5s127.667 43.5 213 43.5h53v-175c-53.333 0 -98.166 -6.16699 -134.499 -18.5s-65.5 -33 -87.5 -62
s-37.833 -67.5 -47.5 -115.5s-14.5 -107.333 -14.5 -178v-391c0 -126 -23.167 -225.167 -69.5 -297.5s-117.833 -117.5 -214.5 -135.5v-3c94.667 -15.333 165.667 -61.166 213 -137.499s71 -177.166 71 -302.499v-576c0 -71.333 4.83301 -131 14.5 -179
s25.5 -86.5 47.5 -115.5s51.167 -49.833 87.5 -62.5s81.166 -19 134.499 -19v-177h-53z" />
    <glyph glyph-name="bar" unicode="|" horiz-adv-x="866" 
d="M342 -760v3052h179v-3052h-179z" />
    <glyph glyph-name="braceright" unicode="}" horiz-adv-x="1004" 
d="M946 879c-62 -4 -113.998 -12.666 -155.998 -25.999s-75.833 -33.166 -101.5 -59.499s-44.167 -59.666 -55.5 -99.999s-17 -89.5 -17 -147.5v-583c0 -92 -7.83301 -173 -23.5 -243s-41.167 -128.5 -76.5 -175.5s-81.166 -82.5 -137.499 -106.5s-125.5 -36 -207.5 -36h-52
v177c54 0 99.333 6.33301 136 19s66.167 33.5 88.5 62.5s38.333 67.5 48 115.5s14.5 107.667 14.5 179v576c0 125.333 23.667 226.166 71 302.499s118.333 122.166 213 137.499v3c-48.667 6.66699 -90.834 21.167 -126.501 43.5s-65.167 51.333 -88.5 87
s-40.666 77.667 -51.999 126s-17 102.166 -17 161.499v406c0 70.667 -4.83301 130 -14.5 178s-25.667 86.5 -48 115.5s-51.833 49.667 -88.5 62s-82 18.5 -136 18.5v175h52c85.333 0 156.5 -14.5 213.5 -43.5s102.667 -68.833 137 -119.5s58.666 -109.834 72.999 -177.501
s21.5 -140.5 21.5 -218.5v-381c0 -65.333 5.16699 -119.166 15.5 -161.499s28.166 -76.5 53.499 -102.5s59.166 -45 101.499 -57s95.5 -20 159.5 -24v-183v0z" />
    <glyph glyph-name="asciitilde" unicode="~" horiz-adv-x="1678" 
d="M1504 1721c0 -63.333 -9.00195 -121.499 -27.002 -174.499s-43.833 -98.667 -77.5 -137s-74.334 -68.166 -122.001 -89.499s-101.167 -32 -160.5 -32c-56 0 -103.5 8.5 -142.5 25.5s-73 38.167 -102 63.5s-54.833 53 -77.5 83s-45.667 57.667 -69 83
s-48.666 46.5 -75.999 63.5s-60 25.5 -98 25.5c-34 0 -63.5 -7 -88.5 -21s-45.667 -33.5 -62 -58.5s-28.666 -54.5 -36.999 -88.5s-12.833 -71.333 -13.5 -112h-171v18c0 64 9 122.667 27 176s43.833 99 77.5 137s74.334 67.667 122.001 89s101.5 32 161.5 32
c56 0 103.5 -8.5 142.5 -25.5s73 -38.333 102 -64s54.833 -53.334 77.5 -83.001s45.5 -57.334 68.5 -83.001s48.167 -47 75.5 -64s60 -25.5 98 -25.5c34 0 63.5 7 88.5 21s45.833 33.667 62.5 59s29.167 55.333 37.5 90s12.833 72.667 13.5 114h170v-22v0z" />
    <glyph glyph-name="saraileftthai" 
d="M-1791 2100c36.667 7.33301 79.332 13.8311 127.999 19.498s99.167 10.334 151.5 14.001s104.666 6.5 156.999 8.5s100.5 3 144.5 3c22.667 0 50.334 -0.833008 83.001 -2.5s67.667 -4 105 -7s75.833 -6.66699 115.5 -11s78.5 -9.5 116.5 -15.5v-203
c-93.333 12.667 -177.166 21.334 -251.499 26.001s-139.833 7 -196.5 7c-60.667 0 -118 -0.833008 -172 -2.5s-105.667 -4.33398 -155 -8.00098s-97 -8.66699 -143 -15s-91 -14.166 -135 -23.499z" />
    <glyph glyph-name="saraileftthai" unicode="&#xf701;" 
d="M-1791 2100c36.667 7.33301 79.332 13.8311 127.999 19.498s99.167 10.334 151.5 14.001s104.666 6.5 156.999 8.5s100.5 3 144.5 3c22.667 0 50.334 -0.833008 83.001 -2.5s67.667 -4 105 -7s75.833 -6.66699 115.5 -11s78.5 -9.5 116.5 -15.5v-203
c-93.333 12.667 -177.166 21.334 -251.499 26.001s-139.833 7 -196.5 7c-60.667 0 -118 -0.833008 -172 -2.5s-105.667 -4.33398 -155 -8.00098s-97 -8.66699 -143 -15s-91 -14.166 -135 -23.499z" />
    <glyph glyph-name="saraiileftthai" 
d="M-1794 2100c36.667 7.33301 79.498 13.8311 128.498 19.498s99.833 10.334 152.5 14.001s105.334 6.5 158.001 8.5s101 3 145 3c10 0 22.167 -0.166992 36.5 -0.5s29.833 -1 46.5 -2l51 -3c17.333 -1 34 -2.16699 50 -3.5v231h236v-461
c-93.333 12.667 -177.166 21.334 -251.499 26.001s-139.833 7 -196.5 7c-60.667 0 -118 -0.833008 -172 -2.5s-105.667 -4.33398 -155 -8.00098s-97 -8.66699 -143 -15s-91 -14.166 -135 -23.499z" />
    <glyph glyph-name="saraiileftthai" unicode="&#xf702;" 
d="M-1794 2100c36.667 7.33301 79.498 13.8311 128.498 19.498s99.833 10.334 152.5 14.001s105.334 6.5 158.001 8.5s101 3 145 3c10 0 22.167 -0.166992 36.5 -0.5s29.833 -1 46.5 -2l51 -3c17.333 -1 34 -2.16699 50 -3.5v231h236v-461
c-93.333 12.667 -177.166 21.334 -251.499 26.001s-139.833 7 -196.5 7c-60.667 0 -118 -0.833008 -172 -2.5s-105.667 -4.33398 -155 -8.00098s-97 -8.66699 -143 -15s-91 -14.166 -135 -23.499z" />
    <glyph glyph-name="saraueleftthai" 
d="M-1285 2127c-1.33301 2 -2.33203 5.33301 -2.99902 10s-1.16699 9.83398 -1.5 15.5c-0.333008 5.66699 -0.5 10.834 -0.5 15.5v10c3.33301 34.667 13.166 68 29.499 100s37.333 60 63 84s55 43 88 57s68.167 20.667 105.5 20c38.667 -1.33301 74.667 -9.33301 108 -24
s62.333 -34.5 87 -59.5s43.834 -54 57.501 -87s20.167 -67.833 19.5 -104.5c-1.33301 -40.667 -10.333 -77.334 -27 -110c-16.667 -32.667 -39.334 -60.5 -68.001 -83.5s-62 -40.333 -100 -52s-78.667 -16.5 -122 -14.5l-142 10c-58.667 4.66699 -117 8.66699 -175 12
s-117.333 5 -178 5c-15.333 -0.666992 -35.833 -1.5 -61.5 -2.5s-53.834 -2.5 -84.501 -4.5s-62.5 -4.33301 -95.5 -7s-64.167 -6 -93.5 -10l27.5 108l27.5 105c42 5.33301 90.333 9.33301 145 12s111.334 4 170.001 4c34 0 68.833 -0.666992 104.5 -2
s75.5 -3.66602 119.5 -7zM-1146 2174c0 -18 3.33301 -35 10 -51s16 -30.167 28 -42.5s26.167 -22.166 42.5 -29.5c16.333 -7.33301 33.5 -11.333 51.5 -12c18 0 35.333 3.33301 52 10s31.334 15.834 44.001 27.5c12.667 11.667 22.834 25.334 30.501 41
c7.66699 15.667 11.5 32.5 11.5 50.5c0.666992 18 -2.33301 35 -9 51s-16 30 -28 42s-26.167 21.667 -42.5 29s-33.5 11.333 -51.5 12c-18.667 0.666992 -36.334 -2.33301 -53.001 -9s-31.334 -15.667 -44.001 -27s-22.667 -24.833 -30 -40.5s-11.333 -32.5 -12 -50.5v-1z
" />
    <glyph glyph-name="saraueleftthai" unicode="&#xf703;" 
d="M-1285 2127c-1.33301 2 -2.33203 5.33301 -2.99902 10s-1.16699 9.83398 -1.5 15.5c-0.333008 5.66699 -0.5 10.834 -0.5 15.5v10c3.33301 34.667 13.166 68 29.499 100s37.333 60 63 84s55 43 88 57s68.167 20.667 105.5 20c38.667 -1.33301 74.667 -9.33301 108 -24
s62.333 -34.5 87 -59.5s43.834 -54 57.501 -87s20.167 -67.833 19.5 -104.5c-1.33301 -40.667 -10.333 -77.334 -27 -110c-16.667 -32.667 -39.334 -60.5 -68.001 -83.5s-62 -40.333 -100 -52s-78.667 -16.5 -122 -14.5l-142 10c-58.667 4.66699 -117 8.66699 -175 12
s-117.333 5 -178 5c-15.333 -0.666992 -35.833 -1.5 -61.5 -2.5s-53.834 -2.5 -84.501 -4.5s-62.5 -4.33301 -95.5 -7s-64.167 -6 -93.5 -10l27.5 108l27.5 105c42 5.33301 90.333 9.33301 145 12s111.334 4 170.001 4c34 0 68.833 -0.666992 104.5 -2
s75.5 -3.66602 119.5 -7zM-1146 2174c0 -18 3.33301 -35 10 -51s16 -30.167 28 -42.5s26.167 -22.166 42.5 -29.5c16.333 -7.33301 33.5 -11.333 51.5 -12c18 0 35.333 3.33301 52 10s31.334 15.834 44.001 27.5c12.667 11.667 22.834 25.334 30.501 41
c7.66699 15.667 11.5 32.5 11.5 50.5c0.666992 18 -2.33301 35 -9 51s-16 30 -28 42s-26.167 21.667 -42.5 29s-33.5 11.333 -51.5 12c-18.667 0.666992 -36.334 -2.33301 -53.001 -9s-31.334 -15.667 -44.001 -27s-22.667 -24.833 -30 -40.5s-11.333 -32.5 -12 -50.5v-1z
" />
    <glyph glyph-name="saraueeleftthai" 
d="M-1228 2145c28 0 61.167 -1.00098 99.5 -3.00098s79.5 -4.66699 123.5 -8v233h214l-1 -461c-93.333 12.667 -176.833 21.334 -250.5 26.001s-138.834 7 -195.501 7c-60.667 0 -118 -0.833008 -172 -2.5s-105.667 -4.33398 -155 -8.00098s-97 -8.66699 -143 -15
s-91 -14.166 -135 -23.499l26.5 106l25.5 104c43.333 8.66699 94.833 16 154.5 22s123.834 11.333 192.501 16v229h216v-222z" />
    <glyph glyph-name="saraueeleftthai" unicode="&#xf704;" 
d="M-1228 2145c28 0 61.167 -1.00098 99.5 -3.00098s79.5 -4.66699 123.5 -8v233h214l-1 -461c-93.333 12.667 -176.833 21.334 -250.5 26.001s-138.834 7 -195.501 7c-60.667 0 -118 -0.833008 -172 -2.5s-105.667 -4.33398 -155 -8.00098s-97 -8.66699 -143 -15
s-91 -14.166 -135 -23.499l26.5 106l25.5 104c43.333 8.66699 94.833 16 154.5 22s123.834 11.333 192.501 16v229h216v-222z" />
    <glyph glyph-name="maieklowleftthai" 
d="M-820 1913h-236v445h236v-445z" />
    <glyph glyph-name="maieklowleftthai" unicode="&#xf705;" 
d="M-820 1913h-236v445h236v-445z" />
    <glyph glyph-name="maitholowleftthai" 
d="M-1435 2050c36 18.667 62.333 41.5 79 68.5s23.334 53.5 20.001 79.5c-3.33301 25.333 -14 42.5 -32 51.5s-38 13.5 -60 13.5c-8.66699 0 -17.834 -0.333008 -27.501 -1s-18.5 -1.66699 -26.5 -3c-2 21.333 -4.16699 43.166 -6.5 65.499l-6.5 63.5
c66 21.333 132.333 32 199 32c26.667 0 50.667 -4 72 -12s39.333 -18.667 54 -32s26.167 -28.833 34.5 -46.5s13.166 -36.167 14.499 -55.5c3.33301 -38.667 -4.16699 -74.5 -22.5 -107.5s-44.166 -58.5 -77.499 -76.5c68.667 -2 140 4 214 18s145.333 37 214 69l28.5 -75
c8.33301 -22.667 17.833 -46.667 28.5 -72c-20.667 -11.333 -43.834 -22.5 -69.501 -33.5s-52.167 -21.333 -79.5 -31s-55.166 -18.167 -83.499 -25.5s-55.166 -12.666 -80.499 -15.999c-32 -3.33301 -64.167 -5.83301 -96.5 -7.5s-63.5 -2.5 -93.5 -2.5
c-58.667 0 -119.334 4 -182.001 12z" />
    <glyph glyph-name="maitholowleftthai" unicode="&#xf706;" 
d="M-1435 2050c36 18.667 62.333 41.5 79 68.5s23.334 53.5 20.001 79.5c-3.33301 25.333 -14 42.5 -32 51.5s-38 13.5 -60 13.5c-8.66699 0 -17.834 -0.333008 -27.501 -1s-18.5 -1.66699 -26.5 -3c-2 21.333 -4.16699 43.166 -6.5 65.499l-6.5 63.5
c66 21.333 132.333 32 199 32c26.667 0 50.667 -4 72 -12s39.333 -18.667 54 -32s26.167 -28.833 34.5 -46.5s13.166 -36.167 14.499 -55.5c3.33301 -38.667 -4.16699 -74.5 -22.5 -107.5s-44.166 -58.5 -77.499 -76.5c68.667 -2 140 4 214 18s145.333 37 214 69l28.5 -75
c8.33301 -22.667 17.833 -46.667 28.5 -72c-20.667 -11.333 -43.834 -22.5 -69.501 -33.5s-52.167 -21.333 -79.5 -31s-55.166 -18.167 -83.499 -25.5s-55.166 -12.666 -80.499 -15.999c-32 -3.33301 -64.167 -5.83301 -96.5 -7.5s-63.5 -2.5 -93.5 -2.5
c-58.667 0 -119.334 4 -182.001 12z" />
    <glyph glyph-name="maitrilowleftthai" 
d="M-1114 2031c22.667 9.33301 41.6689 23.998 57.002 43.998s23 45 23 75c0.666992 12.667 -1.33301 25.667 -6 39s-11.167 25.5 -19.5 36.5s-18 20.5 -29 28.5s-22.167 13.333 -33.5 16c-12 -20.667 -26 -39.334 -42 -56c-13.333 -14 -30 -26.833 -50 -38.5
s-42.667 -17.167 -68 -16.5c-25.333 -0.666992 -48 4.83301 -68 16.5s-37 24.5 -51 38.5c-16.667 16.667 -31 35.667 -43 57c-15.333 -4.66699 -28.166 -11.667 -38.499 -21s-18.5 -19.666 -24.5 -31c-6 -11.333 -10.333 -23.333 -13 -36s-3.33398 -25 -2.00098 -37
c0 -22 4.33301 -41.167 13 -57.5s19.834 -29.833 33.501 -40.5s29.167 -18.667 46.5 -24s35 -8 53 -8h2v-95c-12 -3.33301 -25.333 -5.83301 -40 -7.5s-27.667 -2.5 -39 -2.5c-48 0 -87 8.66699 -117 26s-53.667 38.5 -71 63.5s-29.166 51.5 -35.499 79.5s-9.5 53 -9.5 75
c0 34 5.66699 67.5 17 100.5s27.666 62.667 48.999 89s47.666 47.833 78.999 64.5s67 25 107 25c2.66699 -8.66699 7.66699 -20.167 15 -34.5s17 -28.5 29 -42.5s27 -26.167 45 -36.5s39 -15.5 63 -15.5c22.667 0 42.834 5.16699 60.501 15.5s32.667 22.666 45 37
c12.333 14.333 22.166 28.833 29.499 43.5s12.666 26.334 15.999 35c46 -0.666992 85.167 -8.83398 117.5 -24.5c32.333 -15.667 58.5 -35.834 78.5 -60.5c20 -24.667 34.333 -52.167 43 -82.5s12.667 -60.833 12 -91.5c-0.666992 -15.333 -5.16699 -34.166 -13.5 -56.499
s-21.833 -45.5 -40.5 -69.5c60.667 11.333 110.167 23.833 148.5 37.5s70.5 29.167 96.5 46.5c7.33301 -24.667 13.5 -46.5 18.5 -65.5l17.5 -63.5c-14.667 -14 -38.334 -26.833 -71.001 -38.5s-69.167 -21.667 -109.5 -30s-81.833 -14.666 -124.5 -18.999
s-81 -6.5 -115 -6.5h-23z" />
    <glyph glyph-name="maitrilowleftthai" unicode="&#xf707;" 
d="M-1114 2031c22.667 9.33301 41.6689 23.998 57.002 43.998s23 45 23 75c0.666992 12.667 -1.33301 25.667 -6 39s-11.167 25.5 -19.5 36.5s-18 20.5 -29 28.5s-22.167 13.333 -33.5 16c-12 -20.667 -26 -39.334 -42 -56c-13.333 -14 -30 -26.833 -50 -38.5
s-42.667 -17.167 -68 -16.5c-25.333 -0.666992 -48 4.83301 -68 16.5s-37 24.5 -51 38.5c-16.667 16.667 -31 35.667 -43 57c-15.333 -4.66699 -28.166 -11.667 -38.499 -21s-18.5 -19.666 -24.5 -31c-6 -11.333 -10.333 -23.333 -13 -36s-3.33398 -25 -2.00098 -37
c0 -22 4.33301 -41.167 13 -57.5s19.834 -29.833 33.501 -40.5s29.167 -18.667 46.5 -24s35 -8 53 -8h2v-95c-12 -3.33301 -25.333 -5.83301 -40 -7.5s-27.667 -2.5 -39 -2.5c-48 0 -87 8.66699 -117 26s-53.667 38.5 -71 63.5s-29.166 51.5 -35.499 79.5s-9.5 53 -9.5 75
c0 34 5.66699 67.5 17 100.5s27.666 62.667 48.999 89s47.666 47.833 78.999 64.5s67 25 107 25c2.66699 -8.66699 7.66699 -20.167 15 -34.5s17 -28.5 29 -42.5s27 -26.167 45 -36.5s39 -15.5 63 -15.5c22.667 0 42.834 5.16699 60.501 15.5s32.667 22.666 45 37
c12.333 14.333 22.166 28.833 29.499 43.5s12.666 26.334 15.999 35c46 -0.666992 85.167 -8.83398 117.5 -24.5c32.333 -15.667 58.5 -35.834 78.5 -60.5c20 -24.667 34.333 -52.167 43 -82.5s12.667 -60.833 12 -91.5c-0.666992 -15.333 -5.16699 -34.166 -13.5 -56.499
s-21.833 -45.5 -40.5 -69.5c60.667 11.333 110.167 23.833 148.5 37.5s70.5 29.167 96.5 46.5c7.33301 -24.667 13.5 -46.5 18.5 -65.5l17.5 -63.5c-14.667 -14 -38.334 -26.833 -71.001 -38.5s-69.167 -21.667 -109.5 -30s-81.833 -14.666 -124.5 -18.999
s-81 -6.5 -115 -6.5h-23z" />
    <glyph glyph-name="maichattawalowleftthai" 
d="M-1456 2260h243v176h193v-176h241v-168h-241v-172h-193v172h-243v168z" />
    <glyph glyph-name="maichattawalowleftthai" unicode="&#xf708;" 
d="M-1456 2260h243v176h193v-176h241v-168h-241v-172h-193v172h-243v168z" />
    <glyph glyph-name="thanthakhatlowleftthai" 
d="M-682 2363c-11.333 1.33301 -21.8359 2 -31.5029 2h-28.5c-71.333 0 -124 -11.833 -158 -35.5s-55.333 -62.167 -64 -115.5v1c-2 -10 -3.16699 -19.167 -3.5 -27.5s0.333984 -16.833 2.00098 -25.5s4.33398 -17.834 8.00098 -27.5
c3.66699 -9.66699 8.83398 -20.834 15.501 -33.5c-33.333 -15.333 -67.333 -29 -102 -41s-68 -25 -100 -39c-16 26 -29.833 58.333 -41.5 97s-16.167 79.334 -13.5 122v-1c3.33301 42 17 79 41 111s54.667 58.833 92 80.5s79.333 37.834 126 48.5
c46.667 10.667 94.667 16 144 16c22.667 0 44.667 -0.666992 66 -2s44 -4.33301 68 -9z" />
    <glyph glyph-name="thanthakhatlowleftthai" unicode="&#xf709;" 
d="M-682 2363c-11.333 1.33301 -21.8359 2 -31.5029 2h-28.5c-71.333 0 -124 -11.833 -158 -35.5s-55.333 -62.167 -64 -115.5v1c-2 -10 -3.16699 -19.167 -3.5 -27.5s0.333984 -16.833 2.00098 -25.5s4.33398 -17.834 8.00098 -27.5
c3.66699 -9.66699 8.83398 -20.834 15.501 -33.5c-33.333 -15.333 -67.333 -29 -102 -41s-68 -25 -100 -39c-16 26 -29.833 58.333 -41.5 97s-16.167 79.334 -13.5 122v-1c3.33301 42 17 79 41 111s54.667 58.833 92 80.5s79.333 37.834 126 48.5
c46.667 10.667 94.667 16 144 16c22.667 0 44.667 -0.666992 66 -2s44 -4.33301 68 -9z" />
    <glyph glyph-name="maieklowrightthai" 
d="M-290 1913h-236v445h236v-445z" />
    <glyph glyph-name="maieklowrightthai" unicode="&#xf70a;" 
d="M-290 1913h-236v445h236v-445z" />
    <glyph glyph-name="maitholowrightthai" 
d="M-976 2063c37.333 18.667 64.1709 41.498 80.5039 68.498s22.833 54.167 19.5 81.5c-3.33301 25.333 -14 42.5 -32 51.5s-38.333 13.5 -61 13.5c-10 0 -19.333 -0.333008 -28 -1s-17.667 -1.66699 -27 -3c-2.66699 22.667 -5 43.5 -7 62.5s-4.33301 39.167 -7 60.5
c33.333 10.667 67 18.5 101 23.5s67.667 7.5 101 7.5c27.333 0 51.666 -3.66699 72.999 -11s39.5 -17.166 54.5 -29.5c15 -12.333 26.667 -27 35 -44s13.5 -35.167 15.5 -54.5c1.33301 -16.667 0.5 -34.667 -2.5 -54s-8.83301 -38.166 -17.5 -56.5
c-8.66699 -18.333 -20 -35.166 -34 -50.5c-14 -15.333 -31.333 -27 -52 -35c40 -1.33301 80.333 -0.5 121 2.5s81.667 9.16699 123 18.5s82.666 22.166 123.999 38.5c41.333 16.333 82.666 37.166 123.999 62.5c14.667 -25.333 27.5 -48.666 38.5 -70
c11 -21.333 23.5 -44.333 37.5 -69c-20.667 -17.333 -45.334 -34.166 -74.001 -50.499s-60 -31.5 -94 -45.5s-69.667 -25.833 -107 -35.5s-75 -16.5 -113 -20.5c-66 -6.66699 -129.333 -10.167 -190 -10.5s-123.667 3.83398 -189 12.501z" />
    <glyph glyph-name="maitholowrightthai" unicode="&#xf70b;" 
d="M-976 2063c37.333 18.667 64.1709 41.498 80.5039 68.498s22.833 54.167 19.5 81.5c-3.33301 25.333 -14 42.5 -32 51.5s-38.333 13.5 -61 13.5c-10 0 -19.333 -0.333008 -28 -1s-17.667 -1.66699 -27 -3c-2.66699 22.667 -5 43.5 -7 62.5s-4.33301 39.167 -7 60.5
c33.333 10.667 67 18.5 101 23.5s67.667 7.5 101 7.5c27.333 0 51.666 -3.66699 72.999 -11s39.5 -17.166 54.5 -29.5c15 -12.333 26.667 -27 35 -44s13.5 -35.167 15.5 -54.5c1.33301 -16.667 0.5 -34.667 -2.5 -54s-8.83301 -38.166 -17.5 -56.5
c-8.66699 -18.333 -20 -35.166 -34 -50.5c-14 -15.333 -31.333 -27 -52 -35c40 -1.33301 80.333 -0.5 121 2.5s81.667 9.16699 123 18.5s82.666 22.166 123.999 38.5c41.333 16.333 82.666 37.166 123.999 62.5c14.667 -25.333 27.5 -48.666 38.5 -70
c11 -21.333 23.5 -44.333 37.5 -69c-20.667 -17.333 -45.334 -34.166 -74.001 -50.499s-60 -31.5 -94 -45.5s-69.667 -25.833 -107 -35.5s-75 -16.5 -113 -20.5c-66 -6.66699 -129.333 -10.167 -190 -10.5s-123.667 3.83398 -189 12.501z" />
    <glyph glyph-name="maitrilowrightthai" 
d="M-666 2036c23.333 9.33301 43.165 24.167 59.498 44.5s24.5 45.833 24.5 76.5c0.666992 13.333 -1.33301 26.833 -6 40.5s-11.334 26.167 -20.001 37.5s-18.5 21.166 -29.5 29.5c-11 8.33301 -22.5 13.833 -34.5 16.5c-12.667 -21.333 -27.334 -40.666 -44.001 -58
c-14 -14.667 -31.167 -28 -51.5 -40s-43.5 -17.333 -69.5 -16c-26.667 -1.33301 -50.167 4 -70.5 16s-37.833 25.333 -52.5 40c-17.333 17.333 -32 37 -44 59c-15.333 -4.66699 -28.166 -11.667 -38.499 -21s-18.833 -19.833 -25.5 -31.5s-11.334 -24 -14.001 -37
s-3.33398 -25.5 -2.00098 -37.5c0 -23.333 4.5 -43.5 13.5 -60.5s20.5 -31 34.5 -42s29.833 -19.167 47.5 -24.5s35.834 -8 54.501 -8h3v-98c-12.667 -4 -26.667 -6.83301 -42 -8.5s-28.666 -2.5 -39.999 -2.5c-49.333 0 -89.833 8.83301 -121.5 26.5s-56.5 39.5 -74.5 65.5
s-30.333 53.5 -37 82.5s-10 54.833 -10 77.5c0 35.333 5.83301 70.166 17.5 104.5c11.667 34.333 28.834 65.166 51.501 92.5c22.667 27.333 50.334 49.333 83.001 66s69.667 25 111 25c2.66699 -8.66699 7.66699 -20.5 15 -35.5s17.333 -29.667 30 -44s28 -26.833 46 -37.5
s39.667 -16 65 -16c24 0 44.833 5.5 62.5 16.5s32.834 23.833 45.501 38.5s22.834 29.5 30.501 44.5s13.167 26.833 16.5 35.5c48 -0.666992 88.833 -9 122.5 -25s61.167 -36.667 82.5 -62s36.666 -53.833 45.999 -85.5s13.666 -63.167 12.999 -94.5
c-0.666992 -16 -5.33398 -35.667 -14.001 -59s-22.667 -46.666 -42 -70c60.667 10.667 110.834 23.334 150.501 38c39.667 14.667 72.834 30.667 99.501 48c7.33301 -25.333 13.5 -48 18.5 -68s10.833 -41.667 17.5 -65c-14.667 -15.333 -38.834 -29 -72.501 -41
s-71.5 -22.333 -113.5 -31s-85.167 -15.167 -129.5 -19.5s-84.166 -6.5 -119.499 -6.5h-22z" />
    <glyph glyph-name="maitrilowrightthai" unicode="&#xf70c;" 
d="M-666 2036c23.333 9.33301 43.165 24.167 59.498 44.5s24.5 45.833 24.5 76.5c0.666992 13.333 -1.33301 26.833 -6 40.5s-11.334 26.167 -20.001 37.5s-18.5 21.166 -29.5 29.5c-11 8.33301 -22.5 13.833 -34.5 16.5c-12.667 -21.333 -27.334 -40.666 -44.001 -58
c-14 -14.667 -31.167 -28 -51.5 -40s-43.5 -17.333 -69.5 -16c-26.667 -1.33301 -50.167 4 -70.5 16s-37.833 25.333 -52.5 40c-17.333 17.333 -32 37 -44 59c-15.333 -4.66699 -28.166 -11.667 -38.499 -21s-18.833 -19.833 -25.5 -31.5s-11.334 -24 -14.001 -37
s-3.33398 -25.5 -2.00098 -37.5c0 -23.333 4.5 -43.5 13.5 -60.5s20.5 -31 34.5 -42s29.833 -19.167 47.5 -24.5s35.834 -8 54.501 -8h3v-98c-12.667 -4 -26.667 -6.83301 -42 -8.5s-28.666 -2.5 -39.999 -2.5c-49.333 0 -89.833 8.83301 -121.5 26.5s-56.5 39.5 -74.5 65.5
s-30.333 53.5 -37 82.5s-10 54.833 -10 77.5c0 35.333 5.83301 70.166 17.5 104.5c11.667 34.333 28.834 65.166 51.501 92.5c22.667 27.333 50.334 49.333 83.001 66s69.667 25 111 25c2.66699 -8.66699 7.66699 -20.5 15 -35.5s17.333 -29.667 30 -44s28 -26.833 46 -37.5
s39.667 -16 65 -16c24 0 44.833 5.5 62.5 16.5s32.834 23.833 45.501 38.5s22.834 29.5 30.501 44.5s13.167 26.833 16.5 35.5c48 -0.666992 88.833 -9 122.5 -25s61.167 -36.667 82.5 -62s36.666 -53.833 45.999 -85.5s13.666 -63.167 12.999 -94.5
c-0.666992 -16 -5.33398 -35.667 -14.001 -59s-22.667 -46.666 -42 -70c60.667 10.667 110.834 23.334 150.501 38c39.667 14.667 72.834 30.667 99.501 48c7.33301 -25.333 13.5 -48 18.5 -68s10.833 -41.667 17.5 -65c-14.667 -15.333 -38.834 -29 -72.501 -41
s-71.5 -22.333 -113.5 -31s-85.167 -15.167 -129.5 -19.5s-84.166 -6.5 -119.499 -6.5h-22z" />
    <glyph glyph-name="maichattawalowrightthai" 
d="M-786 2260h243v176h193v-176h241v-168h-241v-172h-193v172h-243v168z" />
    <glyph glyph-name="maichattawalowrightthai" unicode="&#xf70d;" 
d="M-786 2260h243v176h193v-176h241v-168h-241v-172h-193v172h-243v168z" />
    <glyph glyph-name="thanthakhatlowrightthai" 
d="M-191 2250c-14.667 1.33301 -25.998 2.00098 -33.998 2.00098h-32c-74.667 0 -134.834 -11.5 -180.501 -34.5s-72.834 -60.833 -81.501 -113.5v1c-2 -10 -3.16699 -19.167 -3.5 -27.5s0.333984 -16.833 2.00098 -25.5s4.33398 -17.834 8.00098 -27.501
s8.83398 -20.834 15.501 -33.501c-33.333 -15.333 -65.666 -29 -96.999 -41s-63 -25 -95 -39c-16 26 -29.833 58.333 -41.5 97s-16.167 79.334 -13.5 122.001v-1c3.33301 42.667 17.166 79.667 41.499 111s56.166 57.333 95.499 78s84.166 36 134.499 46
s103.166 15 158.499 15c45.333 0 93 -3 143 -9z" />
    <glyph glyph-name="thanthakhatlowrightthai" unicode="&#xf70e;" 
d="M-191 2250c-14.667 1.33301 -25.998 2.00098 -33.998 2.00098h-32c-74.667 0 -134.834 -11.5 -180.501 -34.5s-72.834 -60.833 -81.501 -113.5v1c-2 -10 -3.16699 -19.167 -3.5 -27.5s0.333984 -16.833 2.00098 -25.5s4.33398 -17.834 8.00098 -27.501
s8.83398 -20.834 15.501 -33.501c-33.333 -15.333 -65.666 -29 -96.999 -41s-63 -25 -95 -39c-16 26 -29.833 58.333 -41.5 97s-16.167 79.334 -13.5 122.001v-1c3.33301 42.667 17.166 79.667 41.499 111s56.166 57.333 95.499 78s84.166 36 134.499 46
s103.166 15 158.499 15c45.333 0 93 -3 143 -9z" />
    <glyph glyph-name="maihanakatleftthai" 
d="M-1484 2224c12 -23.333 26.6689 -44.001 44.002 -62.001s38.5 -33.333 63.5 -46s54.333 -22.5 88 -29.5s73.167 -10.5 118.5 -10.5c70.667 -0.666992 140 2.83301 208 10.5s134.667 24.167 200 49.5l22 -92.5l22 -89.5c-38 -13.333 -76.167 -24.166 -114.5 -32.499
s-78.833 -14.833 -121.5 -19.5s-88.834 -7.66699 -138.501 -9s-104.834 -2 -165.501 -2h-41c-99.333 0.666992 -184.333 20.667 -255 60s-123 94.333 -157 165z" />
    <glyph glyph-name="maihanakatleftthai" unicode="&#xf710;" 
d="M-1484 2224c12 -23.333 26.6689 -44.001 44.002 -62.001s38.5 -33.333 63.5 -46s54.333 -22.5 88 -29.5s73.167 -10.5 118.5 -10.5c70.667 -0.666992 140 2.83301 208 10.5s134.667 24.167 200 49.5l22 -92.5l22 -89.5c-38 -13.333 -76.167 -24.166 -114.5 -32.499
s-78.833 -14.833 -121.5 -19.5s-88.834 -7.66699 -138.501 -9s-104.834 -2 -165.501 -2h-41c-99.333 0.666992 -184.333 20.667 -255 60s-123 94.333 -157 165z" />
    <glyph glyph-name="nikhahitleftthai" 
d="M-1274 2125c0 38.667 7.33301 75 22 109s34.834 63.833 60.501 89.5s55.5 45.834 89.5 60.5c34 14.667 70.333 22 109 22s75 -7.33301 109 -22s63.833 -34.834 89.5 -60.5c25.667 -25.667 45.834 -55.5 60.501 -89.5s22 -70.333 22 -109s-7.33301 -75 -22 -109
s-34.834 -63.833 -60.501 -89.5s-55.5 -45.834 -89.5 -60.501s-70.333 -22 -109 -22s-75 7.33301 -109 22s-63.833 34.834 -89.5 60.501s-45.834 55.5 -60.501 89.5s-22 70.333 -22 109zM-1130 2125c0 -19.333 3.5 -37.168 10.5 -53.501s16.833 -30.833 29.5 -43.5
s27.167 -22.5 43.5 -29.5s34.166 -10.5 53.499 -10.5c18.667 0 36.334 3.5 53.001 10.5s31.334 16.833 44.001 29.5s22.5 27.167 29.5 43.501c7 16.333 10.5 34.166 10.5 53.5c0 18.667 -3.5 36.334 -10.5 53c-7 16.667 -16.833 31.334 -29.5 44
c-12.667 12.667 -27.334 22.5 -44.001 29.5s-34.334 10.5 -53.001 10.5c-19.333 0 -37.166 -3.5 -53.499 -10.5s-30.833 -16.833 -43.5 -29.5s-22.5 -27.334 -29.5 -44c-7 -16.667 -10.5 -34.334 -10.5 -53z" />
    <glyph glyph-name="nikhahitleftthai" unicode="&#xf711;" 
d="M-1274 2125c0 38.667 7.33301 75 22 109s34.834 63.833 60.501 89.5s55.5 45.834 89.5 60.5c34 14.667 70.333 22 109 22s75 -7.33301 109 -22s63.833 -34.834 89.5 -60.5c25.667 -25.667 45.834 -55.5 60.501 -89.5s22 -70.333 22 -109s-7.33301 -75 -22 -109
s-34.834 -63.833 -60.501 -89.5s-55.5 -45.834 -89.5 -60.501s-70.333 -22 -109 -22s-75 7.33301 -109 22s-63.833 34.834 -89.5 60.501s-45.834 55.5 -60.501 89.5s-22 70.333 -22 109zM-1130 2125c0 -19.333 3.5 -37.168 10.5 -53.501s16.833 -30.833 29.5 -43.5
s27.167 -22.5 43.5 -29.5s34.166 -10.5 53.499 -10.5c18.667 0 36.334 3.5 53.001 10.5s31.334 16.833 44.001 29.5s22.5 27.167 29.5 43.501c7 16.333 10.5 34.166 10.5 53.5c0 18.667 -3.5 36.334 -10.5 53c-7 16.667 -16.833 31.334 -29.5 44
c-12.667 12.667 -27.334 22.5 -44.001 29.5s-34.334 10.5 -53.001 10.5c-19.333 0 -37.166 -3.5 -53.499 -10.5s-30.833 -16.833 -43.5 -29.5s-22.5 -27.334 -29.5 -44c-7 -16.667 -10.5 -34.334 -10.5 -53z" />
    <glyph glyph-name="maitaikhuleftthai" 
d="M-799 2154c-2 -29.333 -7.99707 -58.502 -17.9971 -87.502s-25.167 -55.5 -45.5 -79.5s-46.333 -44.167 -78 -60.5s-70.167 -26.833 -115.5 -31.5c-4.66699 8.66699 -11.834 20.167 -21.501 34.5s-21.334 28.5 -35.001 42.5s-29.167 25.833 -46.5 35.5
s-36.333 14.5 -57 14.5c-25.333 -0.666992 -47.333 -6 -66 -16s-34.5 -21.667 -47.5 -35s-23.5 -27.166 -31.5 -41.499s-14 -25.833 -18 -34.5c-50 4.66699 -93 15.834 -129 33.501s-65.5 39.5 -88.5 65.5s-40 54.667 -51 86s-16.5 62.666 -16.5 94
c0 29.333 5.83301 59.666 17.5 91c11.667 31.333 30.167 59.833 55.5 85.5s57.833 46.667 97.5 63s87.5 24.5 143.5 24.5h650v-145h-663c-44 0 -76.667 -10.833 -98 -32.5s-32 -50.5 -32 -86.5c0 -17.333 2.66699 -32.5 8 -45.5s12.833 -24.333 22.5 -34
s21.167 -17.834 34.5 -24.5c13.333 -6.66699 28 -12.667 44 -18c8.66699 20.667 21 39.334 37 56c13.333 14 31 26.833 53 38.5s49 17.5 81 17.5c20 0.666992 38.833 -2 56.5 -8s33.667 -14.167 48 -24.5s27.166 -22.333 38.499 -36s20.333 -27.834 27 -42.5
c30 10.667 50.833 23.334 62.5 38c11.667 14.667 18.167 35.667 19.5 63h162z" />
    <glyph glyph-name="maitaikhuleftthai" unicode="&#xf712;" 
d="M-799 2154c-2 -29.333 -7.99707 -58.502 -17.9971 -87.502s-25.167 -55.5 -45.5 -79.5s-46.333 -44.167 -78 -60.5s-70.167 -26.833 -115.5 -31.5c-4.66699 8.66699 -11.834 20.167 -21.501 34.5s-21.334 28.5 -35.001 42.5s-29.167 25.833 -46.5 35.5
s-36.333 14.5 -57 14.5c-25.333 -0.666992 -47.333 -6 -66 -16s-34.5 -21.667 -47.5 -35s-23.5 -27.166 -31.5 -41.499s-14 -25.833 -18 -34.5c-50 4.66699 -93 15.834 -129 33.501s-65.5 39.5 -88.5 65.5s-40 54.667 -51 86s-16.5 62.666 -16.5 94
c0 29.333 5.83301 59.666 17.5 91c11.667 31.333 30.167 59.833 55.5 85.5s57.833 46.667 97.5 63s87.5 24.5 143.5 24.5h650v-145h-663c-44 0 -76.667 -10.833 -98 -32.5s-32 -50.5 -32 -86.5c0 -17.333 2.66699 -32.5 8 -45.5s12.833 -24.333 22.5 -34
s21.167 -17.834 34.5 -24.5c13.333 -6.66699 28 -12.667 44 -18c8.66699 20.667 21 39.334 37 56c13.333 14 31 26.833 53 38.5s49 17.5 81 17.5c20 0.666992 38.833 -2 56.5 -8s33.667 -14.167 48 -24.5s27.166 -22.333 38.499 -36s20.333 -27.834 27 -42.5
c30 10.667 50.833 23.334 62.5 38c11.667 14.667 18.167 35.667 19.5 63h162z" />
    <glyph glyph-name="maiekupperleftthai" 
d="M-790 2574h-236v285h236v-285z" />
    <glyph glyph-name="maiekupperleftthai" unicode="&#xf713;" 
d="M-790 2574h-236v285h236v-285z" />
    <glyph glyph-name="maithoupperleftthai" 
d="M-1226 2703c33.333 16.667 57.1641 37.834 71.4971 63.5c14.333 25.667 20.5 50.834 18.5 75.5c-3.33301 22.667 -13.166 38.5 -29.499 47.5s-34.833 13.5 -55.5 13.5c-8.66699 0 -17.167 -0.333008 -25.5 -1s-16.166 -1.66699 -23.499 -3c-2 20 -4.16699 38.667 -6.5 56
s-4.5 35 -6.5 53c10 2.66699 22.333 5.66699 37 9s30.334 6.5 47.001 9.5s33.5 5.5 50.5 7.5s33.167 3 48.5 3c24.667 0 46.667 -3.33301 66 -10s35.666 -15.667 48.999 -27s23.833 -24.666 31.5 -40c7.66699 -15.333 12.167 -31.666 13.5 -49
c1.33301 -10 0.833008 -22.5 -1.5 -37.5s-7.33301 -30.5 -15 -46.5s-17.667 -32 -30 -48s-27.833 -30.333 -46.5 -43c37.333 -1.33301 74.333 -0.833008 111 1.5s73.5 7.33301 110.5 15s74 18.5 111 32.5s74.167 32.333 111.5 55
c12.667 -21.333 24.334 -42.166 35.001 -62.5l33 -60.5c-19.333 -14.667 -42.333 -29.334 -69 -44c-26.667 -14.667 -55.5 -28.167 -86.5 -40.5s-63.167 -23.166 -96.5 -32.5c-33.333 -9.33301 -66.333 -16 -99 -20c-28.667 -2.66699 -58.167 -4.83398 -88.5 -6.5
c-30.333 -1.66699 -59.166 -2.5 -86.499 -2.5c-28 0 -55.833 0.833008 -83.5 2.5s-55.834 4.16699 -84.501 7.5z" />
    <glyph glyph-name="maithoupperleftthai" unicode="&#xf714;" 
d="M-1226 2703c33.333 16.667 57.1641 37.834 71.4971 63.5c14.333 25.667 20.5 50.834 18.5 75.5c-3.33301 22.667 -13.166 38.5 -29.499 47.5s-34.833 13.5 -55.5 13.5c-8.66699 0 -17.167 -0.333008 -25.5 -1s-16.166 -1.66699 -23.499 -3c-2 20 -4.16699 38.667 -6.5 56
s-4.5 35 -6.5 53c10 2.66699 22.333 5.66699 37 9s30.334 6.5 47.001 9.5s33.5 5.5 50.5 7.5s33.167 3 48.5 3c24.667 0 46.667 -3.33301 66 -10s35.666 -15.667 48.999 -27s23.833 -24.666 31.5 -40c7.66699 -15.333 12.167 -31.666 13.5 -49
c1.33301 -10 0.833008 -22.5 -1.5 -37.5s-7.33301 -30.5 -15 -46.5s-17.667 -32 -30 -48s-27.833 -30.333 -46.5 -43c37.333 -1.33301 74.333 -0.833008 111 1.5s73.5 7.33301 110.5 15s74 18.5 111 32.5s74.167 32.333 111.5 55
c12.667 -21.333 24.334 -42.166 35.001 -62.5l33 -60.5c-19.333 -14.667 -42.333 -29.334 -69 -44c-26.667 -14.667 -55.5 -28.167 -86.5 -40.5s-63.167 -23.166 -96.5 -32.5c-33.333 -9.33301 -66.333 -16 -99 -20c-28.667 -2.66699 -58.167 -4.83398 -88.5 -6.5
c-30.333 -1.66699 -59.166 -2.5 -86.499 -2.5c-28 0 -55.833 0.833008 -83.5 2.5s-55.834 4.16699 -84.501 7.5z" />
    <glyph glyph-name="maitriupperleftthai" 
d="M-962 2685c21.333 9.33301 39.334 23.5 54.001 42.5s22 42.5 22 70.5c0.666992 12.667 -1.16602 25.334 -5.49902 38c-4.33301 12.667 -10.333 24.167 -18 34.5s-16.667 19.333 -27 27s-20.833 12.5 -31.5 14.5c-12 -20 -25.667 -37.667 -41 -53
c-13.333 -13.333 -29.333 -25.5 -48 -36.5s-39.667 -16.167 -63 -15.5c-24 -0.666992 -45.167 4.5 -63.5 15.5s-34.166 23.167 -47.499 36.5c-15.333 15.333 -28.666 33 -39.999 53c-16.667 -5.33301 -30.167 -12.5 -40.5 -21.5s-18.333 -18.667 -24 -29
s-9.33398 -21.333 -11.001 -33s-1.83398 -23.167 -0.500977 -34.5c0 -21.333 4 -39.666 12 -55c8 -15.333 18.5 -28 31.5 -38s27.667 -17.5 44 -22.5s33.166 -7.5 50.499 -7.5h1v-88c-11.333 -2.66699 -23.833 -4.83398 -37.5 -6.5
c-13.667 -1.66699 -25.834 -2.5 -36.501 -2.5c-44.667 0 -81.167 8 -109.5 24s-50.5 35.833 -66.5 59.5s-27 48.667 -33 75s-9 49.833 -9 70.5c0 31.333 5.16699 62.666 15.5 94c10.333 31.333 25.5 59.333 45.5 84s44.667 44.834 74 60.5
c29.333 15.667 62.666 23.5 99.999 23.5c2.66699 -8 7.33398 -18.667 14.001 -32s15.834 -26.666 27.501 -40c11.667 -13.333 26 -24.833 43 -34.5s37.167 -14.5 60.5 -14.5c22 0 41.167 4.83301 57.5 14.5s30.333 21.334 42 35c11.667 13.667 21 27.334 28 41
c7 13.667 12.167 24.5 15.5 32.5c42.667 -0.666992 79 -8.33398 109 -23c30 -14.667 54.333 -33.667 73 -57s32.167 -49.333 40.5 -78s12.166 -57.334 11.499 -86c-0.666992 -14.667 -5 -32.667 -13 -54s-20 -43.333 -36 -66c30 5.33301 56.5 10.833 79.5 16.5
s43.5 11.667 61.5 18s34.167 13.166 48.5 20.5c14.333 7.33301 27.833 15.666 40.5 25c6.66699 -23.333 12.167 -43.833 16.5 -61.5s9.83301 -37.5 16.5 -59.5c-14 -13.333 -36.333 -25.5 -67 -36.5s-64.667 -20.167 -102 -27.5s-76 -13 -116 -17s-76 -6 -108 -6h-21z" />
    <glyph glyph-name="maitriupperleftthai" unicode="&#xf715;" 
d="M-962 2685c21.333 9.33301 39.334 23.5 54.001 42.5s22 42.5 22 70.5c0.666992 12.667 -1.16602 25.334 -5.49902 38c-4.33301 12.667 -10.333 24.167 -18 34.5s-16.667 19.333 -27 27s-20.833 12.5 -31.5 14.5c-12 -20 -25.667 -37.667 -41 -53
c-13.333 -13.333 -29.333 -25.5 -48 -36.5s-39.667 -16.167 -63 -15.5c-24 -0.666992 -45.167 4.5 -63.5 15.5s-34.166 23.167 -47.499 36.5c-15.333 15.333 -28.666 33 -39.999 53c-16.667 -5.33301 -30.167 -12.5 -40.5 -21.5s-18.333 -18.667 -24 -29
s-9.33398 -21.333 -11.001 -33s-1.83398 -23.167 -0.500977 -34.5c0 -21.333 4 -39.666 12 -55c8 -15.333 18.5 -28 31.5 -38s27.667 -17.5 44 -22.5s33.166 -7.5 50.499 -7.5h1v-88c-11.333 -2.66699 -23.833 -4.83398 -37.5 -6.5
c-13.667 -1.66699 -25.834 -2.5 -36.501 -2.5c-44.667 0 -81.167 8 -109.5 24s-50.5 35.833 -66.5 59.5s-27 48.667 -33 75s-9 49.833 -9 70.5c0 31.333 5.16699 62.666 15.5 94c10.333 31.333 25.5 59.333 45.5 84s44.667 44.834 74 60.5
c29.333 15.667 62.666 23.5 99.999 23.5c2.66699 -8 7.33398 -18.667 14.001 -32s15.834 -26.666 27.501 -40c11.667 -13.333 26 -24.833 43 -34.5s37.167 -14.5 60.5 -14.5c22 0 41.167 4.83301 57.5 14.5s30.333 21.334 42 35c11.667 13.667 21 27.334 28 41
c7 13.667 12.167 24.5 15.5 32.5c42.667 -0.666992 79 -8.33398 109 -23c30 -14.667 54.333 -33.667 73 -57s32.167 -49.333 40.5 -78s12.166 -57.334 11.499 -86c-0.666992 -14.667 -5 -32.667 -13 -54s-20 -43.333 -36 -66c30 5.33301 56.5 10.833 79.5 16.5
s43.5 11.667 61.5 18s34.167 13.166 48.5 20.5c14.333 7.33301 27.833 15.666 40.5 25c6.66699 -23.333 12.167 -43.833 16.5 -61.5s9.83301 -37.5 16.5 -59.5c-14 -13.333 -36.333 -25.5 -67 -36.5s-64.667 -20.167 -102 -27.5s-76 -13 -116 -17s-76 -6 -108 -6h-21z" />
    <glyph glyph-name="maichattawaupperleftthai" 
d="M-1213 2906h243v172h179v-172h241v-164h-241v-169h-179v169h-243v164z" />
    <glyph glyph-name="maichattawaupperleftthai" unicode="&#xf716;" 
d="M-1213 2906h243v172h179v-172h241v-164h-241v-169h-179v169h-243v164z" />
    <glyph glyph-name="thanthakhatupperleftthai" 
d="M-499 2643c-14 1.33301 -24.834 2 -32.501 2h-30.5c-72.667 0 -130.834 -11 -174.501 -33s-69.834 -58.667 -78.501 -110c-3.33301 -18 -3.16602 -35 0.500977 -51s10.834 -35 21.501 -57l-195 -78c-7.33301 12.667 -14.5 27 -21.5 43s-13 33 -18 51s-8.66699 37 -11 57
s-2.83301 40 -1.5 60c2.66699 40.667 16.334 75.834 41.001 105.5c24.667 29.667 56.334 54.334 95.001 74c38.667 19.667 82.667 34.334 132 44c49.333 9.66699 100.666 14.5 153.999 14.5c22 0 44.5 -0.666992 67.5 -2s46.5 -3.33301 70.5 -6z" />
    <glyph glyph-name="thanthakhatupperleftthai" unicode="&#xf717;" 
d="M-499 2643c-14 1.33301 -24.834 2 -32.501 2h-30.5c-72.667 0 -130.834 -11 -174.501 -33s-69.834 -58.667 -78.501 -110c-3.33301 -18 -3.16602 -35 0.500977 -51s10.834 -35 21.501 -57l-195 -78c-7.33301 12.667 -14.5 27 -21.5 43s-13 33 -18 51s-8.66699 37 -11 57
s-2.83301 40 -1.5 60c2.66699 40.667 16.334 75.834 41.001 105.5c24.667 29.667 56.334 54.334 95.001 74c38.667 19.667 82.667 34.334 132 44c49.333 9.66699 100.666 14.5 153.999 14.5c22 0 44.5 -0.666992 67.5 -2s46.5 -3.33301 70.5 -6z" />
    <glyph glyph-name="uni00A0" unicode="&#xa0;" horiz-adv-x="665" 
 />
    <glyph glyph-name="exclamdown" unicode="&#xa1;" horiz-adv-x="974" 
d="M623 1382c0 -22.667 -4.33301 -43.834 -13 -63.501s-20.5 -36.834 -35.5 -51.501s-32.667 -26.167 -53 -34.5s-41.833 -12.5 -64.5 -12.5s-43.834 4.16699 -63.501 12.5s-36.667 19.833 -51 34.5s-25.666 31.834 -33.999 51.501s-12.5 40.834 -12.5 63.501
c0 22 4.16699 42.667 12.5 62s19.666 36.166 33.999 50.499s31.333 25.666 51 33.999s40.834 12.5 63.501 12.5s44.167 -4.16699 64.5 -12.5s38 -19.666 53 -33.999s26.833 -31.166 35.5 -50.499s13 -40 13 -62zM320 -623l43 1651h189l43 -1651h-275z" />
    <glyph glyph-name="cent" unicode="&#xa2;" horiz-adv-x="1678" 
d="M1428 424c-60 -28.667 -121.831 -52.1641 -185.498 -70.4971s-129.834 -30.5 -198.501 -36.5v-317h-184v317c-97.333 6 -183.833 25.167 -259.5 57.5s-139.5 77.166 -191.5 134.499s-91.5 127.666 -118.5 210.999s-40.5 179 -40.5 287
c0 96.667 13.833 184.834 41.5 264.501s67.834 149.167 120.501 208.5s116.667 108.166 192 146.499s160.666 64.833 255.999 79.5v277h184v-271c56.667 -1.33301 116.167 -8.16602 178.5 -20.499s122.833 -29.833 181.5 -52.5l-43 -196
c-52 24.667 -109.167 44.667 -171.5 60s-127.166 23 -194.499 23c-78 0 -148.167 -10.667 -210.5 -32s-115.5 -53.333 -159.5 -96s-77.833 -95.834 -101.5 -159.501s-35.5 -137.834 -35.5 -222.501c0 -72.667 8.66699 -139.667 26 -201s45.666 -114.333 84.999 -159
s90.666 -79.667 153.999 -105s141 -38 233 -38c68.667 0 136.5 8.5 203.5 25.5s127.167 40.833 180.5 71.5l58 -186v0z" />
    <glyph glyph-name="sterling" unicode="&#xa3;" horiz-adv-x="1678" 
d="M229 0l-0.00292969 158.997c48.667 42.667 91.834 83.834 129.501 123.501s69.167 79.334 94.5 119.001s44.666 79.667 57.999 120s20 82.166 20 125.499c0 40 -2.16699 80.167 -6.5 120.5s-10.166 81.5 -17.499 123.5h-336v180h311
c-11.333 61.333 -20.666 122.666 -27.999 183.999s-11 122 -11 182c0 102 13.333 189.333 40 262s64.834 132.167 114.501 178.5s109.834 80.166 180.501 101.499s150 32 238 32c25.333 0 53.166 -1.16699 83.499 -3.5s61.333 -5.66602 93 -9.99902
s63.334 -9.66602 95.001 -15.999s61.167 -13.833 88.5 -22.5l-51 -196c-49.333 17.333 -102.833 32 -160.5 44s-114.167 18 -169.5 18c-108.667 0 -189.834 -31.167 -243.501 -93.5s-80.5 -151.166 -80.5 -266.499c0 -64.667 5 -130 15 -196l31 -198h494v-180h-473
c8 -38 13.667 -76 17 -114s5 -75.333 5 -112c0 -48.667 -5.16699 -93.667 -15.5 -135s-26 -80.666 -47 -117.999s-47 -73.666 -78 -108.999s-67.5 -71.333 -109.5 -108c32 1.33301 69.833 2.66602 113.5 3.99902s90.167 2 139.5 2h693v-201h-1227z" />
    <glyph glyph-name="currency" unicode="&#xa4;" horiz-adv-x="1678" 
d="M1348 198l-246.002 335.999c-42 -28 -87.333 -48.833 -136 -62.5s-99 -20.5 -151 -20.5c-87.333 0 -161.666 15.667 -222.999 47l-222 -300l-166 122l227 281c-40 46 -71 102.167 -93 168.5s-33 145.5 -33 237.5c0 78.667 12.333 150.5 37 215.5
s59.334 121.5 104.001 169.5l-242 298l163 123l231 -315c38 21.333 78.833 36.833 122.5 46.5s89.167 14.5 136.5 14.5c42 0 86 -3.83301 132 -11.5s89.667 -23.167 131 -46.5l235 312l159 -126l-245 -301c31.333 -40 56.5 -89.833 75.5 -149.5s28.5 -131.167 28.5 -214.5
c0 -75.333 -10.833 -144.666 -32.5 -207.999s-52.5 -118 -92.5 -164l266 -327zM1166 1019c0 52 -5.99902 100.333 -17.999 145s-31.5 83.5 -58.5 116.5s-61.833 58.833 -104.5 77.5s-94.334 28 -155.001 28c-45.333 0 -87.166 -8.66699 -125.499 -26
s-71.833 -42.166 -100.5 -74.499s-51 -71.5 -67 -117.5s-24 -97.667 -24 -155c0 -53.333 5.66699 -103.5 17 -150.5s30.166 -88 56.499 -123s60.666 -62.667 102.999 -83s94.5 -30.5 156.5 -30.5c42 0 82.167 9 120.5 27s72.333 44 102 78s53.334 75.167 71.001 123.5
s26.5 103.166 26.5 164.499z" />
    <glyph glyph-name="yen" unicode="&#xa5;" horiz-adv-x="1678" 
d="M1007 876h457.999v-162h-516v-229h516v-162h-516v-323h-232v323h-513v162h513v229h-513v162h458l-543 1107h256l312 -655c30.667 -64.667 57.834 -127.334 81.501 -188.001l67.5 -176h3c24.667 64.667 51.667 129.834 81 195.501l90 192.5l305 631h247z" />
    <glyph glyph-name="brokenbar" unicode="&#xa6;" horiz-adv-x="866" 
d="M342 1169v1123h179v-1123h-179zM342 -760v1153h179v-1153h-179z" />
    <glyph glyph-name="section" unicode="&#xa7;" horiz-adv-x="1575" 
d="M1294 702c0 -83.333 -20.334 -160.831 -61.001 -232.498s-100.667 -136.5 -180 -194.5c35.333 -48 64 -98 86 -150s33 -107.667 33 -167c0 -60 -11 -117.5 -33 -172.5s-55.333 -103.833 -100 -146.5s-100.334 -76.667 -167.001 -102s-144.667 -38 -234 -38
c-32 0 -68.833 3 -110.5 9s-83.167 14.333 -124.5 25l21 195c22.667 -6.66699 43.834 -12.5 63.501 -17.5s38.5 -9 56.5 -12s35.667 -5.33301 53 -7s35 -2.5 53 -2.5c44.667 0 84.667 6.33301 120 19s65 30.167 89 52.5s42.333 49 55 80s19 64.833 19 101.5
c0 42.667 -10 84.5 -30 125.5s-46.167 81.667 -78.5 122s-69.333 81 -111 122l-128 126c-43.667 43 -86.334 87.333 -128.001 133s-78.667 93.667 -111 144s-58.5 103.333 -78.5 159s-30 114.5 -30 176.5c0 82.667 19.833 159.667 59.5 231s100.167 137.666 181.5 198.999
c-36.667 48.667 -66.167 98.834 -88.5 150.501s-33.5 107.5 -33.5 167.5c0 60.667 10.333 118 31 172s52.167 101.167 94.5 141.5s95.5 72.333 159.5 96s139.667 35.5 227 35.5c36 0 73.667 -2.16699 113 -6.5s76 -10.166 110 -17.5l-21 -196c-38 12 -73 20.667 -105 26
s-66.333 8 -103 8c-88.667 0 -155 -21.5 -199 -64.5s-66 -101.833 -66 -176.5c0 -42 10 -83.333 30 -124s46.333 -81.5 79 -122.5s69.834 -82.167 111.501 -123.5l127.5 -127.5c43.333 -43.667 85.833 -88.834 127.5 -135.501s78.834 -95.334 111.501 -146.001
s59 -103.667 79 -159s30 -114 30 -176zM1074 671.002c0 41.333 -6.66992 81.332 -20.0029 119.999s-31.666 76.5 -54.999 113.5s-50.5 73.5 -81.5 109.5s-64 72.167 -99 108.5l-108.5 109.5c-37.333 36.667 -73.666 74.334 -108.999 113.001
c-51.333 -36.667 -88.166 -78.5 -110.499 -125.5s-33.5 -93.5 -33.5 -139.5c0 -60 14.167 -117.833 42.5 -173.5s65 -110.5 110 -164.5s95.667 -108.333 152 -163l169.5 -170c50 35.333 86.333 76.333 109 123s34 93 34 139z" />
    <glyph glyph-name="dieresis" unicode="&#xa8;" horiz-adv-x="1666" 
d="M1242 2005c0 -20.667 -3.83301 -40 -11.5 -58s-18.334 -33.5 -32.001 -46.5s-29.334 -23.333 -47.001 -31s-36.5 -11.5 -56.5 -11.5c-20.667 0 -39.834 3.83301 -57.501 11.5s-33 18 -46 31s-23.333 28.5 -31 46.5s-11.5 37.333 -11.5 58c0 20 3.83301 38.667 11.5 56
s18 32.5 31 45.5s28.333 23.333 46 31s36.834 11.5 57.501 11.5c20 0 38.833 -3.83301 56.5 -11.5s33.334 -18 47.001 -31s24.334 -28.167 32.001 -45.5s11.5 -36 11.5 -56zM668 2005c0 -20.667 -3.83301 -40 -11.5 -58s-18 -33.5 -31 -46.5s-28.5 -23.333 -46.5 -31
s-37.333 -11.5 -58 -11.5c-20 0 -39 3.83301 -57 11.5s-33.5 18 -46.5 31s-23.333 28.5 -31 46.5s-11.5 37.333 -11.5 58c0 20 3.83301 38.667 11.5 56s18 32.5 31 45.5s28.5 23.333 46.5 31s37 11.5 57 11.5c20.667 0 40 -3.83301 58 -11.5s33.5 -18 46.5 -31
s23.333 -28.167 31 -45.5s11.5 -36 11.5 -56z" />
    <glyph glyph-name="copyright" unicode="&#xa9;" horiz-adv-x="2298" 
d="M2160 1025c0 -93.333 -11.998 -183.332 -35.998 -269.999s-58.167 -167.667 -102.5 -243s-97.333 -143.833 -159 -205.5s-130.167 -114.5 -205.5 -158.5s-156.333 -78.167 -243 -102.5s-176.667 -36.5 -270 -36.5c-96.667 0 -188.834 12 -276.501 36
s-169.334 57.667 -245.001 101s-144.167 95.666 -205.5 156.999s-113.5 129.5 -156.5 204.5s-76.333 155.5 -100 241.5s-35.5 176 -35.5 270s12.167 184.5 36.5 271.5s58.5 168 102.5 243s97 143.333 159 205s130.667 114.5 206 158.5s156.5 78 243.5 102s177.5 36 271.5 36
s184.5 -11.833 271.5 -35.5s168 -57.167 243 -100.5s143.333 -95.666 205 -156.999s114.5 -129.333 158.5 -204s78 -155.334 102 -242.001s36 -177 36 -271zM1974 1019c0 76.667 -9.83301 150.498 -29.5 221.498s-47.5 137.5 -83.5 199.5s-79.167 118.667 -129.5 170
s-106.166 95.333 -167.499 132s-127.5 65.167 -198.5 85.5s-144.833 30.5 -221.5 30.5s-150.334 -9.83301 -221.001 -29.5s-136.834 -47.5 -198.501 -83.5s-117.667 -79.167 -168 -129.5s-93.5 -106.333 -129.5 -168s-63.833 -128.167 -83.5 -199.5
s-29.5 -145.666 -29.5 -222.999c0 -76.667 9.83301 -150.667 29.5 -222s47.5 -138 83.5 -200s79.167 -118.667 129.5 -170s106.333 -95.333 168 -132s127.834 -65 198.501 -85s144.334 -30 221.001 -30s150.5 10 221.5 30s137.167 48 198.5 84s117.166 79.333 167.499 130
s93.5 106.834 129.5 168.501s63.833 128 83.5 199s29.5 144.833 29.5 221.5zM1443 533.999c-44 -16.667 -91.834 -29.5 -143.501 -38.5s-103.5 -13.5 -155.5 -13.5c-86 0 -159.333 13.333 -220 40s-110.167 63.5 -148.5 110.5s-66.333 102.5 -84 166.5
s-26.5 133.333 -26.5 208c0 72.667 9.33301 142.5 28 209.5s49 126.333 91 178s96.667 93 164 124s150 46.5 248 46.5c44 0 85.667 -3.33301 125 -10s76 -15.334 110 -26.001l-18 -171c-32.667 15.333 -68.667 27.333 -108 36s-79.666 13 -120.999 13
c-58.667 0 -108.167 -10 -148.5 -30s-72.833 -47.667 -97.5 -83s-42.334 -76.833 -53.001 -124.5s-16 -98.834 -16 -153.501c0 -58 5.83301 -109.667 17.5 -155s29.834 -83.666 54.501 -114.999s56.167 -55.166 94.5 -71.499s83.833 -24.5 136.5 -24.5
c90.667 0 174 15.333 250 46z" />
    <glyph glyph-name="ordfeminine" unicode="&#xaa;" horiz-adv-x="1169" 
d="M751 1071c0 23.333 1.49707 49.6699 4.49707 79.0029s7.5 58 13.5 86l-6 3c-9.33301 -24.667 -24.166 -48.5 -44.499 -71.5s-44.333 -43.5 -72 -61.5s-58 -32.333 -91 -43s-66.833 -16 -101.5 -16c-51.333 0 -95.5 6.33301 -132.5 19s-67.5 30.167 -91.5 52.5
s-41.833 49 -53.5 80s-17.5 64.833 -17.5 101.5c0 54 13 103.333 39 148s64.333 83 115 115s113 56.667 187 74s158.667 26 254 26v58c0 20.667 -2.16699 42.667 -6.5 66s-13.833 44.666 -28.5 63.999s-35.5 35.5 -62.5 48.5s-62.833 19.5 -107.5 19.5
c-58 0 -114.333 -7 -169 -21s-104 -33.333 -148 -58l-15 180c48.667 20 104.334 35.167 167.001 45.5s127 15.5 193 15.5c71.333 0 130.833 -9.33301 178.5 -28s85.834 -43.5 114.501 -74.5s49 -66.333 61 -106s18 -80.834 18 -123.501
c0 -43.333 -0.166992 -85.5 -0.5 -126.5s-0.666016 -79.333 -0.999023 -115s-0.666016 -68 -0.999023 -97s-0.5 -53.5 -0.5 -73.5c0 -40.667 0.166992 -75.5 0.5 -104.5s0.666016 -53.833 0.999023 -74.5s0.666016 -37.834 0.999023 -51.501s0.5 -25.5 0.5 -35.5h-198z
M182.997 687.004v182h852v-182h-852zM753.997 1526c-72 0 -133.335 -4.49902 -184.002 -13.499s-92 -22 -124 -39s-55.333 -37.5 -70 -61.5s-22 -51 -22 -81c0 -36.667 12.333 -66.334 37 -89.001s59.334 -34 104.001 -34c46 0 85.5 11 118.5 33s59.833 48.333 80.5 79
s35.834 62.5 45.501 95.5s14.5 60.5 14.5 82.5v28z" />
    <glyph glyph-name="guillemotleft" unicode="&#xab;" horiz-adv-x="1523" 
d="M1114 370l-379 524l382 534l167 -94l-313 -437l313 -430zM531 367l-351 527l354 540l168 -94l-290 -443l293 -433z" />
    <glyph glyph-name="logicalnot" unicode="&#xac;" horiz-adv-x="1678" 
d="M1264 323v489h-1133v192h1331v-681h-198z" />
    <glyph glyph-name="registered" unicode="&#xae;" horiz-adv-x="1715" 
d="M1511 1611c0 -59.333 -8.00195 -116.669 -24.002 -172.002s-38.333 -107.333 -67 -156s-63 -92.834 -103 -132.501s-84.333 -73.834 -133 -102.501s-100.667 -50.834 -156 -66.501s-112.333 -23.5 -171 -23.5c-93.333 0 -179.833 16.833 -259.5 50.5
s-149 79.834 -208 138.501s-105.167 127.834 -138.5 207.501s-50 165.167 -50 256.5c0 60 7.83301 117.833 23.5 173.5s37.667 107.667 66 156s62.5 92.333 102.5 132s84.333 73.667 133 102s100.834 50.333 156.501 66s113.834 23.5 174.501 23.5
c61.333 0 120 -7.5 176 -22.5s108.167 -36.5 156.5 -64.5s92.333 -61.667 132 -101s73.5 -83.166 101.5 -131.499s49.667 -100.666 65 -156.999s23 -115.166 23 -176.499zM1348 1605c0 68.667 -12.833 133.667 -38.5 195s-60.667 115 -105 161s-96.333 82.5 -156 109.5
s-123.5 40.5 -191.5 40.5c-68.667 0 -133 -13 -193 -39s-112.333 -61.333 -157 -106s-79.834 -97 -105.501 -157s-38.5 -124 -38.5 -192c0 -68.667 12.833 -133.667 38.5 -195s60.834 -115 105.501 -161s97 -82.5 157 -109.5s124.333 -40.5 193 -40.5
c68 0 131.833 13 191.5 39s111.667 61.5 156 106.5s79.333 97.333 105 157s38.5 123.5 38.5 191.5zM963.998 1264l-179.999 300.998h-9v-301h-134v701h225c42 0 78 -4.16699 108 -12.5s54.5 -20.333 73.5 -36s32.833 -34.667 41.5 -57s13 -47.166 13 -74.499
c0 -58 -15.5 -104.167 -46.5 -138.5s-73.5 -55.166 -127.5 -62.499c7.33301 -9.33301 16.666 -22.5 27.999 -39.5l36 -55.5l140 -225h-168zM960.999 1767c0 32 -8.5 55.834 -25.5 71.501s-46.833 23.5 -89.5 23.5h-71v-208h46c26 0 47.833 3.5 65.5 10.5s32 15.833 43 26.5
s19 22.667 24 36s7.5 26.666 7.5 39.999z" />
    <glyph glyph-name="macron" unicode="&#xaf;" horiz-adv-x="1205" 
d="M229 1901v174h748v-174h-748z" />
    <glyph glyph-name="degree" unicode="&#xb0;" horiz-adv-x="1132" 
d="M949 1871c0 -58 -11.335 -110.167 -34.002 -156.5s-52.667 -85.833 -90 -118.5s-80 -57.667 -128 -75s-97.333 -26 -148 -26c-57.333 0 -109 8.66699 -155 26s-85 42 -117 74s-56.667 70.5 -74 115.5s-26 95.5 -26 151.5c0 59.333 11 112.333 33 159
s51.333 86.167 88 118.5s78.5 57 125.5 74s95.167 25.5 144.5 25.5c64.667 0 120.834 -9.83301 168.501 -29.5s87.334 -46.334 119.001 -80c31.667 -33.667 55.167 -72.834 70.5 -117.5c15.333 -44.667 23 -91.667 23 -141zM762.998 1868
c0 24 -3.16504 49.001 -9.49805 75.001s-17.333 49.667 -33 71s-36.334 38.833 -62.001 52.499c-25.667 13.667 -57.834 20.5 -96.501 20.5c-28.667 0 -55.167 -5.33301 -79.5 -16s-45.333 -25.5 -63 -44.5s-31.5 -42 -41.5 -69s-15 -56.833 -15 -89.5
c0 -34.667 4.83301 -65.5 14.5 -92.5s23 -50 40 -69s37.5 -33.5 61.5 -43.5s50.667 -15 80 -15s56.5 5.5 81.5 16.5s46.5 26.167 64.5 45.5s32.167 42.5 42.5 69.5s15.5 56.5 15.5 88.5z" />
    <glyph glyph-name="twosuperior" unicode="&#xb2;" horiz-adv-x="961" 
d="M144 1089l-0.000976562 133.999l243 220c32.667 28.667 59.667 54.5 81 77.5s38.333 44.5 51 64.5s21.334 39.5 26.001 58.5s7 38.833 7 59.5c0 41.333 -13.833 75.5 -41.5 102.5s-67.834 40.5 -120.501 40.5c-13.333 0 -27.833 -1.33301 -43.5 -4
s-31.167 -6.5 -46.5 -11.5s-30.166 -11 -44.499 -18s-27.166 -15.167 -38.499 -24.5l-61 147c40 21.333 83.5 38.833 130.5 52.5s96.167 20.5 147.5 20.5c58 0 107.833 -7.5 149.5 -22.5s76 -35.167 103 -60.5s47 -54.333 60 -87s19.5 -66.334 19.5 -101.001
c0 -29.333 -3.33301 -57.666 -10 -84.999s-17.667 -54.5 -33 -81.5s-35.333 -54.667 -60 -83s-55.334 -58.166 -92.001 -89.499l-162 -140h387v-169h-652z" />
    <glyph glyph-name="threesuperior" unicode="&#xb3;" horiz-adv-x="925" 
d="M751 1355c0 -48 -9.83691 -89.999 -29.5039 -125.999s-47.667 -65.833 -84 -89.5s-80 -41.5 -131 -53.5s-107.833 -18 -170.5 -18c-15.333 0 -31.5 0.5 -48.5 1.5s-34 2.5 -51 4.5s-33.167 4.16699 -48.5 6.5s-29 5.16602 -41 8.49902l27 150
c24.667 -6 51.334 -11.667 80.001 -17s57 -8 85 -8c70 0 120.5 11.667 151.5 35s46.5 55.333 46.5 96c0 30 -5.66699 54.5 -17 73.5s-29.666 33.5 -54.999 43.5s-58 15.833 -98 17.5s-89 -0.166016 -147 -5.49902v134h73c42 0 77.333 3.66699 106 11
s51.834 17.166 69.501 29.499s30.5 26.833 38.5 43.5s12 34.667 12 54c0 16 -3 31.167 -9 45.5s-15.333 27 -28 38s-28.834 19.667 -48.501 26s-43.167 9.5 -70.5 9.5c-30.667 0 -60 -3.5 -88 -10.5s-52.667 -15.833 -74 -26.5l-42 131c34 15.333 72.667 27.333 116 36
s88 13 134 13c54 0 100.5 -6.5 139.5 -19.5s71 -30.333 96 -52s43.333 -46.667 55 -75s17.5 -57.833 17.5 -88.5c0 -52 -11.5 -94.833 -34.5 -128.5s-58.167 -62.167 -105.5 -85.5c28 -4 52.833 -12 74.5 -24s39.834 -27.167 54.501 -45.5s25.834 -39 33.501 -62
s11.5 -47.167 11.5 -72.5z" />
    <glyph glyph-name="acute" unicode="&#xb4;" horiz-adv-x="1181" 
d="M412 1754l-107 120l391 384l137 -150z" />
    <glyph glyph-name="mu" unicode="&#xb5;" horiz-adv-x="1910" 
d="M1834 204c-12 -32 -28.3311 -62.1641 -48.998 -90.4971s-45 -53 -73 -74s-59.667 -37.5 -95 -49.5s-74 -18 -116 -18c-48.667 0 -88.334 10.167 -119.001 30.5s-54 47 -70 80s-25 70.167 -27 111.5s1 83.333 9 126h-3c-19.333 -51.333 -45.333 -98 -78 -140
s-70.667 -78.333 -114 -109s-90.833 -54.334 -142.5 -71.001s-106.167 -25 -163.5 -25c-67.333 0 -126 8.33301 -176 25s-92 41 -126 73l34 -833h-241v2277h229v-958c0 -60.667 4.83301 -115.334 14.5 -164.001s26.5 -90 50.5 -124s56 -60.167 96 -78.5s90 -27.5 150 -27.5
c62 0 119.5 15 172.5 45s99.167 70.833 138.5 122.5s70.166 111.667 92.499 180s33.5 140.5 33.5 216.5v788h228v-1093c0 -50 1.83301 -91.333 5.5 -124s9.33398 -58.5 17.001 -77.5s17.5 -32.333 29.5 -40s26.333 -11.5 43 -11.5c16 0 31 3.33301 45 10
s26.667 15.5 38 26.5s21.666 23.667 30.999 38s17 29.166 23 44.499l113 -86v0z" />
    <glyph glyph-name="paragraph" unicode="&#xb6;" horiz-adv-x="1737" 
d="M1318 1886v-2179h-442v174h229v2179h433v-174h-220zM876 775c-112 -0.666992 -209.499 16.168 -292.499 50.501s-151.833 81.166 -206.5 140.499s-95.5 128.5 -122.5 207.5s-40.5 162.833 -40.5 251.5c0 90 15.833 173.667 47.5 251s76.5 144.5 134.5 201.5
s127.667 101.667 209 134s171.666 48.5 270.999 48.5v-1285z" />
    <glyph glyph-name="periodcentered" unicode="&#xb7;" horiz-adv-x="671" 
d="M510 907c0 -24.667 -4.5 -47.667 -13.5 -69s-21.333 -39.833 -37 -55.5s-34 -28 -55 -37s-43.833 -13.5 -68.5 -13.5s-47.5 4.5 -68.5 13.5s-39.333 21.333 -55 37s-28 34.167 -37 55.5s-13.5 44.333 -13.5 69c0 24 4.5 46.667 13.5 68s21.333 39.666 37 54.999
s34 27.5 55 36.5s43.833 13.5 68.5 13.5s47.5 -4.5 68.5 -13.5s39.333 -21.167 55 -36.5s28 -33.666 37 -54.999s13.5 -44 13.5 -68z" />
    <glyph glyph-name="cedilla" unicode="&#xb8;" horiz-adv-x="1220" 
d="M790 -125c38.667 -49.333 65.166 -98.332 79.499 -146.999s17.833 -97.5 10.5 -146.5s-24.5 -98.333 -51.5 -148s-62.167 -99.834 -105.5 -150.501h-192c41.333 50.667 74.333 97.5 99 140.5s39.834 84.333 45.501 124s1.66699 79 -12 118s-38.5 80.167 -74.5 123.5
l201 86v0z" />
    <glyph glyph-name="onesuperior" unicode="&#xb9;" horiz-adv-x="931" 
d="M409 1089v724l-220 -104l-49 149l287 125h180v-894h-198z" />
    <glyph glyph-name="ordmasculine" unicode="&#xba;" horiz-adv-x="1272" 
d="M1102 1584c0 -80 -12.166 -152.832 -36.499 -218.499s-58.5 -121.834 -102.5 -168.501s-96.5 -82.834 -157.5 -108.501s-128.167 -38.5 -201.5 -38.5c-67.333 0 -128.5 9.33301 -183.5 28s-102 48.834 -141 90.501s-69.333 95.5 -91 161.5s-32.5 146.333 -32.5 241
c0 74.667 12 143.5 36 206.5s57.333 117.333 100 163s93.667 81.167 153 106.5s124.666 38 195.999 38c35.333 0 71.333 -3 108 -9s72.167 -16.5 106.5 -31.5s66.5 -34.833 96.5 -59.5s56 -55.5 78 -92.5s39.5 -81 52.5 -132s19.5 -109.833 19.5 -176.5zM201.001 687.001
v182h858v-182h-858zM888.001 1584c0 40.667 -4 80.498 -12 119.498s-21.833 73.833 -41.5 104.5s-46 55.334 -79 74.001s-74.167 28 -123.5 28c-32.667 0 -64.667 -6.16699 -96 -18.5s-59.333 -32 -84 -59s-44.5 -62 -59.5 -105s-22.5 -95.167 -22.5 -156.5
c0 -41.333 3.5 -82.166 10.5 -122.499s19.833 -76.833 38.5 -109.5s44.167 -59 76.5 -79s73.5 -30 123.5 -30c38.667 0 74.5 6.83301 107.5 20.5s61.5 35 85.5 64s42.667 65.667 56 110s20 97.5 20 159.5z" />
    <glyph glyph-name="guillemotright" unicode="&#xbb;" horiz-adv-x="1523" 
d="M986 367l-168 93l293 440l-290 437l174 97l347 -531zM403 370l-165 94l314 436l-311 431l171 97l375 -525z" />
    <glyph glyph-name="onequarter" unicode="&#xbc;" horiz-adv-x="2136" 
d="M1605 757l-265 -431h265v431zM1791 177v-177h-186v177h-442l-10 134l358 583h280v-568h165v-149h-165zM320 -61l-152 106l1513 1993l153 -106zM409 1089v724l-220 -104l-49 149l287 125h180v-894h-198z" />
    <glyph glyph-name="onehalf" unicode="&#xbd;" horiz-adv-x="2152" 
d="M1288 0l-0.00292969 133.997l244 220c32.667 28.667 59.834 54.334 81.501 77.001s38.834 43.834 51.501 63.501s21.5 38.667 26.5 57s7.5 37.833 7.5 58.5s-3.66699 40 -11 58s-18 33.5 -32 46.5s-31.167 23.333 -51.5 31s-43.5 11.5 -69.5 11.5
c-14 0 -28.667 -1.5 -44 -4.5s-30.666 -7.16699 -45.999 -12.5s-30 -11.833 -44 -19.5s-26.333 -15.834 -37 -24.501l-64 150c40 21.333 83.667 38.333 131 51s96.333 19 147 19c58 0 107.833 -7.66699 149.5 -23s76 -35.5 103 -60.5s47 -53.667 60 -86
s19.5 -65.5 19.5 -99.5c0 -29.333 -3.33301 -57.5 -10 -84.5s-17.5 -54.167 -32.5 -81.5s-34.667 -55.166 -59 -83.499s-54.5 -58.166 -90.5 -89.499l-165 -143h391v-165h-656zM319.997 -61.0029l-152 106l1513 1993l150 -106zM408.997 1089v724l-220 -104l-49 149l287 125
h180v-894h-198z" />
    <glyph glyph-name="threequarters" unicode="&#xbe;" horiz-adv-x="2136" 
d="M1605 757l-265 -431h265v431zM1791 177v-177h-186v177h-442l-10 134l358 583h280v-568h165v-149h-165zM320 -61l-149 106l1510 1993l153 -106zM754 1355c0 -48 -9.66797 -90.166 -29.001 -126.499s-47 -66.5 -83 -90.5s-79.333 -42.167 -130 -54.5
s-107.334 -18.5 -170.001 -18.5c-16 0 -32.833 0.5 -50.5 1.5s-35 2.5 -52 4.5s-33.167 4.16699 -48.5 6.5s-29 5.16602 -41 8.49902l30 150c23.333 -6.66699 49.666 -12.5 78.999 -17.5s58 -7.5 86 -7.5c68.667 0 118.834 12.167 150.501 36.5s47.5 56.833 47.5 97.5
c0 30 -5.83301 54.5 -17.5 73.5s-30.334 33.5 -56.001 43.5s-58.667 15.833 -99 17.5s-89.5 -0.166016 -147.5 -5.49902v134h73c42 0 77.333 3.66699 106 11s51.834 17.166 69.501 29.499s30.334 26.833 38.001 43.5s11.5 34.667 11.5 54c0 16 -2.83301 31.167 -8.5 45.5
s-14.5 27 -26.5 38s-27.833 19.667 -47.5 26s-43.5 9.5 -71.5 9.5c-30 0 -58.667 -3.5 -86 -10.5s-51.666 -15.833 -72.999 -26.5l-46 131c34 15.333 72.667 27.333 116 36s89 13 137 13c54 0 100.333 -6.5 139 -19.5s70.334 -30.333 95.001 -52s42.667 -46.667 54 -75
s17 -57.833 17 -88.5c0 -52 -11.167 -94.833 -33.5 -128.5s-57.833 -62.167 -106.5 -85.5c28.667 -4 54 -12 76 -24s40.167 -27.167 54.5 -45.5s25.166 -39 32.499 -62s11 -47.167 11 -72.5z" />
    <glyph glyph-name="questiondown" unicode="&#xbf;" horiz-adv-x="1352" 
d="M933 1382c0 -22.667 -4.33301 -43.834 -13 -63.501s-20.334 -36.834 -35.001 -51.501s-32 -26.167 -52 -34.5s-41.333 -12.5 -64 -12.5c-23.333 0 -44.833 4.16699 -64.5 12.5s-36.667 19.833 -51 34.5s-25.666 31.834 -33.999 51.501s-12.5 40.834 -12.5 63.501
c0 22 4.16699 42.667 12.5 62s19.666 36.166 33.999 50.499s31.333 25.666 51 33.999s41.167 12.5 64.5 12.5c22.667 0 44 -4.16699 64 -12.5s37.333 -19.666 52 -33.999s26.334 -31.166 35.001 -50.499s13 -40 13 -62zM1047 -641
c-131.333 4.66699 -249.502 23.3301 -354.502 55.9971s-194.167 75.334 -267.5 128.001s-129.5 112.834 -168.5 180.501s-58.5 138.5 -58.5 212.5c0 62.667 9 118.334 27 167.001s41.167 93 69.5 133s60 77 95 111l104 102c34.333 34 66.333 69.5 96 106.5
s53.334 78.167 71.001 123.5s27.334 96.333 29.001 153s-8.5 122 -30.5 196h226c24 -77.333 36.167 -146.333 36.5 -207s-7.5 -115.667 -23.5 -165s-38 -94 -66 -134s-58.667 -77.667 -92 -113l-101 -102.5c-34 -33 -65 -67 -93 -102s-50.833 -72.167 -68.5 -111.5
s-26.5 -83.333 -26.5 -132c0 -52 14.667 -101 44 -147s71.333 -86.5 126 -121.5s120.5 -63.333 197.5 -85s163.167 -34.5 258.5 -38.5z" />
    <glyph glyph-name="Agrave" unicode="&#xc0;" horiz-adv-x="1865" 
d="M1559 0l-180 507h-915l-183 -507h-242l766 2060h254l766 -2060h-266zM1016 1523l-50 143c-15.333 45.333 -29 90.333 -41 135h-6c-12.667 -44.667 -26.167 -89.5 -40.5 -134.5s-30.5 -91.833 -48.5 -140.5l-302 -833h787zM1041 2225l-550 173l74 186l524 -225z" />
    <glyph glyph-name="Aacute" unicode="&#xc1;" horiz-adv-x="1865" 
d="M1559 0l-180 507h-915l-183 -507h-242l766 2060h254l766 -2060h-266zM1016 1523l-50 143c-15.333 45.333 -29 90.333 -41 135h-6c-12.667 -44.667 -26.167 -89.5 -40.5 -134.5s-30.5 -91.833 -48.5 -140.5l-302 -833h787zM793 2225l-49 134l522 225l74 -186z" />
    <glyph glyph-name="Acircumflex" unicode="&#xc2;" horiz-adv-x="1865" 
d="M1559 0l-180 507h-915l-183 -507h-242l766 2060h254l766 -2060h-266zM1016 1523l-50 143c-15.333 45.333 -29 90.333 -41 135h-6c-12.667 -44.667 -26.167 -89.5 -40.5 -134.5s-30.5 -91.833 -48.5 -140.5l-302 -833h787zM1328 2219l-412 195l-397 -195l-68 131l474 256
l479 -247z" />
    <glyph glyph-name="Atilde" unicode="&#xc3;" horiz-adv-x="1865" 
d="M1559 0l-180 507h-915l-183 -507h-242l766 2060h254l766 -2060h-266zM1016 1523l-50 143c-15.333 45.333 -29 90.333 -41 135h-6c-12.667 -44.667 -26.167 -89.5 -40.5 -134.5s-30.5 -91.833 -48.5 -140.5l-302 -833h787zM1459 2466
c-40 -69.333 -87.333 -122.333 -142 -159s-116.334 -55 -185.001 -55c-34 0 -64.5 4 -91.5 12s-51.833 18.167 -74.5 30.5s-43.834 25.666 -63.501 40c-19.667 14.333 -39 27.666 -58 40c-19 12.333 -38.333 22.5 -58 30.5s-40.834 12 -63.501 12
c-35.333 0 -69.666 -11.833 -102.999 -35.5s-64 -58.5 -92 -104.5l-122 88c38 68.667 84.667 121.334 140 158c55.333 36.667 117.333 55 186 55c34 0 64.5 -4 91.5 -12s51.833 -18.167 74.5 -30.5s43.834 -25.5 63.501 -39.5l58 -39.5c19 -12.333 38.333 -22.5 58 -30.5
s40.834 -12 63.501 -12c70.667 0 136 46.667 196 140z" />
    <glyph glyph-name="Adieresis" unicode="&#xc4;" horiz-adv-x="1865" 
d="M1559 0l-180 507h-915l-183 -507h-242l766 2060h254l766 -2060h-266zM1016 1523l-50 143c-15.333 45.333 -29 90.333 -41 135h-6c-12.667 -44.667 -26.167 -89.5 -40.5 -134.5s-30.5 -91.833 -48.5 -140.5l-302 -833h787zM1389 2377c0 -20 -3.66699 -38.5 -11 -55.5
s-17.166 -31.833 -29.499 -44.5s-27.166 -22.667 -44.499 -30s-36 -11 -56 -11c-19.333 0 -37.166 3.66699 -53.499 11s-30.833 17.333 -43.5 30s-22.5 27.5 -29.5 44.5s-10.5 35.5 -10.5 55.5s3.5 38.5 10.5 55.5s16.833 31.667 29.5 44s27.167 22.166 43.5 29.5
c16.333 7.33301 34.166 11 53.499 11c20 0 38.667 -3.66699 56 -11s32.166 -17.166 44.499 -29.5c12.333 -12.333 22.166 -27 29.499 -44s11 -35.5 11 -55.5zM738 2377c0 -20 -3.66699 -38.5 -11 -55.5s-17.166 -31.833 -29.499 -44.5s-27 -22.667 -44 -30
s-35.5 -11 -55.5 -11c-19.333 0 -37.333 3.66699 -54 11s-31.334 17.333 -44.001 30s-22.5 27.5 -29.5 44.5s-10.5 35.5 -10.5 55.5s3.5 38.5 10.5 55.5s16.833 31.667 29.5 44s27.334 22.166 44.001 29.5c16.667 7.33301 34.667 11 54 11c20 0 38.5 -3.66699 55.5 -11
s31.667 -17.166 44 -29.5c12.333 -12.333 22.166 -27 29.499 -44s11 -35.5 11 -55.5z" />
    <glyph glyph-name="Aring" unicode="&#xc5;" horiz-adv-x="1865" 
d="M1559 0l-180.002 507.001h-915l-183 -507h-242l733 1971c-49.333 23.333 -89.166 58.166 -119.499 104.499s-45.5 100.833 -45.5 163.5c0 46 8.66699 88.667 26 128s41 73.333 71 102s65 51.167 105 67.5s82.333 24.5 127 24.5c46.667 0 90.167 -8.16699 130.5 -24.5
s75.166 -38.833 104.499 -67.5s52.5 -62.667 69.5 -102s25.5 -82 25.5 -128c0 -28.667 -4.16699 -56.667 -12.5 -84s-20.166 -52.833 -35.499 -76.5s-33.666 -45 -54.999 -64s-45 -34.5 -71 -46.5l733 -1968h-266zM1108 2239c0 24.667 -4.33301 47.835 -13 69.501
c-8.66699 21.667 -20.667 40.5 -36 56.5s-33.5 28.667 -54.5 38s-43.833 14 -68.5 14c-24 0 -46.5 -4.66699 -67.5 -14s-39 -22 -54 -38s-26.833 -34.833 -35.5 -56.5s-13 -44.834 -13 -69.501c0 -24 4.33301 -46.667 13 -68s20.5 -40 35.5 -56s33 -28.667 54 -38
s43.5 -14 67.5 -14c24.667 0 47.5 4.66699 68.5 14s39.167 22 54.5 38s27.333 34.667 36 56s13 44 13 68zM1019 1511c-24 48.667 -42.667 97.167 -56 145.5l-38 141.5h-6c-12.667 -46 -26.667 -93.167 -42 -141.5s-32 -96.833 -50 -145.5l-299 -818h787z" />
    <glyph glyph-name="AE" unicode="&#xc6;" horiz-adv-x="2377" 
d="M1105 0v516h-718l-277 -516h-244l1120 2060h1132v-189h-784v-715h753v-189h-753v-772h815v-195h-1044zM1105 1862h-10l-37.5 -80.5l-44 -90l-55 -107l-70.5 -131.5l-409 -751h626v1160z" />
    <glyph glyph-name="Ccedilla" unicode="&#xc7;" horiz-adv-x="1801" 
d="M1660 92c-40 -16.667 -82.665 -31.999 -127.998 -45.999s-92.5 -26 -141.5 -36s-99.667 -17.833 -152 -23.5s-105.166 -8.5 -158.499 -8.5c-159.333 0 -297.333 23.833 -414 71.5s-213.334 115.334 -290.001 203.001s-133.5 193.334 -170.5 317.001
s-55.5 261.5 -55.5 413.5c0 103.333 8.5 202.333 25.5 297s43 182.667 78 264s79.5 155 133.5 221s118 122.5 192 169.5s158.333 83.167 253 108.5s200.667 38 318 38c80 0 161.667 -5.83301 245 -17.5s162.333 -28.167 237 -49.5l-39 -216
c-76.667 25.333 -156 45.833 -238 61.5s-163.333 23.5 -244 23.5c-83.333 0 -158.833 -10.333 -226.5 -31s-127.667 -49.834 -180 -87.501s-97.5 -82.834 -135.5 -135.501s-69.333 -111 -94 -175s-42.834 -132.5 -54.501 -205.5s-17.5 -148.5 -17.5 -226.5
c0 -132.667 14.833 -251 44.5 -355s75 -191.833 136 -263.5s137.667 -126.334 230 -164.001s201.5 -56.5 327.5 -56.5c40 0 81 2.66699 123 8s83.667 13 125 23s81.166 21.667 119.499 35s73.5 28 105.5 44zM1083 -124.999c38.667 -49.333 65.166 -98.332 79.499 -146.999
s17.833 -97.5 10.5 -146.5s-24.5 -98.333 -51.5 -148s-62.167 -99.834 -105.5 -150.501h-192c41.333 50.667 74.333 97.5 99 140.5s39.834 84.333 45.501 124s1.66699 79 -12 118s-38.5 80.167 -74.5 123.5z" />
    <glyph glyph-name="Egrave" unicode="&#xc8;" horiz-adv-x="1541" 
d="M278 0v2060h1037v-189h-802v-715h762v-189h-762v-772h802v-195h-1037zM925 2225l-550 173l73 186l526 -225z" />
    <glyph glyph-name="Eacute" unicode="&#xc9;" horiz-adv-x="1541" 
d="M278 0v2060h1037v-189h-802v-715h762v-189h-762v-772h802v-195h-1037zM662 2225l-49 134l522 225l73 -186z" />
    <glyph glyph-name="Ecircumflex" unicode="&#xca;" horiz-adv-x="1541" 
d="M278 0v2060h1037v-189h-802v-715h762v-189h-762v-772h802v-195h-1037zM1187 2219l-412 195l-397 -195l-67 131l473 256l480 -247z" />
    <glyph glyph-name="Edieresis" unicode="&#xcb;" horiz-adv-x="1541" 
d="M278 0v2060h1037v-189h-802v-715h762v-189h-762v-772h802v-195h-1037zM1242 2377c0 -20 -3.66699 -38.5 -11 -55.5s-17.166 -31.833 -29.499 -44.5s-27 -22.667 -44 -30s-35.5 -11 -55.5 -11c-19.333 0 -37.333 3.66699 -54 11s-31.334 17.333 -44.001 30
s-22.5 27.5 -29.5 44.5s-10.5 35.5 -10.5 55.5s3.5 38.5 10.5 55.5s16.833 31.667 29.5 44s27.334 22.166 44.001 29.5c16.667 7.33301 34.667 11 54 11c20 0 38.5 -3.66699 55.5 -11s31.667 -17.166 44 -29.5c12.333 -12.333 22.166 -27 29.499 -44s11 -35.5 11 -55.5z
M592 2377c0 -20 -3.66699 -38.5 -11 -55.5s-17.166 -31.833 -29.499 -44.5s-27.166 -22.667 -44.499 -30s-36 -11 -56 -11c-19.333 0 -37.166 3.66699 -53.499 11s-30.833 17.333 -43.5 30s-22.5 27.5 -29.5 44.5s-10.5 35.5 -10.5 55.5s3.5 38.5 10.5 55.5
s16.833 31.667 29.5 44s27.167 22.166 43.5 29.5c16.333 7.33301 34.166 11 53.499 11c20 0 38.667 -3.66699 56 -11s32.166 -17.166 44.499 -29.5c12.333 -12.333 22.166 -27 29.499 -44s11 -35.5 11 -55.5z" />
    <glyph glyph-name="Igrave" unicode="&#xcc;" horiz-adv-x="790" 
d="M278 0v2060h235v-2060h-235zM521 2225l-549 173l73 186l526 -225z" />
    <glyph glyph-name="Iacute" unicode="&#xcd;" horiz-adv-x="790" 
d="M278 0v2060h235v-2060h-235zM253 2225l-49 134l522 225l73 -186z" />
    <glyph glyph-name="Icircumflex" unicode="&#xce;" horiz-adv-x="790" 
d="M278 0v2060h235v-2060h-235zM799 2219l-412 195l-396 -195l-67 131l472 256l480 -247z" />
    <glyph glyph-name="Idieresis" unicode="&#xcf;" horiz-adv-x="790" 
d="M278 0v2060h235v-2060h-235zM857 2377c0 -20 -3.66699 -38.5 -11 -55.5s-17.166 -31.833 -29.499 -44.5s-27 -22.667 -44 -30s-35.5 -11 -55.5 -11c-19.333 0 -37.166 3.66699 -53.499 11s-30.833 17.333 -43.5 30s-22.5 27.5 -29.5 44.5s-10.5 35.5 -10.5 55.5
s3.5 38.5 10.5 55.5s16.833 31.667 29.5 44s27.167 22.166 43.5 29.5c16.333 7.33301 34.166 11 53.499 11c20 0 38.5 -3.66699 55.5 -11s31.667 -17.166 44 -29.5c12.333 -12.333 22.166 -27 29.499 -44s11 -35.5 11 -55.5zM208 2377c0 -20 -3.66699 -38.5 -11 -55.5
s-17.166 -31.833 -29.499 -44.5s-27.166 -22.667 -44.499 -30s-36 -11 -56 -11c-19.333 0 -37.166 3.66699 -53.499 11s-30.833 17.333 -43.5 30s-22.5 27.5 -29.5 44.5s-10.5 35.5 -10.5 55.5s3.5 38.5 10.5 55.5s16.833 31.667 29.5 44s27.167 22.166 43.5 29.5
c16.333 7.33301 34.166 11 53.499 11c20 0 38.667 -3.66699 56 -11s32.166 -17.166 44.499 -29.5c12.333 -12.333 22.166 -27 29.499 -44s11 -35.5 11 -55.5z" />
    <glyph glyph-name="Eth" unicode="&#xd0;" horiz-adv-x="2115" 
d="M1962 1047c0 -177.333 -28.4971 -332 -85.4971 -464s-136.667 -241.833 -239 -329.5s-224.333 -153.334 -366 -197.001s-297.167 -65.5 -466.5 -65.5c-51.333 0 -99.333 0.5 -144 1.5s-87 2 -127 3l-115.5 3c-37 1 -72.833 1.5 -107.5 1.5v974h-308v176h308v910
c40 0 83.333 0.5 130 1.5l146 3l156 3c53.333 1 106.666 1.5 159.999 1.5c168 0 317.667 -20.333 449 -61s242.166 -103 332.499 -187s159.166 -190.167 206.499 -318.5s71 -280.166 71 -455.499zM1718 1031c0 279.333 -70.1631 490.668 -210.496 634.001
s-349.833 215 -628.5 215c-29.333 0 -59.333 -0.333008 -90 -1s-60.834 -1.5 -90.501 -2.5s-57.834 -2 -84.501 -3s-50.334 -1.83301 -71.001 -2.5v-721h452v-176h-452v-776c5.33301 -0.666992 19.666 -1.83398 42.999 -3.50098s50 -3.33398 80 -5.00098
s60.833 -3.16699 92.5 -4.5s58.5 -2 80.5 -2c130 0 248.833 16.667 356.5 50s200.167 84.833 277.5 154.5s137.5 157.834 180.5 264.501s64.5 233 64.5 379z" />
    <glyph glyph-name="Ntilde" unicode="&#xd1;" horiz-adv-x="2169" 
d="M1581 0l-857.999 1367c-46 74 -88.167 145.833 -126.5 215.5l-108.5 205.5c1.33301 -39.333 2.83301 -86.833 4.5 -142.5s3.16699 -116.5 4.5 -182.5l4 -207.5c1.33301 -72.333 2.5 -144.833 3.5 -217.5s1.66699 -143.667 2 -213s0.5 -133.666 0.5 -192.999v-632h-229
v2060h311l842 -1337l130 -219.5l123 -219.5c-2 46 -3.83301 99.167 -5.5 159.5s-3.33398 124.833 -5.00098 193.5s-3.16699 140.334 -4.5 215.001s-2.33301 149.167 -3 223.5l-2 218.5c-0.666992 71.333 -1 138.333 -1 201v565h229v-2060h-311zM1587 2466
c-40 -69.333 -87.167 -122.333 -141.5 -159s-115.833 -55 -184.5 -55c-34 0 -64.667 4 -92 12s-52.333 18.167 -75 30.5s-43.667 25.666 -63 40c-19.333 14.333 -38.5 27.666 -57.5 40c-19 12.333 -38.333 22.5 -58 30.5s-40.834 12 -63.501 12
c-35.333 0 -69.833 -11.833 -103.5 -35.5s-64.5 -58.5 -92.5 -104.5l-122 88c38 68.667 84.667 121.334 140 158c55.333 36.667 117.333 55 186 55c34 0 64.667 -4 92 -12s52.333 -18.167 75 -30.5s43.667 -25.5 63 -39.5s38.5 -27.167 57.5 -39.5s38.333 -22.5 58 -30.5
s40.834 -12 63.501 -12c72 0 137.333 46.667 196 140z" />
    <glyph glyph-name="Ograve" unicode="&#xd2;" horiz-adv-x="2152" 
d="M2014 1053c0 -114.667 -11.4971 -221.167 -34.4971 -319.5s-55.667 -187.5 -98 -267.5s-92.833 -150.667 -151.5 -212s-123.834 -113 -195.501 -155s-148.334 -73.667 -230.001 -95s-166.5 -32 -254.5 -32c-154 0 -288.167 24.667 -402.5 74s-209.333 119.333 -285 210
s-132.167 199.5 -169.5 326.5s-56 268.5 -56 424.5c0 115.333 11.667 222.166 35 320.499s56 187.5 98 267.5s92.5 150.5 151.5 211.5s124.5 112.333 196.5 154s149 73.167 231 94.5s167.333 32 256 32c139.333 0 265.166 -22.833 377.499 -68.5
s207.833 -112.5 286.5 -200.5s139.167 -196.167 181.5 -324.5s63.5 -275.166 63.5 -440.499zM1763 1016c0 138 -15.334 261.001 -46.001 369.001s-75.5 199 -134.5 273s-131.167 130.5 -216.5 169.5s-182.666 58.5 -291.999 58.5c-60.667 0 -119.667 -8.16699 -177 -24.5
s-111.5 -40.5 -162.5 -72.5s-97.667 -71.5 -140 -118.5s-79 -101.5 -110 -163.5s-55 -131.167 -72 -207.5s-25.5 -159.5 -25.5 -249.5c0 -129.333 14 -247.5 42 -354.5s70.5 -198.833 127.5 -275.5s128.5 -136.334 214.5 -179.001s187 -64 303 -64
c90 0 176.5 18.167 259.5 54.5s156.333 89.833 220 160.5s114.5 158.167 152.5 262.5s57 224.833 57 361.5zM1208 2225l-549 173l73 186l526 -225z" />
    <glyph glyph-name="Oacute" unicode="&#xd3;" horiz-adv-x="2152" 
d="M2014 1053c0 -114.667 -11.4971 -221.167 -34.4971 -319.5s-55.667 -187.5 -98 -267.5s-92.833 -150.667 -151.5 -212s-123.834 -113 -195.501 -155s-148.334 -73.667 -230.001 -95s-166.5 -32 -254.5 -32c-154 0 -288.167 24.667 -402.5 74s-209.333 119.333 -285 210
s-132.167 199.5 -169.5 326.5s-56 268.5 -56 424.5c0 115.333 11.667 222.166 35 320.499s56 187.5 98 267.5s92.5 150.5 151.5 211.5s124.5 112.333 196.5 154s149 73.167 231 94.5s167.333 32 256 32c139.333 0 265.166 -22.833 377.499 -68.5
s207.833 -112.5 286.5 -200.5s139.167 -196.167 181.5 -324.5s63.5 -275.166 63.5 -440.499zM1763 1016c0 138 -15.334 261.001 -46.001 369.001s-75.5 199 -134.5 273s-131.167 130.5 -216.5 169.5s-182.666 58.5 -291.999 58.5c-60.667 0 -119.667 -8.16699 -177 -24.5
s-111.5 -40.5 -162.5 -72.5s-97.667 -71.5 -140 -118.5s-79 -101.5 -110 -163.5s-55 -131.167 -72 -207.5s-25.5 -159.5 -25.5 -249.5c0 -129.333 14 -247.5 42 -354.5s70.5 -198.833 127.5 -275.5s128.5 -136.334 214.5 -179.001s187 -64 303 -64
c90 0 176.5 18.167 259.5 54.5s156.333 89.833 220 160.5s114.5 158.167 152.5 262.5s57 224.833 57 361.5zM964.002 2225l-48 134l521 225l74 -186z" />
    <glyph glyph-name="Ocircumflex" unicode="&#xd4;" horiz-adv-x="2152" 
d="M2014 1053c0 -114.667 -11.4971 -221.167 -34.4971 -319.5s-55.667 -187.5 -98 -267.5s-92.833 -150.667 -151.5 -212s-123.834 -113 -195.501 -155s-148.334 -73.667 -230.001 -95s-166.5 -32 -254.5 -32c-154 0 -288.167 24.667 -402.5 74s-209.333 119.333 -285 210
s-132.167 199.5 -169.5 326.5s-56 268.5 -56 424.5c0 115.333 11.667 222.166 35 320.499s56 187.5 98 267.5s92.5 150.5 151.5 211.5s124.5 112.333 196.5 154s149 73.167 231 94.5s167.333 32 256 32c139.333 0 265.166 -22.833 377.499 -68.5
s207.833 -112.5 286.5 -200.5s139.167 -196.167 181.5 -324.5s63.5 -275.166 63.5 -440.499zM1763 1016c0 138 -15.334 261.001 -46.001 369.001s-75.5 199 -134.5 273s-131.167 130.5 -216.5 169.5s-182.666 58.5 -291.999 58.5c-60.667 0 -119.667 -8.16699 -177 -24.5
s-111.5 -40.5 -162.5 -72.5s-97.667 -71.5 -140 -118.5s-79 -101.5 -110 -163.5s-55 -131.167 -72 -207.5s-25.5 -159.5 -25.5 -249.5c0 -129.333 14 -247.5 42 -354.5s70.5 -198.833 127.5 -275.5s128.5 -136.334 214.5 -179.001s187 -64 303 -64
c90 0 176.5 18.167 259.5 54.5s156.333 89.833 220 160.5s114.5 158.167 152.5 262.5s57 224.833 57 361.5zM1498 2219l-412 195l-396 -195l-67 131l472 256l480 -247z" />
    <glyph glyph-name="Otilde" unicode="&#xd5;" horiz-adv-x="2152" 
d="M2014 1053c0 -114.667 -11.4971 -221.167 -34.4971 -319.5s-55.667 -187.5 -98 -267.5s-92.833 -150.667 -151.5 -212s-123.834 -113 -195.501 -155s-148.334 -73.667 -230.001 -95s-166.5 -32 -254.5 -32c-154 0 -288.167 24.667 -402.5 74s-209.333 119.333 -285 210
s-132.167 199.5 -169.5 326.5s-56 268.5 -56 424.5c0 115.333 11.667 222.166 35 320.499s56 187.5 98 267.5s92.5 150.5 151.5 211.5s124.5 112.333 196.5 154s149 73.167 231 94.5s167.333 32 256 32c139.333 0 265.166 -22.833 377.499 -68.5
s207.833 -112.5 286.5 -200.5s139.167 -196.167 181.5 -324.5s63.5 -275.166 63.5 -440.499zM1763 1016c0 138 -15.334 261.001 -46.001 369.001s-75.5 199 -134.5 273s-131.167 130.5 -216.5 169.5s-182.666 58.5 -291.999 58.5c-60.667 0 -119.667 -8.16699 -177 -24.5
s-111.5 -40.5 -162.5 -72.5s-97.667 -71.5 -140 -118.5s-79 -101.5 -110 -163.5s-55 -131.167 -72 -207.5s-25.5 -159.5 -25.5 -249.5c0 -129.333 14 -247.5 42 -354.5s70.5 -198.833 127.5 -275.5s128.5 -136.334 214.5 -179.001s187 -64 303 -64
c90 0 176.5 18.167 259.5 54.5s156.333 89.833 220 160.5s114.5 158.167 152.5 262.5s57 224.833 57 361.5zM1596 2466c-40 -69.333 -87.168 -122.334 -141.501 -159.001s-116.166 -55 -185.499 -55c-34 0 -64.5 4 -91.5 12s-51.833 18.167 -74.5 30.5
s-43.834 25.666 -63.501 40c-19.667 14.333 -38.834 27.666 -57.501 40c-18.667 12.333 -38 22.5 -58 30.5s-41.333 12 -64 12c-35.333 0 -69.666 -11.833 -102.999 -35.5s-64 -58.5 -92 -104.5l-122 88c38 68.667 84.667 121.334 140 158.001s117.333 55 186 55
c34 0 64.667 -4 92 -12s52.333 -18.167 75 -30.5s43.667 -25.5 63 -39.5s38.5 -27.167 57.5 -39.5s38.333 -22.5 58 -30.5s40.834 -12 63.501 -12c35.333 0 69.5 11.833 102.5 35.5s64.167 58.5 93.5 104.5z" />
    <glyph glyph-name="Odieresis" unicode="&#xd6;" horiz-adv-x="2152" 
d="M2014 1053c0 -114.667 -11.4971 -221.167 -34.4971 -319.5s-55.667 -187.5 -98 -267.5s-92.833 -150.667 -151.5 -212s-123.834 -113 -195.501 -155s-148.334 -73.667 -230.001 -95s-166.5 -32 -254.5 -32c-154 0 -288.167 24.667 -402.5 74s-209.333 119.333 -285 210
s-132.167 199.5 -169.5 326.5s-56 268.5 -56 424.5c0 115.333 11.667 222.166 35 320.499s56 187.5 98 267.5s92.5 150.5 151.5 211.5s124.5 112.333 196.5 154s149 73.167 231 94.5s167.333 32 256 32c139.333 0 265.166 -22.833 377.499 -68.5
s207.833 -112.5 286.5 -200.5s139.167 -196.167 181.5 -324.5s63.5 -275.166 63.5 -440.499zM1763 1016c0 138 -15.334 261.001 -46.001 369.001s-75.5 199 -134.5 273s-131.167 130.5 -216.5 169.5s-182.666 58.5 -291.999 58.5c-60.667 0 -119.667 -8.16699 -177 -24.5
s-111.5 -40.5 -162.5 -72.5s-97.667 -71.5 -140 -118.5s-79 -101.5 -110 -163.5s-55 -131.167 -72 -207.5s-25.5 -159.5 -25.5 -249.5c0 -129.333 14 -247.5 42 -354.5s70.5 -198.833 127.5 -275.5s128.5 -136.334 214.5 -179.001s187 -64 303 -64
c90 0 176.5 18.167 259.5 54.5s156.333 89.833 220 160.5s114.5 158.167 152.5 262.5s57 224.833 57 361.5zM1532 2377c0 -20 -3.66699 -38.501 -11 -55.501s-17.166 -31.833 -29.499 -44.5s-27 -22.667 -44 -30s-35.5 -11 -55.5 -11c-19.333 0 -37.333 3.66699 -54 11
s-31.334 17.333 -44.001 30s-22.5 27.5 -29.5 44.5s-10.5 35.5 -10.5 55.5s3.5 38.5 10.5 55.5s16.833 31.667 29.5 44s27.334 22.166 44.001 29.5c16.667 7.33301 34.667 11 54 11c20 0 38.5 -3.66699 55.5 -11s31.667 -17.166 44 -29.499s22.166 -27 29.499 -44
s11 -35.5 11 -55.5zM882.002 2377c0 -20 -3.66699 -38.5 -11 -55.5s-17.166 -31.833 -29.499 -44.5s-27.166 -22.667 -44.499 -30s-36 -11 -56 -11c-19.333 0 -37.166 3.66699 -53.499 11s-30.833 17.333 -43.5 30s-22.5 27.5 -29.5 44.5s-10.5 35.5 -10.5 55.5
s3.5 38.5 10.5 55.5s16.833 31.667 29.5 44s27.167 22.166 43.5 29.5c16.333 7.33301 34.166 11 53.499 11c20 0 38.667 -3.66699 56 -11s32.166 -17.166 44.499 -29.5c12.333 -12.333 22.166 -27 29.499 -44s11 -35.5 11 -55.5z" />
    <glyph glyph-name="multiply" unicode="&#xd7;" horiz-adv-x="1678" 
d="M1361 244l-528 528l-528 -528l-128 128l528 528l-528 528l140 140l529 -527l527 527l128 -128l-527 -527l527 -529z" />
    <glyph glyph-name="Oslash" unicode="&#xd8;" horiz-adv-x="2152" 
d="M2014 1044c0 -172.667 -24.833 -325.5 -74.5 -458.5s-118.167 -245 -205.5 -336s-190.5 -160 -309.5 -207s-247.833 -70.5 -386.5 -70.5c-48 0 -92.833 2.33301 -134.5 7s-82.167 12.667 -121.5 24l-117 -317l-177 61l116 317c-81.333 40 -151.5 91.333 -210.5 154
s-107.5 134.834 -145.5 216.501s-66 171.167 -84 268.5s-27 200.666 -27 309.999c0 114 11.5 219.833 34.5 317.5s55.5 186.334 97.5 266.001s92.5 150 151.5 211s124.167 112.167 195.5 153.5s148 72.666 230 93.999s167.333 32 256 32c41.333 0 82 -2.16699 122 -6.5
s78.667 -10.166 116 -17.5l110 296l176 -61l-109 -293c78.667 -34 148.667 -80 210 -138s113.333 -127.167 156 -207.5s75.167 -172 97.5 -275s33.5 -216.5 33.5 -340.5zM1770 1013c0 90 -6.99902 175.003 -20.999 255.003s-35 153.167 -63 219.5s-62.833 125 -104.5 176
s-89.834 92.5 -144.501 124.5l-585 -1584c36.667 -12 73.667 -20 111 -24s74.333 -6 111 -6c99.333 2 191.5 21.667 276.5 59s158.5 91.166 220.5 161.499s110.667 157.166 146 260.499s53 222.666 53 357.999zM1269 1862c-35.333 7.33301 -70.499 12.999 -105.499 16.999
s-73.833 5.33301 -116.5 4c-89.333 -3.33301 -174.166 -23.833 -254.499 -61.5s-151 -92 -212 -163s-109.5 -158.167 -145.5 -261.5s-54 -222 -54 -356c0 -84.667 5.66699 -165 17 -241s29.166 -146.167 53.499 -210.5s55.666 -122.166 93.999 -173.499
s84.5 -94.333 138.5 -129z" />
    <glyph glyph-name="Ugrave" unicode="&#xd9;" horiz-adv-x="2127" 
d="M1849 782c0 -264.667 -68.498 -465.832 -205.498 -603.499s-338.833 -206.5 -605.5 -206.5c-106.667 0 -199.334 9.33301 -278.001 28s-146.167 44.5 -202.5 77.5s-102.5 72.167 -138.5 117.5s-64.5 94.333 -85.5 147s-35.5 108 -43.5 166s-12 116.667 -12 176v1376h235
v-1355c0 -49.333 3.16699 -97 9.5 -143s17.166 -89 32.499 -129s36.166 -76.333 62.499 -109s59.5 -60.834 99.5 -84.501s87.833 -42 143.5 -55s120.834 -19.5 195.501 -19.5c94.667 0 177.167 10.5 247.5 31.5s129 55.167 176 102.5s82.167 109 105.5 185s35 169 35 279
v1297h229v-1278zM1199 2225l-549 173l73 186l525 -225z" />
    <glyph glyph-name="Uacute" unicode="&#xda;" horiz-adv-x="2127" 
d="M1849 782c0 -264.667 -68.498 -465.832 -205.498 -603.499s-338.833 -206.5 -605.5 -206.5c-106.667 0 -199.334 9.33301 -278.001 28s-146.167 44.5 -202.5 77.5s-102.5 72.167 -138.5 117.5s-64.5 94.333 -85.5 147s-35.5 108 -43.5 166s-12 116.667 -12 176v1376h235
v-1355c0 -49.333 3.16699 -97 9.5 -143s17.166 -89 32.499 -129s36.166 -76.333 62.499 -109s59.5 -60.834 99.5 -84.501s87.833 -42 143.5 -55s120.834 -19.5 195.501 -19.5c94.667 0 177.167 10.5 247.5 31.5s129 55.167 176 102.5s82.167 109 105.5 185s35 169 35 279
v1297h229v-1278zM925.002 2225l-49 134l522 225l73 -186z" />
    <glyph glyph-name="Ucircumflex" unicode="&#xdb;" horiz-adv-x="2127" 
d="M1849 782c0 -264.667 -68.498 -465.832 -205.498 -603.499s-338.833 -206.5 -605.5 -206.5c-106.667 0 -199.334 9.33301 -278.001 28s-146.167 44.5 -202.5 77.5s-102.5 72.167 -138.5 117.5s-64.5 94.333 -85.5 147s-35.5 108 -43.5 166s-12 116.667 -12 176v1376h235
v-1355c0 -49.333 3.16699 -97 9.5 -143s17.166 -89 32.499 -129s36.166 -76.333 62.499 -109s59.5 -60.834 99.5 -84.501s87.833 -42 143.5 -55s120.834 -19.5 195.501 -19.5c94.667 0 177.167 10.5 247.5 31.5s129 55.167 176 102.5s82.167 109 105.5 185s35 169 35 279
v1297h229v-1278zM1465 2219l-412 195l-397 -195l-67 131l473 256l479 -247z" />
    <glyph glyph-name="Udieresis" unicode="&#xdc;" horiz-adv-x="2127" 
d="M1849 782c0 -264.667 -68.498 -465.832 -205.498 -603.499s-338.833 -206.5 -605.5 -206.5c-106.667 0 -199.334 9.33301 -278.001 28s-146.167 44.5 -202.5 77.5s-102.5 72.167 -138.5 117.5s-64.5 94.333 -85.5 147s-35.5 108 -43.5 166s-12 116.667 -12 176v1376h235
v-1355c0 -49.333 3.16699 -97 9.5 -143s17.166 -89 32.499 -129s36.166 -76.333 62.499 -109s59.5 -60.834 99.5 -84.501s87.833 -42 143.5 -55s120.834 -19.5 195.501 -19.5c94.667 0 177.167 10.5 247.5 31.5s129 55.167 176 102.5s82.167 109 105.5 185s35 169 35 279
v1297h229v-1278zM1511 2377c0 -20 -3.66699 -38.5 -11 -55.5s-17.166 -31.833 -29.499 -44.5s-27.166 -22.667 -44.499 -30s-36 -11 -56 -11c-19.333 0 -37.166 3.66699 -53.499 11s-30.833 17.333 -43.5 30s-22.5 27.5 -29.5 44.5s-10.5 35.5 -10.5 55.5
s3.5 38.5 10.5 55.5s16.833 31.667 29.5 44s27.167 22.166 43.5 29.5c16.333 7.33301 34.166 11 53.499 11c20 0 38.667 -3.66699 56 -11s32.166 -17.166 44.499 -29.5c12.333 -12.333 22.166 -27 29.499 -44s11 -35.5 11 -55.5zM860.002 2377
c0 -20 -3.66699 -38.5 -11 -55.5s-17.166 -31.833 -29.499 -44.5s-27 -22.667 -44 -30s-35.5 -11 -55.5 -11c-19.333 0 -37.166 3.66699 -53.499 11s-30.833 17.333 -43.5 30s-22.5 27.5 -29.5 44.5s-10.5 35.5 -10.5 55.5s3.5 38.5 10.5 55.5s16.833 31.667 29.5 44
s27.167 22.166 43.5 29.5c16.333 7.33301 34.166 11 53.499 11c20 0 38.5 -3.66699 55.5 -11s31.667 -17.166 44 -29.5c12.333 -12.333 22.166 -27 29.499 -44s11 -35.5 11 -55.5z" />
    <glyph glyph-name="Yacute" unicode="&#xdd;" horiz-adv-x="1608" 
d="M913 748v-748h-233v744l-643 1316h256l351 -735l83 -183.5l75 -180.5h3c25.333 62.667 53.833 127.5 85.5 194.5l95.5 202.5l339 702h246zM705 2225l-49 134l522 225l73 -186z" />
    <glyph glyph-name="Thorn" unicode="&#xde;" horiz-adv-x="1602" 
d="M1541 1123c0 -106.667 -20.833 -203.166 -62.5 -289.499s-99.5 -159.833 -173.5 -220.5s-161.833 -107.334 -263.5 -140.001s-212.834 -49 -333.501 -49c-36.667 0 -70.667 0.833008 -102 2.5s-62.333 4.16699 -93 7.5v-434h-235v2060h235v-320l128.5 4
c41.667 1.33301 87.167 2 136.5 2c118.667 0 225.334 -13.5 320.001 -40.5s174.667 -66.667 240 -119s115.5 -117.333 150.5 -195s52.5 -167.167 52.5 -268.5zM1300 1102c0 68.667 -10.6719 130.671 -32.0049 186.004s-55 102.666 -101 141.999
s-105.167 69.666 -177.5 90.999s-159.166 32 -260.499 32c-35.333 0 -71.333 -1 -108 -3s-72.667 -6 -108 -12v-909c32 -3.33301 66.333 -6.33301 103 -9s76.334 -4 119.001 -4c88.667 0 167.834 10.667 237.501 32s128.834 52.666 177.501 93.999
s85.834 92.166 111.501 152.499s38.5 129.5 38.5 207.5z" />
    <glyph glyph-name="germandbls" unicode="&#xdf;" horiz-adv-x="1791" 
d="M1657 446c0 -68 -13.6582 -131.002 -40.9912 -189.002s-66.833 -108 -118.5 -150s-114.667 -75 -189 -99s-158.5 -36 -252.5 -36c-55.333 0 -108.5 2.83301 -159.5 8.5s-95.5 13.167 -133.5 22.5l21 208c41.333 -15.333 86 -27.333 134 -36s96 -13 144 -13
c63.333 0 117.666 6.83301 162.999 20.5s82.666 32.167 111.999 55.5s50.833 50.333 64.5 81s20.5 62.667 20.5 96c0 44 -9 82 -27 114s-41.5 60.5 -70.5 85.5s-62.167 48 -99.5 69l-114.5 64c-39 21.667 -77.167 45.167 -114.5 70.5s-70.5 54.666 -99.5 87.999
s-52.5 72.333 -70.5 117s-27 97.334 -27 158.001c0 46 6.33301 86.333 19 121s29.167 65.5 49.5 92.5s43.666 51.333 69.999 73s53 42.167 80 61.5l80 58c26.333 19.333 49.666 40.333 69.999 63s36.833 47.834 49.5 75.501s19 59.834 19 96.501c0 40 -7.66699 75 -23 105
s-36.666 54.833 -63.999 74.5s-60 34.334 -98 44.001s-80 14.5 -126 14.5c-66.667 0 -125.834 -9.5 -177.501 -28.5s-95.334 -49 -131.001 -90s-62.834 -94 -81.501 -159s-28 -143.5 -28 -235.5v-1547h-229v1532c0 131.333 17.167 242.166 51.5 332.499
s81.333 163.5 141 219.5s129.834 96.5 210.501 121.5s167 37.5 259 37.5c86 0 162 -10.167 228 -30.5s121.5 -48.333 166.5 -84s79 -77.834 102 -126.501s34.5 -101.667 34.5 -159c0 -52 -6.33301 -97.333 -19 -136s-29.334 -72.5 -50.001 -101.5s-44.167 -54.333 -70.5 -76
s-53.166 -41.5 -80.499 -59.5l-80.5 -53c-26.333 -17.333 -49.833 -36.166 -70.5 -56.499s-37.334 -43.166 -50.001 -68.499s-19 -55.333 -19 -90c0 -42 9 -78.5 27 -109.5s41.667 -59 71 -84s62.666 -48 99.999 -69l115 -64.5c39.333 -22 77.666 -45.5 114.999 -70.5
s70.666 -54.333 99.999 -88s53 -72.334 71 -116.001s27 -95.167 27 -154.5z" />
    <glyph glyph-name="agrave" unicode="&#xe0;" horiz-adv-x="1587" 
d="M1086 0c0 58.667 0.668945 115.663 2.00195 170.996s6 105 14 149h-7c-18 -48 -43.5 -93.167 -76.5 -135.5s-72 -79.166 -117 -110.499s-95.667 -56.166 -152 -74.499s-116.833 -27.5 -181.5 -27.5c-60.667 0 -116.334 9.33301 -167.001 28s-94.334 45.5 -131.001 80.5
s-65.334 77.333 -86.001 127s-31 105.5 -31 167.5c0 78 20 148.833 60 212.5s99 118.334 177 164.001s174.333 80.834 289 105.501s246.334 37 395.001 37v110c0 57.333 -5.66699 108.166 -17 152.499s-30.333 81.666 -57 111.999s-62 53.333 -106 69s-99 23.5 -165 23.5
c-36.667 0 -74.667 -2.83301 -114 -8.5s-78.5 -13.667 -117.5 -24s-76.667 -22.666 -113 -36.999s-69.833 -29.833 -100.5 -46.5l-52 189c36.667 16 75.834 30.667 117.501 44s85.334 25 131.001 35s92.5 17.667 140.5 23s96.333 8 145 8
c105.333 0 192.666 -12.333 261.999 -37s124.666 -58.667 165.999 -102s70.333 -95.166 87 -155.499s25 -125.833 25 -196.5v-599v-115c0 -39.333 0.166992 -78.5 0.5 -117.5s1 -77.333 2 -115s2.16699 -73.167 3.5 -106.5h-226zM1074 725.996
c-90 0 -169.671 -4 -239.004 -12s-129.666 -19.167 -180.999 -33.5s-94.333 -31.333 -129 -51s-62.667 -41.334 -84 -65.001s-36.666 -48.667 -45.999 -75s-14 -53.166 -14 -80.499c0 -36 5.83301 -69.333 17.5 -100s28.334 -57 50.001 -79s47.834 -39.333 78.501 -52
s64.667 -19 102 -19c66.667 0 127.5 15.167 182.5 45.5s101.833 70.333 140.5 120s68.667 106 90 169s32 127.5 32 193.5v39zM854.998 1754l-421 354l134 150l393 -384z" />
    <glyph glyph-name="aacute" unicode="&#xe1;" horiz-adv-x="1587" 
d="M1086 0c0 58.667 0.668945 115.663 2.00195 170.996s6 105 14 149h-7c-18 -48 -43.5 -93.167 -76.5 -135.5s-72 -79.166 -117 -110.499s-95.667 -56.166 -152 -74.499s-116.833 -27.5 -181.5 -27.5c-60.667 0 -116.334 9.33301 -167.001 28s-94.334 45.5 -131.001 80.5
s-65.334 77.333 -86.001 127s-31 105.5 -31 167.5c0 78 20 148.833 60 212.5s99 118.334 177 164.001s174.333 80.834 289 105.501s246.334 37 395.001 37v110c0 57.333 -5.66699 108.166 -17 152.499s-30.333 81.666 -57 111.999s-62 53.333 -106 69s-99 23.5 -165 23.5
c-36.667 0 -74.667 -2.83301 -114 -8.5s-78.5 -13.667 -117.5 -24s-76.667 -22.666 -113 -36.999s-69.833 -29.833 -100.5 -46.5l-52 189c36.667 16 75.834 30.667 117.501 44s85.334 25 131.001 35s92.5 17.667 140.5 23s96.333 8 145 8
c105.333 0 192.666 -12.333 261.999 -37s124.666 -58.667 165.999 -102s70.333 -95.166 87 -155.499s25 -125.833 25 -196.5v-599v-115c0 -39.333 0.166992 -78.5 0.5 -117.5s1 -77.333 2 -115s2.16699 -73.167 3.5 -106.5h-226zM1074 725.996
c-90 0 -169.671 -4 -239.004 -12s-129.666 -19.167 -180.999 -33.5s-94.333 -31.333 -129 -51s-62.667 -41.334 -84 -65.001s-36.666 -48.667 -45.999 -75s-14 -53.166 -14 -80.499c0 -36 5.83301 -69.333 17.5 -100s28.334 -57 50.001 -79s47.834 -39.333 78.501 -52
s64.667 -19 102 -19c66.667 0 127.5 15.167 182.5 45.5s101.833 70.333 140.5 120s68.667 106 90 169s32 127.5 32 193.5v39zM713.998 1754l-106 120l390 384l137 -150z" />
    <glyph glyph-name="acircumflex" unicode="&#xe2;" horiz-adv-x="1587" 
d="M1086 0c0 58.667 0.668945 115.663 2.00195 170.996s6 105 14 149h-7c-18 -48 -43.5 -93.167 -76.5 -135.5s-72 -79.166 -117 -110.499s-95.667 -56.166 -152 -74.499s-116.833 -27.5 -181.5 -27.5c-60.667 0 -116.334 9.33301 -167.001 28s-94.334 45.5 -131.001 80.5
s-65.334 77.333 -86.001 127s-31 105.5 -31 167.5c0 78 20 148.833 60 212.5s99 118.334 177 164.001s174.333 80.834 289 105.501s246.334 37 395.001 37v110c0 57.333 -5.66699 108.166 -17 152.499s-30.333 81.666 -57 111.999s-62 53.333 -106 69s-99 23.5 -165 23.5
c-36.667 0 -74.667 -2.83301 -114 -8.5s-78.5 -13.667 -117.5 -24s-76.667 -22.666 -113 -36.999s-69.833 -29.833 -100.5 -46.5l-52 189c36.667 16 75.834 30.667 117.501 44s85.334 25 131.001 35s92.5 17.667 140.5 23s96.333 8 145 8
c105.333 0 192.666 -12.333 261.999 -37s124.666 -58.667 165.999 -102s70.333 -95.166 87 -155.499s25 -125.833 25 -196.5v-599v-115c0 -39.333 0.166992 -78.5 0.5 -117.5s1 -77.333 2 -115s2.16699 -73.167 3.5 -106.5h-226zM1074 725.996
c-90 0 -169.671 -4 -239.004 -12s-129.666 -19.167 -180.999 -33.5s-94.333 -31.333 -129 -51s-62.667 -41.334 -84 -65.001s-36.666 -48.667 -45.999 -75s-14 -53.166 -14 -80.499c0 -36 5.83301 -69.333 17.5 -100s28.334 -57 50.001 -79s47.834 -39.333 78.501 -52
s64.667 -19 102 -19c66.667 0 127.5 15.167 182.5 45.5s101.833 70.333 140.5 120s68.667 106 90 169s32 127.5 32 193.5v39zM1074 1754l-298 263l-303 -263l-103 108l409 396l406 -390z" />
    <glyph glyph-name="atilde" unicode="&#xe3;" horiz-adv-x="1587" 
d="M1086 0c0 58.667 0.668945 115.663 2.00195 170.996s6 105 14 149h-7c-18 -48 -43.5 -93.167 -76.5 -135.5s-72 -79.166 -117 -110.499s-95.667 -56.166 -152 -74.499s-116.833 -27.5 -181.5 -27.5c-60.667 0 -116.334 9.33301 -167.001 28s-94.334 45.5 -131.001 80.5
s-65.334 77.333 -86.001 127s-31 105.5 -31 167.5c0 78 20 148.833 60 212.5s99 118.334 177 164.001s174.333 80.834 289 105.501s246.334 37 395.001 37v110c0 57.333 -5.66699 108.166 -17 152.499s-30.333 81.666 -57 111.999s-62 53.333 -106 69s-99 23.5 -165 23.5
c-36.667 0 -74.667 -2.83301 -114 -8.5s-78.5 -13.667 -117.5 -24s-76.667 -22.666 -113 -36.999s-69.833 -29.833 -100.5 -46.5l-52 189c36.667 16 75.834 30.667 117.501 44s85.334 25 131.001 35s92.5 17.667 140.5 23s96.333 8 145 8
c105.333 0 192.666 -12.333 261.999 -37s124.666 -58.667 165.999 -102s70.333 -95.166 87 -155.499s25 -125.833 25 -196.5v-599v-115c0 -39.333 0.166992 -78.5 0.5 -117.5s1 -77.333 2 -115s2.16699 -73.167 3.5 -106.5h-226zM1074 725.996
c-90 0 -169.671 -4 -239.004 -12s-129.666 -19.167 -180.999 -33.5s-94.333 -31.333 -129 -51s-62.667 -41.334 -84 -65.001s-36.666 -48.667 -45.999 -75s-14 -53.166 -14 -80.499c0 -36 5.83301 -69.333 17.5 -100s28.334 -57 50.001 -79s47.834 -39.333 78.501 -52
s64.667 -19 102 -19c66.667 0 127.5 15.167 182.5 45.5s101.833 70.333 140.5 120s68.667 106 90 169s32 127.5 32 193.5v39zM1288 2054c-38 -70.667 -83.835 -125.501 -137.502 -164.501s-113.5 -58.5 -179.5 -58.5c-33.333 0 -63 4.16699 -89 12.5s-50 18.833 -72 31.5
s-42.333 26.5 -61 41.5s-37.167 28.833 -55.5 41.5s-36.833 23.167 -55.5 31.5s-39 12.5 -61 12.5c-68.667 0 -130.667 -48 -186 -144l-119 95c38 70.667 84 125.334 138 164.001s114.667 58 182 58c32.667 0 61.834 -4.16699 87.501 -12.5s49.334 -18.833 71.001 -31.5
s42 -26.334 61 -41l55.5 -41c18 -12.667 36.333 -23.167 55 -31.5s39 -12.5 61 -12.5c34 0 67 12 99 36s62 60 90 108z" />
    <glyph glyph-name="adieresis" unicode="&#xe4;" horiz-adv-x="1587" 
d="M1086 0c0 58.667 0.668945 115.663 2.00195 170.996s6 105 14 149h-7c-18 -48 -43.5 -93.167 -76.5 -135.5s-72 -79.166 -117 -110.499s-95.667 -56.166 -152 -74.499s-116.833 -27.5 -181.5 -27.5c-60.667 0 -116.334 9.33301 -167.001 28s-94.334 45.5 -131.001 80.5
s-65.334 77.333 -86.001 127s-31 105.5 -31 167.5c0 78 20 148.833 60 212.5s99 118.334 177 164.001s174.333 80.834 289 105.501s246.334 37 395.001 37v110c0 57.333 -5.66699 108.166 -17 152.499s-30.333 81.666 -57 111.999s-62 53.333 -106 69s-99 23.5 -165 23.5
c-36.667 0 -74.667 -2.83301 -114 -8.5s-78.5 -13.667 -117.5 -24s-76.667 -22.666 -113 -36.999s-69.833 -29.833 -100.5 -46.5l-52 189c36.667 16 75.834 30.667 117.501 44s85.334 25 131.001 35s92.5 17.667 140.5 23s96.333 8 145 8
c105.333 0 192.666 -12.333 261.999 -37s124.666 -58.667 165.999 -102s70.333 -95.166 87 -155.499s25 -125.833 25 -196.5v-599v-115c0 -39.333 0.166992 -78.5 0.5 -117.5s1 -77.333 2 -115s2.16699 -73.167 3.5 -106.5h-226zM1074 725.996
c-90 0 -169.671 -4 -239.004 -12s-129.666 -19.167 -180.999 -33.5s-94.333 -31.333 -129 -51s-62.667 -41.334 -84 -65.001s-36.666 -48.667 -45.999 -75s-14 -53.166 -14 -80.499c0 -36 5.83301 -69.333 17.5 -100s28.334 -57 50.001 -79s47.834 -39.333 78.501 -52
s64.667 -19 102 -19c66.667 0 127.5 15.167 182.5 45.5s101.833 70.333 140.5 120s68.667 106 90 169s32 127.5 32 193.5v39zM1205 2005c0 -20.667 -3.83301 -40 -11.5 -58s-18.167 -33.5 -31.5 -46.5s-28.833 -23.333 -46.5 -31s-36.5 -11.5 -56.5 -11.5
c-20.667 0 -39.834 3.83301 -57.501 11.5s-33 18 -46 31s-23.333 28.5 -31 46.5s-11.5 37.333 -11.5 58c0 20 3.83301 38.667 11.5 56s18 32.5 31 45.5s28.333 23.333 46 31s36.834 11.5 57.501 11.5c20 0 38.833 -3.83301 56.5 -11.5s33.167 -18 46.5 -31
s23.833 -28.167 31.5 -45.5s11.5 -36 11.5 -56zM631.998 2005c0 -20.667 -3.83301 -40 -11.5 -58s-18 -33.5 -31 -46.5s-28.5 -23.333 -46.5 -31s-37.333 -11.5 -58 -11.5s-39.834 3.83301 -57.501 11.5s-33 18 -46 31s-23.333 28.5 -31 46.5s-11.5 37.333 -11.5 58
c0 20 3.83301 38.667 11.5 56s18 32.5 31 45.5s28.333 23.333 46 31s36.834 11.5 57.501 11.5s40 -3.83301 58 -11.5s33.5 -18 46.5 -31s23.333 -28.167 31 -45.5s11.5 -36 11.5 -56z" />
    <glyph glyph-name="aring" unicode="&#xe5;" horiz-adv-x="1587" 
d="M1086 0c0 58.667 0.668945 115.663 2.00195 170.996s6 105 14 149h-7c-18 -48 -43.5 -93.167 -76.5 -135.5s-72 -79.166 -117 -110.499s-95.667 -56.166 -152 -74.499s-116.833 -27.5 -181.5 -27.5c-60.667 0 -116.334 9.33301 -167.001 28s-94.334 45.5 -131.001 80.5
s-65.334 77.333 -86.001 127s-31 105.5 -31 167.5c0 78 20 148.833 60 212.5s99 118.334 177 164.001s174.333 80.834 289 105.501s246.334 37 395.001 37v110c0 57.333 -5.66699 108.166 -17 152.499s-30.333 81.666 -57 111.999s-62 53.333 -106 69s-99 23.5 -165 23.5
c-36.667 0 -74.667 -2.83301 -114 -8.5s-78.5 -13.667 -117.5 -24s-76.667 -22.666 -113 -36.999s-69.833 -29.833 -100.5 -46.5l-52 189c36.667 16 75.834 30.667 117.501 44s85.334 25 131.001 35s92.5 17.667 140.5 23s96.333 8 145 8
c105.333 0 192.666 -12.333 261.999 -37s124.666 -58.667 165.999 -102s70.333 -95.166 87 -155.499s25 -125.833 25 -196.5v-599v-115c0 -39.333 0.166992 -78.5 0.5 -117.5s1 -77.333 2 -115s2.16699 -73.167 3.5 -106.5h-226zM1074 725.996
c-90 0 -169.671 -4 -239.004 -12s-129.666 -19.167 -180.999 -33.5s-94.333 -31.333 -129 -51s-62.667 -41.334 -84 -65.001s-36.666 -48.667 -45.999 -75s-14 -53.166 -14 -80.499c0 -36 5.83301 -69.333 17.5 -100s28.334 -57 50.001 -79s47.834 -39.333 78.501 -52
s64.667 -19 102 -19c66.667 0 127.5 15.167 182.5 45.5s101.833 70.333 140.5 120s68.667 106 90 169s32 127.5 32 193.5v39zM1114 2017c0 -43.333 -8.83203 -84.5 -26.499 -123.5s-41.5 -73 -71.5 -102s-65 -52 -105 -69s-82.333 -25.5 -127 -25.5c-46 0 -89 8 -129 24
s-74.833 38.167 -104.5 66.5s-53.167 62 -70.5 101s-26 81.833 -26 128.5c0 46 8.66699 88.667 26 128s41 73.166 71 101.5c30 28.333 65 50.666 105 67c40 16.333 82.667 24.5 128 24.5c46.667 0 90.167 -8.16699 130.5 -24.5s75.166 -38.666 104.499 -67
c29.333 -28.333 52.5 -62.166 69.5 -101.5c17 -39.333 25.5 -82 25.5 -128zM954.999 2017c0 24.667 -4.33301 47.666 -13 69c-8.66699 21.333 -20.667 40 -36 56s-33.333 28.667 -54 38s-43.334 14 -68.001 14c-24 0 -46.5 -4.66699 -67.5 -14s-39.167 -22 -54.5 -38
s-27.333 -34.667 -36 -56s-13 -44.333 -13 -69c0 -24 4.33301 -46.833 13 -68.5s20.667 -40.5 36 -56.5s33.5 -28.667 54.5 -38s43.5 -14 67.5 -14c24.667 0 47.334 4.66699 68.001 14s38.667 22 54 38s27.333 34.833 36 56.5s13 44.5 13 68.5z" />
    <glyph glyph-name="ae" unicode="&#xe6;" horiz-adv-x="2469" 
d="M2322 919c0 -14 -0.666992 -31.0029 -2 -51.0029s-2.66602 -44 -4 -72h-1013c-4 -111.333 4 -206.833 24 -286.5s51.167 -145 93.5 -196s95.666 -88.5 159.999 -112.5s138.833 -36 223.5 -36c74.667 0 148.834 7.33301 222.501 22s142.834 36.667 207.501 66l40 -186
c-74 -30.667 -154.833 -54.167 -242.5 -70.5s-179.167 -24.5 -274.5 -24.5c-86.667 0 -163.834 9.5 -231.501 28.5s-126.167 45 -175.5 78s-90.333 71.5 -123 115.5s-57.334 91.333 -74.001 142h-3c-21.333 -46 -50 -90.833 -86 -134.5s-78.5 -82.5 -127.5 -116.5
s-104.167 -61.333 -165.5 -82s-128 -31 -200 -31c-61.333 0 -117.5 9.33301 -168.5 28s-95 45.5 -132 80.5s-65.833 77.333 -86.5 127s-31 105.5 -31 167.5c0 78 20 148.833 60 212.5s99 118.334 177 164.001s174.333 80.834 289 105.501s246.334 37 395.001 37v110
c0 57.333 -5.66699 108.166 -17 152.499s-30.333 81.666 -57 111.999s-62 53.333 -106 69s-99 23.5 -165 23.5c-36.667 0 -74.667 -2.83301 -114 -8.5s-78.5 -13.667 -117.5 -24s-76.667 -22.666 -113 -36.999s-69.833 -29.833 -100.5 -46.5l-52 189
c36.667 16 75.834 30.667 117.501 44s85.334 25 131.001 35s92.5 17.667 140.5 23s96.333 8 145 8c57.333 0 110.666 -4.83301 159.999 -14.5s93.833 -24.667 133.5 -45s74.167 -46.666 103.5 -78.999s52.666 -71.5 69.999 -117.5h3c22.667 36 50.5 69.5 83.5 100.5
s70.167 58 111.5 81s86.833 41.167 136.5 54.5s102.834 20 159.501 20c105.333 0 195.666 -16.833 270.999 -50.5s137 -79.167 185 -136.5s83.167 -123.666 105.5 -198.999s33.5 -155 33.5 -239zM2081 963.997c1.33301 62 -6 118 -22 168s-39.833 92.667 -71.5 128
s-70.5 62.5 -116.5 81.5s-98 28.5 -156 28.5c-52.667 0 -101.5 -9.5 -146.5 -28.5s-84.833 -46 -119.5 -81s-63.667 -77.5 -87 -127.5s-40 -106.333 -50 -169h769zM1074 725.997c-90 0 -169.671 -4 -239.004 -12s-129.666 -19.167 -180.999 -33.5s-94.333 -31.333 -129 -51
s-62.667 -41.334 -84 -65.001s-36.666 -48.667 -45.999 -75s-14 -53.166 -14 -80.499c0 -36 5.83301 -69.333 17.5 -100s28.334 -57 50.001 -79s47.834 -39.333 78.501 -52s64.667 -19 102 -19c66.667 0 127.5 15.167 182.5 45.5s101.833 70.333 140.5 120
s68.667 106 90 169s32 127.5 32 193.5v39z" />
    <glyph glyph-name="ccedilla" unicode="&#xe7;" horiz-adv-x="1342" 
d="M1254 64c-66 -28 -139.501 -49.333 -220.501 -64s-162.167 -22 -243.5 -22c-56.667 0 -112.167 4.66699 -166.5 14s-105.833 25 -154.5 47s-93.5 51.167 -134.5 87.5s-76.333 81.333 -106 135s-52.834 117 -69.501 190s-25 157.5 -25 253.5
c0 124 15.5 237.167 46.5 339.5s76.833 190 137.5 263s136.167 129.667 226.5 170s194.5 60.5 312.5 60.5c74 0 143.667 -5.83301 209 -17.5s125 -28.167 179 -49.5l-46 -193c-25.333 10 -52.5 19.5 -81.5 28.5s-59.167 16.833 -90.5 23.5s-63.666 12 -96.999 16
s-66.666 6 -99.999 6c-73.333 0 -138.333 -15 -195 -45s-104.167 -72 -142.5 -126s-67.5 -118.167 -87.5 -192.5s-30 -155.833 -30 -244.5c0 -77.333 7 -150.5 21 -219.5s38.5 -129.5 73.5 -181.5s82.167 -93.167 141.5 -123.5s134.333 -45.5 225 -45.5
c139.333 0 264.333 26.333 375 79zM804.999 -125c38.667 -49.333 65.166 -98.332 79.499 -146.999s17.833 -97.5 10.5 -146.5s-24.5 -98.333 -51.5 -148s-62.167 -99.834 -105.5 -150.501h-192c41.333 50.667 74.333 97.5 99 140.5s39.834 84.333 45.501 124
s1.66699 79 -12 118s-38.5 80.167 -74.5 123.5z" />
    <glyph glyph-name="egrave" unicode="&#xe8;" horiz-adv-x="1541" 
d="M1392 919c0 -14 -0.169922 -31.001 -0.50293 -51.001s-2.16602 -44 -5.49902 -72h-1014c-4 -111.333 4.16699 -206.833 24.5 -286.5s51.833 -145 94.5 -196s96.334 -88.5 161.001 -112.5s139.334 -36 224.001 -36c73.333 0 146.833 7.33301 220.5 22
s143.5 36.667 209.5 66l39 -186c-74.667 -30.667 -155.334 -54.167 -242.001 -70.5s-177.667 -24.5 -273 -24.5c-113.333 0 -213.166 15.667 -299.499 47s-159 79.166 -218 143.499s-103.5 145.333 -133.5 243s-45 212.834 -45 345.501c0 113.333 14.833 218.5 44.5 315.5
s73 180.833 130 251.5s126.667 126 209 166s176.166 60 281.499 60c104.667 0 194.334 -16.833 269.001 -50.5s136 -79.167 184 -136.5s83.333 -123.666 106 -198.999s34 -155 34 -239zM1153 963.999c1.33301 62 -6 118 -22 168s-39.833 92.667 -71.5 128
s-70.5 62.5 -116.5 81.5s-98 28.5 -156 28.5c-53.333 0 -102.5 -9.5 -147.5 -28.5s-85 -46 -120 -81s-64 -77.5 -87 -127.5s-39.167 -106.333 -48.5 -169h769zM862.997 1754l-420 354l134 150l393 -384z" />
    <glyph glyph-name="eacute" unicode="&#xe9;" horiz-adv-x="1541" 
d="M1392 919c0 -14 -0.169922 -31.001 -0.50293 -51.001s-2.16602 -44 -5.49902 -72h-1014c-4 -111.333 4.16699 -206.833 24.5 -286.5s51.833 -145 94.5 -196s96.334 -88.5 161.001 -112.5s139.334 -36 224.001 -36c73.333 0 146.833 7.33301 220.5 22
s143.5 36.667 209.5 66l39 -186c-74.667 -30.667 -155.334 -54.167 -242.001 -70.5s-177.667 -24.5 -273 -24.5c-113.333 0 -213.166 15.667 -299.499 47s-159 79.166 -218 143.499s-103.5 145.333 -133.5 243s-45 212.834 -45 345.501c0 113.333 14.833 218.5 44.5 315.5
s73 180.833 130 251.5s126.667 126 209 166s176.166 60 281.499 60c104.667 0 194.334 -16.833 269.001 -50.5s136 -79.167 184 -136.5s83.333 -123.666 106 -198.999s34 -155 34 -239zM1153 963.999c1.33301 62 -6 118 -22 168s-39.833 92.667 -71.5 128
s-70.5 62.5 -116.5 81.5s-98 28.5 -156 28.5c-53.333 0 -102.5 -9.5 -147.5 -28.5s-85 -46 -120 -81s-64 -77.5 -87 -127.5s-39.167 -106.333 -48.5 -169h769zM725.997 1754l-106 120l390 384l137 -150z" />
    <glyph glyph-name="ecircumflex" unicode="&#xea;" horiz-adv-x="1541" 
d="M1392 919c0 -14 -0.169922 -31.001 -0.50293 -51.001s-2.16602 -44 -5.49902 -72h-1014c-4 -111.333 4.16699 -206.833 24.5 -286.5s51.833 -145 94.5 -196s96.334 -88.5 161.001 -112.5s139.334 -36 224.001 -36c73.333 0 146.833 7.33301 220.5 22
s143.5 36.667 209.5 66l39 -186c-74.667 -30.667 -155.334 -54.167 -242.001 -70.5s-177.667 -24.5 -273 -24.5c-113.333 0 -213.166 15.667 -299.499 47s-159 79.166 -218 143.499s-103.5 145.333 -133.5 243s-45 212.834 -45 345.501c0 113.333 14.833 218.5 44.5 315.5
s73 180.833 130 251.5s126.667 126 209 166s176.166 60 281.499 60c104.667 0 194.334 -16.833 269.001 -50.5s136 -79.167 184 -136.5s83.333 -123.666 106 -198.999s34 -155 34 -239zM1153 963.999c1.33301 62 -6 118 -22 168s-39.833 92.667 -71.5 128
s-70.5 62.5 -116.5 81.5s-98 28.5 -156 28.5c-53.333 0 -102.5 -9.5 -147.5 -28.5s-85 -46 -120 -81s-64 -77.5 -87 -127.5s-39.167 -106.333 -48.5 -169h769zM1086 1754l-299 263l-302 -263l-104 108l409 396l406 -390z" />
    <glyph glyph-name="edieresis" unicode="&#xeb;" horiz-adv-x="1541" 
d="M1392 919c0 -14 -0.169922 -31.001 -0.50293 -51.001s-2.16602 -44 -5.49902 -72h-1014c-4 -111.333 4.16699 -206.833 24.5 -286.5s51.833 -145 94.5 -196s96.334 -88.5 161.001 -112.5s139.334 -36 224.001 -36c73.333 0 146.833 7.33301 220.5 22
s143.5 36.667 209.5 66l39 -186c-74.667 -30.667 -155.334 -54.167 -242.001 -70.5s-177.667 -24.5 -273 -24.5c-113.333 0 -213.166 15.667 -299.499 47s-159 79.166 -218 143.499s-103.5 145.333 -133.5 243s-45 212.834 -45 345.501c0 113.333 14.833 218.5 44.5 315.5
s73 180.833 130 251.5s126.667 126 209 166s176.166 60 281.499 60c104.667 0 194.334 -16.833 269.001 -50.5s136 -79.167 184 -136.5s83.333 -123.666 106 -198.999s34 -155 34 -239zM1153 963.999c1.33301 62 -6 118 -22 168s-39.833 92.667 -71.5 128
s-70.5 62.5 -116.5 81.5s-98 28.5 -156 28.5c-53.333 0 -102.5 -9.5 -147.5 -28.5s-85 -46 -120 -81s-64 -77.5 -87 -127.5s-39.167 -106.333 -48.5 -169h769zM1233 2005c0 -20.667 -3.83301 -40 -11.5 -58s-18.334 -33.5 -32.001 -46.5s-29.334 -23.333 -47.001 -31
s-36.5 -11.5 -56.5 -11.5c-20.667 0 -39.834 3.83301 -57.501 11.5s-33 18 -46 31s-23.333 28.5 -31 46.5s-11.5 37.333 -11.5 58c0 20 3.83301 38.667 11.5 56s18 32.5 31 45.5s28.333 23.333 46 31s36.834 11.5 57.501 11.5c20 0 38.833 -3.83301 56.5 -11.5
s33.334 -18 47.001 -31s24.334 -28.167 32.001 -45.5s11.5 -36 11.5 -56zM658.997 2005c0 -20.667 -3.83301 -40 -11.5 -58s-18 -33.5 -31 -46.5s-28.333 -23.333 -46 -31s-36.834 -11.5 -57.501 -11.5s-39.834 3.83301 -57.501 11.5s-33 18 -46 31s-23.333 28.5 -31 46.5
s-11.5 37.333 -11.5 58c0 20 3.83301 38.667 11.5 56s18 32.5 31 45.5s28.333 23.333 46 31s36.834 11.5 57.501 11.5s39.834 -3.83301 57.501 -11.5s33 -18 46 -31s23.333 -28.167 31 -45.5s11.5 -36 11.5 -56z" />
    <glyph glyph-name="igrave" unicode="&#xec;" horiz-adv-x="784" 
d="M278 0v1517h229v-1517h-229zM507 1754l-421 354l134 150l393 -384z" />
    <glyph glyph-name="iacute" unicode="&#xed;" horiz-adv-x="784" 
d="M278 0v1517h229v-1517h-229zM268 1754l-106 120l390 384l137 -150z" />
    <glyph glyph-name="icircumflex" unicode="&#xee;" horiz-adv-x="784" 
d="M278 0v1517h229v-1517h-229zM690 1754l-299 263l-302 -263l-104 108l409 396l406 -390z" />
    <glyph glyph-name="idieresis" unicode="&#xef;" horiz-adv-x="784" 
d="M278 0v1517h229v-1517h-229zM830 2005c0 -20.667 -3.83301 -40 -11.5 -58s-18.334 -33.5 -32.001 -46.5s-29.334 -23.333 -47.001 -31s-36.5 -11.5 -56.5 -11.5c-20.667 0 -39.834 3.83301 -57.501 11.5s-33 18 -46 31s-23.333 28.5 -31 46.5s-11.5 37.333 -11.5 58
c0 20 3.83301 38.667 11.5 56s18 32.5 31 45.5s28.333 23.333 46 31s36.834 11.5 57.501 11.5c20 0 38.833 -3.83301 56.5 -11.5s33.334 -18 47.001 -31s24.334 -28.167 32.001 -45.5s11.5 -36 11.5 -56zM256 2005c0 -20.667 -3.83301 -40 -11.5 -58s-18 -33.5 -31 -46.5
s-28.333 -23.333 -46 -31s-36.834 -11.5 -57.501 -11.5s-39.834 3.83301 -57.501 11.5s-33.167 18 -46.5 31s-23.833 28.5 -31.5 46.5s-11.5 37.333 -11.5 58c0 20 3.83301 38.667 11.5 56s18.167 32.5 31.5 45.5s28.833 23.333 46.5 31s36.834 11.5 57.501 11.5
s39.834 -3.83301 57.501 -11.5s33 -18 46 -31s23.333 -28.167 31 -45.5s11.5 -36 11.5 -56z" />
    <glyph glyph-name="eth" unicode="&#xf0;" horiz-adv-x="1657" 
d="M1517 827c0 -145.333 -18.167 -271.496 -54.5 -378.496s-86.5 -195.833 -150.5 -266.5s-139.333 -123.334 -226 -158.001s-180.334 -52 -281.001 -52s-192.5 15.833 -275.5 47.5s-154.333 79.667 -214 144s-105.834 145.333 -138.501 243s-49 212.5 -49 344.5
c0 72.667 7.16699 142.667 21.5 210s35.5 130.166 63.5 188.499s62.333 111.666 103 159.999s87.334 89.666 140.001 123.999s111 60.833 175 79.5s133.333 28 208 28c35.333 0 70.5 -3 105.5 -9s68 -15.167 99 -27.5s59.167 -28.333 84.5 -48s46 -43.167 62 -70.5l-27 51.5
c-9.33301 17 -18.5 32.667 -27.5 47l-25 39.5l-18.5 29c-25.333 48 -54.666 94.833 -87.999 140.5s-73 93.5 -119 143.5l-323 -147l-98 129l299 134c-35.333 34 -74.333 68 -117 102l-139 108l234 101c42 -34 82.667 -69 122 -105l117 -112l317 141l101 -128l-309 -134
c67.333 -79.333 127.5 -162.5 180.5 -249.5s97.833 -176.833 134.5 -269.5s64.667 -187.5 84 -284.5s29 -195.5 29 -295.5zM1281 796.004c0 84.667 -9.49902 161.497 -28.499 230.497s-47.5 127.833 -85.5 176.5s-85.333 86.167 -142 112.5s-122.667 39.5 -198 39.5
c-59.333 0 -116.666 -11.667 -171.999 -35s-104.333 -59.166 -147 -107.499s-76.834 -109.5 -102.501 -183.5s-38.5 -161.667 -38.5 -263c0 -95.333 10.833 -180.166 32.5 -254.499s52.834 -137 93.501 -188s90.167 -89.667 148.5 -116s124.166 -39.5 197.499 -39.5
c60 0 116.833 11.5 170.5 34.5s100.667 59.667 141 110s72.166 115.333 95.499 195s35 175.834 35 288.501z" />
    <glyph glyph-name="ntilde" unicode="&#xf1;" horiz-adv-x="1760" 
d="M1254 0l0.00195312 980.002c0 59.333 -4.5 112.166 -13.5 158.499s-24.333 85.5 -46 117.5s-50.667 56.5 -87 73.5s-81.833 25.5 -136.5 25.5c-68 0 -130.5 -15.833 -187.5 -47.5s-106 -75.667 -147 -132s-72.833 -122.833 -95.5 -199.5s-34 -160 -34 -250v-726h-229
v1517h226c0 -25.333 -0.5 -53 -1.5 -83s-2.66699 -60.167 -5 -90.5s-5 -59.833 -8 -88.5s-6.5 -54.334 -10.5 -77.001l6 -3c21.333 56 49.166 106.667 83.499 152s74.5 84 120.5 116s97.5 56.833 154.5 74.5s118.5 26.5 184.5 26.5c86.667 0 159.167 -12.667 217.5 -38
s105.166 -60 140.499 -104s60.333 -95.667 75 -155s22 -123 22 -191v-1056h-229zM1401 2054c-38 -70.667 -84.001 -125.501 -138.001 -164.501s-114 -58.5 -180 -58.5c-33.333 0 -63 4.16699 -89 12.5s-50 18.833 -72 31.5s-42.333 26.5 -61 41.5s-37 28.833 -55 41.5
s-36.333 23.167 -55 31.5s-39 12.5 -61 12.5c-69.333 0 -131.333 -48 -186 -144l-120 95c38 70.667 84.167 125.334 138.5 164.001s115.166 58 182.499 58c32.667 0 61.834 -4.16699 87.501 -12.5s49.334 -18.833 71.001 -31.5s41.834 -26.334 60.501 -41
c18.667 -14.667 37 -28.334 55 -41c18 -12.667 36.333 -23.167 55 -31.5s39 -12.5 61 -12.5c34 0 67.167 12 99.5 36s62.166 60 89.499 108z" />
    <glyph glyph-name="ograve" unicode="&#xf2;" horiz-adv-x="1654" 
d="M1523 784c0 -75.333 -7.50098 -147.667 -22.501 -217s-37 -134.166 -66 -194.499s-64.5 -115 -106.5 -164s-90 -91 -144 -126s-113.5 -62.167 -178.5 -81.5s-134.833 -29 -209.5 -29c-101.333 0 -193.166 15.667 -275.499 47s-152.5 79.166 -210.5 143.499
s-102.833 145.333 -134.5 243s-47.5 212.834 -47.5 345.501c0 108 16.333 210.167 49 306.5s80 180.5 142 252.5s137.833 129 227.5 171s191.5 63 305.5 63c92 0 178.667 -13.5 260 -40.5s152.5 -70.667 213.5 -131s109.167 -138.833 144.5 -235.5s53 -214.334 53 -353.001z
M1284 768.999c0 91.333 -9.5 173.333 -28.5 246s-47.5 134.167 -85.5 184.5s-85.333 88.833 -142 115.5s-122.667 40 -198 40c-59.333 0 -116.833 -11.5 -172.5 -34.5s-105 -58.5 -148 -106.5s-77.5 -108.833 -103.5 -182.5s-39 -161.167 -39 -262.5
c0 -97.333 10.167 -183.333 30.5 -258s50.333 -137.334 90 -188.001s88.167 -89.167 145.5 -115.5s123 -39.5 197 -39.5c59.333 0 116.333 11.667 171 35s103 59.5 145 108.5s75.5 111.333 100.5 187s37.5 165.834 37.5 270.501zM918.999 1754l-421 354l134 150l393 -384z
" />
    <glyph glyph-name="oacute" unicode="&#xf3;" horiz-adv-x="1654" 
d="M1523 784c0 -75.333 -7.50098 -147.667 -22.501 -217s-37 -134.166 -66 -194.499s-64.5 -115 -106.5 -164s-90 -91 -144 -126s-113.5 -62.167 -178.5 -81.5s-134.833 -29 -209.5 -29c-101.333 0 -193.166 15.667 -275.499 47s-152.5 79.166 -210.5 143.499
s-102.833 145.333 -134.5 243s-47.5 212.834 -47.5 345.501c0 108 16.333 210.167 49 306.5s80 180.5 142 252.5s137.833 129 227.5 171s191.5 63 305.5 63c92 0 178.667 -13.5 260 -40.5s152.5 -70.667 213.5 -131s109.167 -138.833 144.5 -235.5s53 -214.334 53 -353.001z
M1284 768.999c0 91.333 -9.5 173.333 -28.5 246s-47.5 134.167 -85.5 184.5s-85.333 88.833 -142 115.5s-122.667 40 -198 40c-59.333 0 -116.833 -11.5 -172.5 -34.5s-105 -58.5 -148 -106.5s-77.5 -108.833 -103.5 -182.5s-39 -161.167 -39 -262.5
c0 -97.333 10.167 -183.333 30.5 -258s50.333 -137.334 90 -188.001s88.167 -89.167 145.5 -115.5s123 -39.5 197 -39.5c59.333 0 116.333 11.667 171 35s103 59.5 145 108.5s75.5 111.333 100.5 187s37.5 165.834 37.5 270.501zM771.999 1754l-107 120l391 384l137 -150z
" />
    <glyph glyph-name="ocircumflex" unicode="&#xf4;" horiz-adv-x="1654" 
d="M1523 784c0 -75.333 -7.50098 -147.667 -22.501 -217s-37 -134.166 -66 -194.499s-64.5 -115 -106.5 -164s-90 -91 -144 -126s-113.5 -62.167 -178.5 -81.5s-134.833 -29 -209.5 -29c-101.333 0 -193.166 15.667 -275.499 47s-152.5 79.166 -210.5 143.499
s-102.833 145.333 -134.5 243s-47.5 212.834 -47.5 345.501c0 108 16.333 210.167 49 306.5s80 180.5 142 252.5s137.833 129 227.5 171s191.5 63 305.5 63c92 0 178.667 -13.5 260 -40.5s152.5 -70.667 213.5 -131s109.167 -138.833 144.5 -235.5s53 -214.334 53 -353.001z
M1284 768.999c0 91.333 -9.5 173.333 -28.5 246s-47.5 134.167 -85.5 184.5s-85.333 88.833 -142 115.5s-122.667 40 -198 40c-59.333 0 -116.833 -11.5 -172.5 -34.5s-105 -58.5 -148 -106.5s-77.5 -108.833 -103.5 -182.5s-39 -161.167 -39 -262.5
c0 -97.333 10.167 -183.333 30.5 -258s50.333 -137.334 90 -188.001s88.167 -89.167 145.5 -115.5s123 -39.5 197 -39.5c59.333 0 116.333 11.667 171 35s103 59.5 145 108.5s75.5 111.333 100.5 187s37.5 165.834 37.5 270.501zM1123 1754l-299 263l-303 -263l-103 108
l409 396l406 -390z" />
    <glyph glyph-name="otilde" unicode="&#xf5;" horiz-adv-x="1654" 
d="M1523 784c0 -75.333 -7.50098 -147.667 -22.501 -217s-37 -134.166 -66 -194.499s-64.5 -115 -106.5 -164s-90 -91 -144 -126s-113.5 -62.167 -178.5 -81.5s-134.833 -29 -209.5 -29c-101.333 0 -193.166 15.667 -275.499 47s-152.5 79.166 -210.5 143.499
s-102.833 145.333 -134.5 243s-47.5 212.834 -47.5 345.501c0 108 16.333 210.167 49 306.5s80 180.5 142 252.5s137.833 129 227.5 171s191.5 63 305.5 63c92 0 178.667 -13.5 260 -40.5s152.5 -70.667 213.5 -131s109.167 -138.833 144.5 -235.5s53 -214.334 53 -353.001z
M1284 768.999c0 91.333 -9.5 173.333 -28.5 246s-47.5 134.167 -85.5 184.5s-85.333 88.833 -142 115.5s-122.667 40 -198 40c-59.333 0 -116.833 -11.5 -172.5 -34.5s-105 -58.5 -148 -106.5s-77.5 -108.833 -103.5 -182.5s-39 -161.167 -39 -262.5
c0 -97.333 10.167 -183.333 30.5 -258s50.333 -137.334 90 -188.001s88.167 -89.167 145.5 -115.5s123 -39.5 197 -39.5c59.333 0 116.333 11.667 171 35s103 59.5 145 108.5s75.5 111.333 100.5 187s37.5 165.834 37.5 270.501zM1345 2054
c-38 -70.667 -83.835 -125.5 -137.502 -164.5s-113.5 -58.5 -179.5 -58.5c-33.333 0 -63 4.16699 -89 12.5s-50 18.833 -72 31.5s-42.333 26.5 -61 41.5s-37 28.833 -55 41.5s-36.333 23.167 -55 31.5s-39 12.5 -61 12.5c-69.333 0 -131.666 -48 -186.999 -144l-119 95
c38 70.667 84.167 125.334 138.5 164.001s115.166 58 182.499 58c32.667 0 61.834 -4.16699 87.501 -12.5s49.334 -18.833 71.001 -31.5s41.834 -26.334 60.501 -41c18.667 -14.667 37 -28.334 55 -41.001s36.333 -23.167 55 -31.5s39 -12.5 61 -12.5
c34 0 67.167 12 99.5 36s62.166 60 89.499 108z" />
    <glyph glyph-name="odieresis" unicode="&#xf6;" horiz-adv-x="1654" 
d="M1523 784c0 -75.333 -7.50098 -147.667 -22.501 -217s-37 -134.166 -66 -194.499s-64.5 -115 -106.5 -164s-90 -91 -144 -126s-113.5 -62.167 -178.5 -81.5s-134.833 -29 -209.5 -29c-101.333 0 -193.166 15.667 -275.499 47s-152.5 79.166 -210.5 143.499
s-102.833 145.333 -134.5 243s-47.5 212.834 -47.5 345.501c0 108 16.333 210.167 49 306.5s80 180.5 142 252.5s137.833 129 227.5 171s191.5 63 305.5 63c92 0 178.667 -13.5 260 -40.5s152.5 -70.667 213.5 -131s109.167 -138.833 144.5 -235.5s53 -214.334 53 -353.001z
M1284 768.999c0 91.333 -9.5 173.333 -28.5 246s-47.5 134.167 -85.5 184.5s-85.333 88.833 -142 115.5s-122.667 40 -198 40c-59.333 0 -116.833 -11.5 -172.5 -34.5s-105 -58.5 -148 -106.5s-77.5 -108.833 -103.5 -182.5s-39 -161.167 -39 -262.5
c0 -97.333 10.167 -183.333 30.5 -258s50.333 -137.334 90 -188.001s88.167 -89.167 145.5 -115.5s123 -39.5 197 -39.5c59.333 0 116.333 11.667 171 35s103 59.5 145 108.5s75.5 111.333 100.5 187s37.5 165.834 37.5 270.501zM1257 2005
c0 -20.667 -3.83301 -40 -11.5 -58s-18.334 -33.5 -32.001 -46.5s-29.334 -23.333 -47.001 -31s-36.5 -11.5 -56.5 -11.5c-20.667 0 -39.834 3.83301 -57.501 11.5s-33 18 -46 31s-23.333 28.5 -31 46.5s-11.5 37.333 -11.5 58c0 20 3.83301 38.667 11.5 56s18 32.5 31 45.5
s28.333 23.333 46 31s36.834 11.5 57.501 11.5c20 0 38.833 -3.83301 56.5 -11.5s33.334 -18 47.001 -31s24.334 -28.167 32.001 -45.5s11.5 -36 11.5 -56zM682.999 2005c0 -20.667 -3.83301 -40 -11.5 -58s-18 -33.5 -31 -46.5s-28.5 -23.333 -46.5 -31
s-37.333 -11.5 -58 -11.5s-39.834 3.83301 -57.501 11.5s-33 18 -46 31s-23.333 28.5 -31 46.5s-11.5 37.333 -11.5 58c0 20 3.83301 38.667 11.5 56s18 32.5 31 45.5s28.333 23.333 46 31s36.834 11.5 57.501 11.5s40 -3.83301 58 -11.5s33.5 -18 46.5 -31
s23.333 -28.167 31 -45.5s11.5 -36 11.5 -56z" />
    <glyph glyph-name="divide" unicode="&#xf7;" horiz-adv-x="1678" 
d="M998 1520c0 -23.333 -4.33301 -44.833 -13 -64.5s-20.334 -36.667 -35.001 -51s-32.167 -25.666 -52.5 -33.999s-41.833 -12.5 -64.5 -12.5c-22 0 -42.833 4.16699 -62.5 12.5s-36.834 19.666 -51.501 33.999s-26.334 31.333 -35.001 51s-13 41.167 -13 64.5
c0 22.667 4.33301 43.834 13 63.501s20.334 36.667 35.001 51s31.834 25.666 51.501 33.999s40.5 12.5 62.5 12.5c22.667 0 44.167 -4.16699 64.5 -12.5s37.833 -19.666 52.5 -33.999s26.334 -31.333 35.001 -51s13 -40.834 13 -63.501zM131 812v192h1416v-192h-1416z
M998 293c0 -23.333 -4.33301 -45 -13 -65s-20.334 -37.333 -35.001 -52s-32.167 -26.334 -52.5 -35.001s-41.833 -13 -64.5 -13c-22 0 -42.833 4.33301 -62.5 13s-36.834 20.334 -51.501 35.001s-26.334 32 -35.001 52s-13 41.667 -13 65c0 22 4.33301 42.833 13 62.5
s20.334 36.667 35.001 51s31.834 25.833 51.501 34.5s40.5 13 62.5 13c22.667 0 44.167 -4.33301 64.5 -13s37.833 -20.167 52.5 -34.5s26.334 -31.333 35.001 -51s13 -40.5 13 -62.5z" />
    <glyph glyph-name="oslash" unicode="&#xf8;" horiz-adv-x="1654" 
d="M1523 784c0 -75.333 -7.66699 -147.668 -23 -217.001s-37.5 -134.166 -66.5 -194.499s-64.5 -115 -106.5 -164s-89.833 -91 -143.5 -126s-112.667 -62.167 -177 -81.5s-133.5 -29 -207.5 -29c-36.667 0 -72.167 2.83301 -106.5 8.5s-66.833 13.167 -97.5 22.5l-122 -317
l-159 52l126 323c-55.333 32 -102.666 71.833 -141.999 119.5s-71.5 101.334 -96.5 161.001s-43.5 124 -55.5 193s-18 141.167 -18 216.5c0 72.667 7.33301 142.667 22 210s36.167 130.333 64.5 189s63.166 112.334 104.499 161.001s88.833 90.167 142.5 124.5
s113.167 61 178.5 80s136 28.5 212 28.5c24 0 48.667 -1.33301 74 -4s50.333 -6.33398 75 -11.001l110 287l158 -53l-110 -283c51.333 -23.333 99.166 -54.5 143.499 -93.5s82.833 -86.833 115.5 -143.5s58.334 -122.834 77.001 -198.501s28 -162.5 28 -260.5zM1297 768.998
c0 126 -17.5 232.502 -52.5 319.502s-88.833 153.5 -161.5 199.5l-418 -1099c26 -10.667 54.167 -18.334 84.5 -23.001s62.5 -7 96.5 -7c58 1.33301 114 14.166 168 38.499s102 61.333 144 111s75.667 112.5 101 188.5s38 166.667 38 272zM931 1348
c-20 3.33301 -40.168 6.16602 -60.501 8.49902s-42.166 2.83301 -65.499 1.5c-53.333 -1.33301 -106.833 -12.5 -160.5 -33.5s-102 -54.667 -145 -101s-78 -106.666 -105 -180.999s-40.5 -165.5 -40.5 -273.5c0 -53.333 3.5 -104.5 10.5 -153.5s17.333 -94.667 31 -137
s31 -80.833 52 -115.5s45.5 -64 73.5 -88z" />
    <glyph glyph-name="ugrave" unicode="&#xf9;" horiz-adv-x="1760" 
d="M1258 0c0 25.333 0.5 52.832 1.5 82.499s2.5 59.667 4.5 90s4.33301 59.833 7 88.5s6 54.667 10 78l-6 3c-21.333 -56 -49.166 -106.667 -83.499 -152s-74.5 -84.166 -120.5 -116.499s-97.333 -57.333 -154 -75s-118.334 -26.5 -185.001 -26.5
c-87.333 0 -160 12.667 -218 38s-104.5 60 -139.5 104s-59.833 95.667 -74.5 155s-22 123 -22 191v1057h229v-980c0 -59.333 4.5 -112.333 13.5 -159s24.333 -86 46 -118s50.667 -56.333 87 -73s81.833 -25 136.5 -25c68 0 130.333 15.833 187 47.5s105.5 75.5 146.5 131.5
s73 122.333 96 199s34.5 160 34.5 250v727h229v-1517h-225zM897 1754l-421 354l134 150l394 -384z" />
    <glyph glyph-name="uacute" unicode="&#xfa;" horiz-adv-x="1760" 
d="M1258 0c0 25.333 0.5 52.832 1.5 82.499s2.5 59.667 4.5 90s4.33301 59.833 7 88.5s6 54.667 10 78l-6 3c-21.333 -56 -49.166 -106.667 -83.499 -152s-74.5 -84.166 -120.5 -116.499s-97.333 -57.333 -154 -75s-118.334 -26.5 -185.001 -26.5
c-87.333 0 -160 12.667 -218 38s-104.5 60 -139.5 104s-59.833 95.667 -74.5 155s-22 123 -22 191v1057h229v-980c0 -59.333 4.5 -112.333 13.5 -159s24.333 -86 46 -118s50.667 -56.333 87 -73s81.833 -25 136.5 -25c68 0 130.333 15.833 187 47.5s105.5 75.5 146.5 131.5
s73 122.333 96 199s34.5 160 34.5 250v727h229v-1517h-225zM876 1754l-106 120l390 384l137 -150z" />
    <glyph glyph-name="ucircumflex" unicode="&#xfb;" horiz-adv-x="1760" 
d="M1258 0c0 25.333 0.5 52.832 1.5 82.499s2.5 59.667 4.5 90s4.33301 59.833 7 88.5s6 54.667 10 78l-6 3c-21.333 -56 -49.166 -106.667 -83.499 -152s-74.5 -84.166 -120.5 -116.499s-97.333 -57.333 -154 -75s-118.334 -26.5 -185.001 -26.5
c-87.333 0 -160 12.667 -218 38s-104.5 60 -139.5 104s-59.833 95.667 -74.5 155s-22 123 -22 191v1057h229v-980c0 -59.333 4.5 -112.333 13.5 -159s24.333 -86 46 -118s50.667 -56.333 87 -73s81.833 -25 136.5 -25c68 0 130.333 15.833 187 47.5s105.5 75.5 146.5 131.5
s73 122.333 96 199s34.5 160 34.5 250v727h229v-1517h-225zM1169 1754l-299 263l-302 -263l-104 108l409 396l406 -390z" />
    <glyph glyph-name="udieresis" unicode="&#xfc;" horiz-adv-x="1760" 
d="M1258 0c0 25.333 0.5 52.832 1.5 82.499s2.5 59.667 4.5 90s4.33301 59.833 7 88.5s6 54.667 10 78l-6 3c-21.333 -56 -49.166 -106.667 -83.499 -152s-74.5 -84.166 -120.5 -116.499s-97.333 -57.333 -154 -75s-118.334 -26.5 -185.001 -26.5
c-87.333 0 -160 12.667 -218 38s-104.5 60 -139.5 104s-59.833 95.667 -74.5 155s-22 123 -22 191v1057h229v-980c0 -59.333 4.5 -112.333 13.5 -159s24.333 -86 46 -118s50.667 -56.333 87 -73s81.833 -25 136.5 -25c68 0 130.333 15.833 187 47.5s105.5 75.5 146.5 131.5
s73 122.333 96 199s34.5 160 34.5 250v727h229v-1517h-225zM1303 2005c0 -20.667 -3.83301 -40 -11.5 -58s-18.334 -33.5 -32.001 -46.5s-29.334 -23.333 -47.001 -31s-36.5 -11.5 -56.5 -11.5c-20.667 0 -39.834 3.83301 -57.501 11.5s-33 18 -46 31s-23.333 28.5 -31 46.5
s-11.5 37.333 -11.5 58c0 20 3.83301 38.667 11.5 56s18 32.5 31 45.5s28.333 23.333 46 31s36.834 11.5 57.501 11.5c20 0 38.833 -3.83301 56.5 -11.5s33.334 -18 47.001 -31s24.334 -28.167 32.001 -45.5s11.5 -36 11.5 -56zM729 2005c0 -20.667 -3.83301 -40 -11.5 -58
s-18 -33.5 -31 -46.5s-28.333 -23.333 -46 -31s-36.834 -11.5 -57.501 -11.5s-39.834 3.83301 -57.501 11.5s-33 18 -46 31s-23.333 28.5 -31 46.5s-11.5 37.333 -11.5 58c0 20 3.83301 38.667 11.5 56s18 32.5 31 45.5s28.333 23.333 46 31s36.834 11.5 57.501 11.5
s39.834 -3.83301 57.501 -11.5s33 -18 46 -31s23.333 -28.167 31 -45.5s11.5 -36 11.5 -56z" />
    <glyph glyph-name="yacute" unicode="&#xfd;" horiz-adv-x="1437" 
d="M778 -144c-45.333 -118.667 -91.166 -218.831 -137.499 -300.498s-97 -147.667 -152 -198s-115.833 -86.5 -182.5 -108.5s-142.334 -33 -227.001 -33c-12 0 -25 0.5 -39 1.5s-28.167 2.33301 -42.5 4s-28.5 3.66699 -42.5 6l-38 6.5l25 204c24.667 -6 53.5 -11 86.5 -15
s64.167 -6 93.5 -6c42.667 0 83 6 121 18s74.333 33.167 109 63.5s68 71.666 100 123.999s63.333 119.166 94 200.499l67 177l-579 1517h262l317 -870c24.667 -68.667 46 -131.667 64 -189l52 -171h3c6.66699 24 15.667 53.5 27 88.5l37 113.5l43 127.5l46 131.5l271 769
h251zM693 1754l-107 120l391 384l137 -150z" />
    <glyph glyph-name="thorn" unicode="&#xfe;" horiz-adv-x="1703" 
d="M1562 827c0 -136 -17.8311 -256.506 -53.498 -361.506s-87 -193.333 -154 -265s-148.333 -126.167 -244 -163.5s-203.5 -56 -323.5 -56c-26 0 -50.5 0.333008 -73.5 1s-45.667 1.83398 -68 3.50098s-44.833 3.83398 -67.5 6.50098s-46.334 6.33398 -71.001 11.001v-763
h-229v2988h229v-684c0 -29.333 -0.333008 -60.333 -1 -93s-2 -64.667 -4 -96s-4.33301 -61 -7 -89s-6 -51.333 -10 -70l6 -3c21.333 52.667 48.833 100.667 82.5 144s72.334 80.333 116.001 111s92 54.334 145 71.001s109.5 25 169.5 25
c89.333 0 168.666 -15.333 237.999 -46s127.666 -76.167 174.999 -136.5s83.333 -135.166 108 -224.499s37 -192.666 37 -309.999zM1322 807.994c0 85.333 -7.16406 161.831 -21.4971 229.498s-36.5 125 -66.5 172s-67.833 83 -113.5 108s-99.834 37.5 -162.501 37.5
c-50.667 0 -97 -9.16699 -139 -27.5s-79.833 -43.166 -113.5 -74.499s-62.834 -67.666 -87.501 -108.999s-45.334 -85 -62.001 -131s-29 -93.167 -37 -141.5s-12 -94.833 -12 -139.5v-531c44 -13.333 90 -23.166 138 -29.499s100.333 -9.5 157 -9.5
c78.667 0 150 12.167 214 36.5s118.667 62.666 164 114.999s80.333 119.333 105 201s37 179.5 37 293.5z" />
    </font>
</defs>
</svg>
